# Made in Blockbench 5.1.6
mtllib warn.mtl

o object_1
v -0.5715533244113125 0.5403147900247826 0.275000000000001
v -0.5308461176852382 0.5956876003885521 0.275000000000001
v -0.586127566049496 0.5956876003885521 0.275000000000001
v -0.5747056948641929 0.4485750520372642 0.275000000000001
v -0.5747056948641929 0.09861156584265357 0.2750000000000009
v -0.5308461176852382 0.09861156584265357 0.2750000000000009
v -0.8808095919589196 0.24997308494093556 0.27500000000000097
v -0.8808095919589196 0.5956876003885521 0.2750000000000011
v -0.9255829798678554 0.5956876003885521 0.2750000000000011
v -0.9255829798678554 0.09861156584265363 0.27500000000000097
v -0.8677886950472984 0.0986115658426536 0.27500000000000097
v -0.8846472727755699 0.15083200575354236 0.27500000000000097
v -0.8677886950472984 0.09861156584265363 0.25000000000000094
v -0.5715533244113125 0.5403147900247826 0.225000000000001
v -0.8677886950472984 0.09861156584265363 0.22500000000000095
v -0.5747056948641929 0.09861156584265357 0.2500000000000009
v -0.5747056948641929 0.4485750520372642 0.225000000000001
v -0.5747056948641929 0.0986115658426536 0.22500000000000092
v -0.5308461176852382 0.09861156584265357 0.2500000000000009
v -0.5308461176852382 0.09861156584265357 0.22500000000000092
v -0.5308461176852382 0.5956876003885521 0.250000000000001
v -0.5308461176852382 0.5956876003885521 0.22500000000000103
v -0.586127566049496 0.5956876003885521 0.250000000000001
v -0.586127566049496 0.5956876003885521 0.22500000000000103
v -0.8846472727755699 0.15083200575354236 0.22500000000000098
v -0.8808095919589196 0.5956876003885521 0.25000000000000105
v -0.8808095919589196 0.24997308494093556 0.22500000000000098
v -0.8808095919589196 0.5956876003885521 0.22500000000000106
v -0.9255829798678554 0.5956876003885521 0.25000000000000105
v -0.9255829798678554 0.5956876003885521 0.2250000000000011
v -0.9255829798678554 0.09861156584265363 0.25000000000000094
v -0.9255829798678554 0.09861156584265363 0.22500000000000098
vt 0.0234375 0.9921875
vt 0.0078125 0.9921875
vt 0.0078125 0.9765625
vt 0.0546875 0.9921875
vt 0.0390625 0.9921875
vt 0.0390625 0.9765625
vt 0.0859375 0.9921875
vt 0.0703125 0.9921875
vt 0.0703125 0.9765625
vt 0.0859375 0.9765625
vt 0.1171875 0.9921875
vt 0.1015625 0.9921875
vt 0.1015625 0.9765625
vt 0.1171875 0.9765625
vt 0.1484375 0.9921875
vt 0.1328125 0.9921875
vt 0.1328125 0.9765625
vt 0.1796875 0.9921875
vt 0.1640625 0.9921875
vt 0.1640625 0.9765625
vt 0.2109375 0.9921875
vt 0.1953125 0.9921875
vt 0.1953125 0.9765625
vt 0.2421875 0.9921875
vt 0.2265625 0.9921875
vt 0.2265625 0.9765625
vt 0.2734375 0.9921875
vt 0.2578125 0.9921875
vt 0.2578125 0.9765625
vt 0.3046875 0.9921875
vt 0.2890625 0.9921875
vt 0.2890625 0.9765625
vt 0.3359375 0.9921875
vt 0.3203125 0.9921875
vt 0.3203125 0.9765625
vt 0.3671875 0.9921875
vt 0.3515625 0.9921875
vt 0.3515625 0.9765625
vt 0.3984375 0.9921875
vt 0.3828125 0.9921875
vt 0.3828125 0.9765625
vt 0.4296875 0.9921875
vt 0.4140625 0.9921875
vt 0.4140625 0.9765625
vt 0.4296875 0.9765625
vt 0.4609375 0.9921875
vt 0.4453125 0.9921875
vt 0.4453125 0.9765625
vt 0.4921875 0.9921875
vt 0.4765625 0.9921875
vt 0.4765625 0.9765625
vt 0.4921875 0.9765625
vt 0.5234375 0.9921875
vt 0.5078125 0.9921875
vt 0.5078125 0.9765625
vt 0.5234375 0.9765625
vt 0.5546875 0.9921875
vt 0.5390625 0.9921875
vt 0.5390625 0.9765625
vt 0.5546875 0.9765625
vt 0.5859375 0.9921875
vt 0.5703125 0.9921875
vt 0.5703125 0.9765625
vt 0.5859375 0.9765625
vt 0.6171875 0.9921875
vt 0.6015625 0.9921875
vt 0.6015625 0.9765625
vt 0.6171875 0.9765625
vt 0.6484375 0.9921875
vt 0.6328125 0.9921875
vt 0.6328125 0.9765625
vt 0.6484375 0.9765625
vt 0.6796875 0.9921875
vt 0.6640625 0.9921875
vt 0.6640625 0.9765625
vt 0.7109375 0.9921875
vt 0.6953125 0.9921875
vt 0.6953125 0.9765625
vt 0.7421875 0.9921875
vt 0.7265625 0.9921875
vt 0.7265625 0.9765625
vt 0.7734375 0.9921875
vt 0.7578125 0.9921875
vt 0.7578125 0.9765625
vt 0.8046875 0.9921875
vt 0.7890625 0.9921875
vt 0.7890625 0.9765625
vt 0.8359375 0.9921875
vt 0.8203125 0.9921875
vt 0.8203125 0.9765625
vt 0.8359375 0.9765625
vt 0.8671875 0.9921875
vt 0.8515625 0.9921875
vt 0.8515625 0.9765625
vt 0.8984375 0.9921875
vt 0.8828125 0.9921875
vt 0.8828125 0.9765625
vt 0.8984375 0.9765625
vt 0.9296875 0.9921875
vt 0.9140625 0.9921875
vt 0.9140625 0.9765625
vt 0.9296875 0.9765625
vt 0.9609375 0.9921875
vt 0.9453125 0.9921875
vt 0.9453125 0.9765625
vt 0.9609375 0.9765625
vt 0.9921875 0.9921875
vt 0.9765625 0.9921875
vt 0.9765625 0.9765625
vt 0.9921875 0.9765625
vt 0.0234375 0.9609375
vt 0.0078125 0.9609375
vt 0.0078125 0.9453125
vt 0.0234375 0.9453125
vt 0.0546875 0.9609375
vt 0.0390625 0.9609375
vt 0.0390625 0.9453125
vt 0.0546875 0.9453125
vt 0.0859375 0.9609375
vt 0.0703125 0.9609375
vt 0.0703125 0.9453125
vt 0.1171875 0.9609375
vt 0.1015625 0.9609375
vt 0.1015625 0.9453125
vt 0.1484375 0.9609375
vt 0.1328125 0.9609375
vt 0.1328125 0.9453125
vt 0.1484375 0.9453125
vt 0.1796875 0.9609375
vt 0.1640625 0.9609375
vt 0.1640625 0.9453125
vt 0.1796875 0.9453125
vt 0.2109375 0.9609375
vt 0.1953125 0.9609375
vt 0.1953125 0.9453125
vt 0.2421875 0.9609375
vt 0.2265625 0.9609375
vt 0.2265625 0.9453125
vt 0.2734375 0.9609375
vt 0.2578125 0.9609375
vt 0.2578125 0.9453125
vt 0.3046875 0.9609375
vt 0.2890625 0.9609375
vt 0.2890625 0.9453125
vn 1.2246467991473532e-16 -2.220446049250313e-16 1
vn 1.2246467991473532e-16 -2.220446049250313e-16 1
vn 1.2246467991473532e-16 -2.220446049250313e-16 1
vn 1.2246467991473532e-16 -2.220446049250313e-16 1
vn 1.2246467991473532e-16 -2.220446049250313e-16 1
vn 1.2246467991473532e-16 -2.220446049250313e-16 1
vn 1.2246467991473532e-16 -2.220446049250313e-16 1
vn 1.2246467991473532e-16 -2.220446049250313e-16 1
vn 0.8305140841402044 -0.5569976266060366 -2.2538695942282716e-16
vn 0.8305140841402044 -0.5569976266060366 -2.2538695942282716e-16
vn 0.8305140841402044 -0.5569976266060366 -2.2538695942282716e-16
vn -1 1.2246467991473532e-16 1.2246467991473535e-16
vn -1 1.2246467991473532e-16 1.2246467991473535e-16
vn -0.9994101451949488 0.03434183573153585 1.3001786288224773e-16
vn -1 1.2246467991473532e-16 1.2246467991473535e-16
vn -1.2246467991473535e-16 -1 -2.2204460492503128e-16
vn -1.2246467991473535e-16 -1 -2.2204460492503128e-16
vn 1 -1.2246467991473532e-16 -1.2246467991473535e-16
vn 1 -1.2246467991473532e-16 -1.2246467991473535e-16
vn 1.2246467991473535e-16 1 2.2204460492503128e-16
vn 1.2246467991473535e-16 1 2.2204460492503128e-16
vn -0.8303671360083804 0.5572166718945512 2.254176012914482e-16
vn -0.8303671360083804 0.5572166718945512 2.254176012914482e-16
vn -0.8303671360083804 0.5572166718945512 2.254176012914482e-16
vn 1 -1.2246467991473532e-16 -1.2246467991473535e-16
vn 1 -1.2246467991473532e-16 -1.2246467991473535e-16
vn 0.9992516363328514 -0.038680321690996985 -1.309617885460287e-16
vn 1 -1.2246467991473532e-16 -1.2246467991473535e-16
vn 1.2246467991473535e-16 1 2.2204460492503128e-16
vn 1.2246467991473535e-16 1 2.2204460492503128e-16
vn -1 1.2246467991473532e-16 1.2246467991473535e-16
vn -1 1.2246467991473532e-16 1.2246467991473535e-16
vn -1.2246467991473535e-16 -1 -2.2204460492503128e-16
vn -1.2246467991473535e-16 -1 -2.2204460492503128e-16
vn -1.2246467991473532e-16 2.220446049250313e-16 -1
vn -1.2246467991473532e-16 2.220446049250313e-16 -1
vn -1.2246467991473532e-16 2.220446049250313e-16 -1
vn -1.2246467991473532e-16 2.220446049250313e-16 -1
vn -1.2246467991473532e-16 2.220446049250313e-16 -1
vn -1.2246467991473532e-16 2.220446049250313e-16 -1
vn -1.2246467991473532e-16 2.220446049250313e-16 -1
vn -1.2246467991473532e-16 2.220446049250313e-16 -1
usemtl m_6bc5f999-7733-a6c5-8d89-2d8ee6f8ffc1
f 1/1/1 2/2/1 3/3/1
f 4/4/2 2/5/2 1/6/2
f 4/7/3 5/8/3 6/9/3 2/10/3
f 7/11/4 8/12/4 9/13/4 10/14/4
f 10/15/5 11/16/5 12/17/5
f 11/18/6 1/19/6 12/20/6
f 7/21/7 10/22/7 12/23/7
f 3/24/8 12/25/8 1/26/8
f 13/27/9 14/28/9 1/29/9
f 1/30/10 11/31/10 13/32/10
f 14/33/11 13/34/11 15/35/11
f 4/36/12 16/37/12 5/38/12
f 17/39/13 18/40/13 16/41/13
f 1/42/14 14/43/14 17/44/14 4/45/14
f 16/46/15 4/47/15 17/48/15
f 19/49/16 6/50/16 5/51/16 16/52/16
f 20/53/17 19/54/17 16/55/17 18/56/17
f 21/57/18 2/58/18 6/59/18 19/60/18
f 22/61/19 21/62/19 19/63/19 20/64/19
f 23/65/20 3/66/20 2/67/20 21/68/20
f 24/69/21 23/70/21 21/71/21 22/72/21
f 23/73/22 25/74/22 12/75/22
f 12/76/23 3/77/23 23/78/23
f 25/79/24 23/80/24 24/81/24
f 7/82/25 26/83/25 8/84/25
f 27/85/26 28/86/26 26/87/26
f 12/88/27 25/89/27 27/90/27 7/91/27
f 26/92/28 7/93/28 27/94/28
f 29/95/29 9/96/29 8/97/29 26/98/29
f 30/99/30 29/100/30 26/101/30 28/102/30
f 31/103/31 10/104/31 9/105/31 29/106/31
f 32/107/32 31/108/32 29/109/32 30/110/32
f 13/111/33 11/112/33 10/113/33 31/114/33
f 15/115/34 13/116/34 31/117/34 32/118/34
f 14/119/35 24/120/35 22/121/35
f 17/122/36 14/123/36 22/124/36
f 17/125/37 22/126/37 20/127/37 18/128/37
f 27/129/38 32/130/38 30/131/38 28/132/38
f 32/133/39 25/134/39 15/135/39
f 15/136/40 25/137/40 14/138/40
f 27/139/41 25/140/41 32/141/41
f 24/142/42 14/143/42 25/144/42
o object_4
v 1.0015003693600502 0.5956876003885518 0.27500000000000085
v 0.9171618950863685 0.28314191342833156 0.2750000000000008
v 1.0510252488156167 0.5956876003885518 0.27500000000000085
v 0.7629221451779211 0.4273762130880606 0.27500000000000085
v 0.7548355353375282 0.5956876003885518 0.27500000000000085
v 0.7344590914746131 0.5420509302759421 0.27500000000000085
v 0.8476261151333655 0.28839597047808285 0.2750000000000008
v 0.911907912542423 0.0986115658426534 0.27500000000000074
v 0.8844955933590735 0.15083200575354214 0.27500000000000074
v 0.8616520417233313 0.0986115658426534 0.27500000000000074
v 0.6100986731549108 0.09861156584265343 0.2750000000000008
v 0.7067269814511146 0.42705639840605375 0.27500000000000085
v 0.622068716337284 0.2887614274168265 0.2750000000000008
v 0.7123464835186806 0.5956876003885518 0.27500000000000085
v 0.41652232532699957 0.595687600388552 0.2750000000000009
v 0.5539035451908911 0.2831419134283316 0.2750000000000008
v 0.4657273662587012 0.595687600388552 0.2750000000000009
v 0.5865698111553992 0.15083200575354216 0.2750000000000008
v 0.5616246474285925 0.09861156584265343 0.2750000000000008
v 1.0510252488156167 0.5956876003885518 0.25000000000000083
v 0.911907912542423 0.0986115658426534 0.2500000000000007
v 1.0510252488156167 0.5956876003885518 0.22500000000000084
v 0.911907912542423 0.0986115658426534 0.22500000000000073
v 1.0015003693600502 0.5956876003885518 0.25000000000000083
v 1.0015003693600502 0.5956876003885518 0.22500000000000084
v 0.8844955933590735 0.15083200575354214 0.22500000000000075
v 0.9171618950863685 0.28314191342833156 0.22500000000000078
v 0.7548355353375282 0.5956876003885518 0.2500000000000009
v 0.8476261151333655 0.28839597047808285 0.22500000000000078
v 0.7548355353375282 0.5956876003885518 0.22500000000000087
v 0.7123464835186806 0.5956876003885518 0.2500000000000009
v 0.7123464835186806 0.5956876003885518 0.22500000000000087
v 0.5865698111553992 0.15083200575354216 0.22500000000000078
v 0.622068716337284 0.2887614274168265 0.2250000000000008
v 0.4657273662587012 0.595687600388552 0.2500000000000009
v 0.5539035451908911 0.2831419134283316 0.2250000000000008
v 0.4657273662587012 0.595687600388552 0.2250000000000009
v 0.41652232532699957 0.595687600388552 0.2500000000000009
v 0.41652232532699957 0.595687600388552 0.22500000000000092
v 0.5616246474285925 0.09861156584265343 0.2500000000000008
v 0.5616246474285925 0.09861156584265346 0.22500000000000078
v 0.6100986731549108 0.09861156584265343 0.2500000000000008
v 0.6100986731549108 0.09861156584265343 0.22500000000000078
v 0.7344590914746131 0.5420509302759421 0.22500000000000087
v 0.7067269814511146 0.4270563984060538 0.22500000000000084
v 0.8616520417233313 0.0986115658426534 0.2500000000000007
v 0.7629221451779211 0.4273762130880606 0.2250000000000008
v 0.8616520417233313 0.0986115658426534 0.22500000000000075
vt 0.3359375 0.9609375
vt 0.3203125 0.9609375
vt 0.3203125 0.9453125
vt 0.3671875 0.9609375
vt 0.3515625 0.9609375
vt 0.3515625 0.9453125
vt 0.3984375 0.9609375
vt 0.3828125 0.9609375
vt 0.3828125 0.9453125
vt 0.4296875 0.9609375
vt 0.4140625 0.9609375
vt 0.4140625 0.9453125
vt 0.4609375 0.9609375
vt 0.4453125 0.9609375
vt 0.4453125 0.9453125
vt 0.4921875 0.9609375
vt 0.4765625 0.9609375
vt 0.4765625 0.9453125
vt 0.5234375 0.9609375
vt 0.5078125 0.9609375
vt 0.5078125 0.9453125
vt 0.5546875 0.9609375
vt 0.5390625 0.9609375
vt 0.5390625 0.9453125
vt 0.5859375 0.9609375
vt 0.5703125 0.9609375
vt 0.5703125 0.9453125
vt 0.6171875 0.9609375
vt 0.6015625 0.9609375
vt 0.6015625 0.9453125
vt 0.6484375 0.9609375
vt 0.6328125 0.9609375
vt 0.6328125 0.9453125
vt 0.6796875 0.9609375
vt 0.6640625 0.9609375
vt 0.6640625 0.9453125
vt 0.7109375 0.9609375
vt 0.6953125 0.9609375
vt 0.6953125 0.9453125
vt 0.7421875 0.9609375
vt 0.7265625 0.9609375
vt 0.7265625 0.9453125
vt 0.7734375 0.9609375
vt 0.7578125 0.9609375
vt 0.7578125 0.9453125
vt 0.8046875 0.9609375
vt 0.7890625 0.9609375
vt 0.7890625 0.9453125
vt 0.8359375 0.9609375
vt 0.8203125 0.9609375
vt 0.8203125 0.9453125
vt 0.8671875 0.9609375
vt 0.8515625 0.9609375
vt 0.8515625 0.9453125
vt 0.8671875 0.9453125
vt 0.8984375 0.9609375
vt 0.8828125 0.9609375
vt 0.8828125 0.9453125
vt 0.8984375 0.9453125
vt 0.9296875 0.9609375
vt 0.9140625 0.9609375
vt 0.9140625 0.9453125
vt 0.9296875 0.9453125
vt 0.9609375 0.9609375
vt 0.9453125 0.9609375
vt 0.9453125 0.9453125
vt 0.9609375 0.9453125
vt 0.9921875 0.9609375
vt 0.9765625 0.9609375
vt 0.9765625 0.9453125
vt 0.9921875 0.9453125
vt 0.0234375 0.9296875
vt 0.0078125 0.9296875
vt 0.0078125 0.9140625
vt 0.0546875 0.9296875
vt 0.0390625 0.9296875
vt 0.0390625 0.9140625
vt 0.0859375 0.9296875
vt 0.0703125 0.9296875
vt 0.0703125 0.9140625
vt 0.1171875 0.9296875
vt 0.1015625 0.9296875
vt 0.1015625 0.9140625
vt 0.1484375 0.9296875
vt 0.1328125 0.9296875
vt 0.1328125 0.9140625
vt 0.1796875 0.9296875
vt 0.1640625 0.9296875
vt 0.1640625 0.9140625
vt 0.1796875 0.9140625
vt 0.2109375 0.9296875
vt 0.1953125 0.9296875
vt 0.1953125 0.9140625
vt 0.2421875 0.9296875
vt 0.2265625 0.9296875
vt 0.2265625 0.9140625
vt 0.2421875 0.9140625
vt 0.2734375 0.9296875
vt 0.2578125 0.9296875
vt 0.2578125 0.9140625
vt 0.2734375 0.9140625
vt 0.3046875 0.9296875
vt 0.2890625 0.9296875
vt 0.2890625 0.9140625
vt 0.3046875 0.9140625
vt 0.3359375 0.9296875
vt 0.3203125 0.9296875
vt 0.3203125 0.9140625
vt 0.3671875 0.9296875
vt 0.3515625 0.9296875
vt 0.3515625 0.9140625
vt 0.3984375 0.9296875
vt 0.3828125 0.9296875
vt 0.3828125 0.9140625
vt 0.4296875 0.9296875
vt 0.4140625 0.9296875
vt 0.4140625 0.9140625
vt 0.4609375 0.9296875
vt 0.4453125 0.9296875
vt 0.4453125 0.9140625
vt 0.4921875 0.9296875
vt 0.4765625 0.9296875
vt 0.4765625 0.9140625
vt 0.4921875 0.9140625
vt 0.5234375 0.9296875
vt 0.5078125 0.9296875
vt 0.5078125 0.9140625
vt 0.5546875 0.9296875
vt 0.5390625 0.9296875
vt 0.5390625 0.9140625
vt 0.5546875 0.9140625
vt 0.5859375 0.9296875
vt 0.5703125 0.9296875
vt 0.5703125 0.9140625
vt 0.5859375 0.9140625
vt 0.6171875 0.9296875
vt 0.6015625 0.9296875
vt 0.6015625 0.9140625
vt 0.6171875 0.9140625
vt 0.6484375 0.9296875
vt 0.6328125 0.9296875
vt 0.6328125 0.9140625
vt 0.6484375 0.9140625
vt 0.6796875 0.9296875
vt 0.6640625 0.9296875
vt 0.6640625 0.9140625
vt 0.6796875 0.9140625
vt 0.7109375 0.9296875
vt 0.6953125 0.9296875
vt 0.6953125 0.9140625
vt 0.7109375 0.9140625
vt 0.7421875 0.9296875
vt 0.7265625 0.9296875
vt 0.7265625 0.9140625
vt 0.7421875 0.9140625
vt 0.7734375 0.9296875
vt 0.7578125 0.9296875
vt 0.7578125 0.9140625
vt 0.8046875 0.9296875
vt 0.7890625 0.9296875
vt 0.7890625 0.9140625
vt 0.8359375 0.9296875
vt 0.8203125 0.9296875
vt 0.8203125 0.9140625
vt 0.8671875 0.9296875
vt 0.8515625 0.9296875
vt 0.8515625 0.9140625
vt 0.8984375 0.9296875
vt 0.8828125 0.9296875
vt 0.8828125 0.9140625
vt 0.9296875 0.9296875
vt 0.9140625 0.9296875
vt 0.9140625 0.9140625
vt 0.9296875 0.9140625
vt 0.9609375 0.9296875
vt 0.9453125 0.9296875
vt 0.9453125 0.9140625
vt 0.9921875 0.9296875
vt 0.9765625 0.9296875
vt 0.9765625 0.9140625
vt 0.9921875 0.9140625
vt 0.0234375 0.8984375
vt 0.0078125 0.8984375
vt 0.0078125 0.8828125
vt 0.0234375 0.8828125
vt 0.0546875 0.8984375
vt 0.0390625 0.8984375
vt 0.0390625 0.8828125
vt 0.0859375 0.8984375
vt 0.0703125 0.8984375
vt 0.0703125 0.8828125
vt 0.1171875 0.8984375
vt 0.1015625 0.8984375
vt 0.1015625 0.8828125
vt 0.1484375 0.8984375
vt 0.1328125 0.8984375
vt 0.1328125 0.8828125
vt 0.1796875 0.8984375
vt 0.1640625 0.8984375
vt 0.1640625 0.8828125
vt 0.2109375 0.8984375
vt 0.1953125 0.8984375
vt 0.1953125 0.8828125
vt 0.2421875 0.8984375
vt 0.2265625 0.8984375
vt 0.2265625 0.8828125
vt 0.2734375 0.8984375
vt 0.2578125 0.8984375
vt 0.2578125 0.8828125
vt 0.3046875 0.8984375
vt 0.2890625 0.8984375
vt 0.2890625 0.8828125
vt 0.3359375 0.8984375
vt 0.3203125 0.8984375
vt 0.3203125 0.8828125
vt 0.3671875 0.8984375
vt 0.3515625 0.8984375
vt 0.3515625 0.8828125
vt 0.3984375 0.8984375
vt 0.3828125 0.8984375
vt 0.3828125 0.8828125
vt 0.4296875 0.8984375
vt 0.4140625 0.8984375
vt 0.4140625 0.8828125
vt 0.4609375 0.8984375
vt 0.4453125 0.8984375
vt 0.4453125 0.8828125
vt 0.4921875 0.8984375
vt 0.4765625 0.8984375
vt 0.4765625 0.8828125
vt 0.5234375 0.8984375
vt 0.5078125 0.8984375
vt 0.5078125 0.8828125
vt 0.5546875 0.8984375
vt 0.5390625 0.8984375
vt 0.5390625 0.8828125
vn 1.2246467991473532e-16 -2.220446049250313e-16 1
vn 1.2246467991473532e-16 -2.220446049250313e-16 1
vn 1.2246467991473532e-16 -2.220446049250313e-16 1
vn 1.2246467991473532e-16 -2.220446049250313e-16 1
vn 1.2246467991473532e-16 -2.220446049250313e-16 1
vn 1.2246467991473532e-16 -2.220446049250313e-16 1
vn 1.2246467991473532e-16 -2.220446049250313e-16 1
vn 1.2246467991473532e-16 -2.220446049250313e-16 1
vn 1.2246467991473532e-16 -2.220446049250313e-16 1
vn 1.2246467991473532e-16 -2.220446049250313e-16 1
vn 1.2246467991473532e-16 -2.220446049250313e-16 1
vn 1.2246467991473532e-16 -2.220446049250313e-16 1
vn 1.2246467991473532e-16 -2.220446049250313e-16 1
vn 1.2246467991473532e-16 -2.220446049250313e-16 1
vn 1.2246467991473532e-16 -2.220446049250313e-16 1
vn 1.2246467991473532e-16 -2.220446049250313e-16 1
vn 1.2246467991473532e-16 -2.220446049250313e-16 1
vn 0.9629961823024238 -0.269515032736501 -1.7777737819011167e-16
vn 0.9629961823024238 -0.269515032736501 -1.7777737819011167e-16
vn 1.2246467991473535e-16 1 2.2204460492503128e-16
vn 1.2246467991473535e-16 1 2.2204460492503128e-16
vn -0.9708482440369622 0.23969498753696744 1.7211759826192566e-16
vn -0.9654670556046168 0.2605251706498855 1.7608382252282154e-16
vn -0.9654670556046168 0.2605251706498855 1.7608382252282154e-16
vn -0.9654670556046168 0.2605251706498855 1.7608382252282154e-16
vn 0.9573076298327874 0.2890711017447628 -5.304969388524686e-17
vn 0.9573076298327874 0.2890711017447628 -5.304969388524686e-17
vn 0.965909455468719 0.25888013410866967 -6.08068551894943e-17
vn 0.9573076298327874 0.2890711017447628 -5.304969388524686e-17
vn 1.2246467991473535e-16 1 2.2204460492503128e-16
vn 1.2246467991473535e-16 1 2.2204460492503128e-16
vn -0.9684398372282095 0.24924743061744756 1.7394372194286136e-16
vn -0.9593609633389998 0.2821817535229134 1.801447692760506e-16
vn -0.9593609633389998 0.2821817535229134 1.801447692760506e-16
vn -0.9593609633389998 0.2821817535229134 1.801447692760506e-16
vn 0.9624317593085101 0.27152367976721004 -5.757352914179143e-17
vn 0.9624317593085101 0.27152367976721004 -5.757352914179143e-17
vn 0.9708483051030988 0.2396947401976949 -6.567170304040912e-17
vn 0.9624317593085101 0.27152367976721004 -5.757352914179143e-17
vn 1.2246467991473535e-16 1 2.2204460492503128e-16
vn 1.2246467991473535e-16 1 2.2204460492503128e-16
vn -0.9599367431853388 -0.28021678943761597 5.533771968854988e-17
vn -0.9599367431853388 -0.28021678943761597 5.533771968854988e-17
vn -1.2246467991473535e-16 -1 -2.2204460492503128e-16
vn -1.2246467991473535e-16 -1 -2.2204460492503128e-16
vn 0.9721307607547468 -0.2344392970352821 -1.711076635401995e-16
vn 0.9593442398440222 -0.28223860380553056 -1.8015534453713468e-16
vn 0.9593442398440222 -0.28223860380553056 -1.8015534453713468e-16
vn 0.9593442398440222 -0.28223860380553056 -1.8015534453713468e-16
vn -0.9577456659089679 -0.28761647976530813 5.3426328795850687e-17
vn -0.9577456659089679 -0.28761647976530813 5.3426328795850687e-17
vn -0.9705506031365447 -0.2408973365383878 6.536821503501164e-17
vn -0.9577456659089679 -0.28761647976530813 5.3426328795850687e-17
vn -1.2246467991473535e-16 -1 -2.2204460492503128e-16
vn -1.2246467991473535e-16 -1 -2.2204460492503128e-16
vn -1.2246467991473532e-16 2.220446049250313e-16 -1
vn -1.2246467991473532e-16 2.220446049250313e-16 -1
vn -1.2246467991473532e-16 2.220446049250313e-16 -1
vn -1.2246467991473532e-16 2.220446049250313e-16 -1
vn -1.2246467991473532e-16 2.220446049250313e-16 -1
vn -1.2246467991473532e-16 2.220446049250313e-16 -1
vn -1.2246467991473532e-16 2.220446049250313e-16 -1
vn -1.2246467991473532e-16 2.220446049250313e-16 -1
vn -1.2246467991473532e-16 2.220446049250313e-16 -1
vn -1.2246467991473532e-16 2.220446049250313e-16 -1
vn -1.2246467991473532e-16 2.220446049250313e-16 -1
vn -1.2246467991473532e-16 2.220446049250313e-16 -1
vn -1.2246467991473532e-16 2.220446049250313e-16 -1
vn -1.2246467991473532e-16 2.220446049250313e-16 -1
vn -1.2246467991473532e-16 2.220446049250313e-16 -1
vn -1.2246467991473532e-16 2.220446049250313e-16 -1
vn -1.2246467991473532e-16 2.220446049250313e-16 -1
usemtl m_6bc5f999-7733-a6c5-8d89-2d8ee6f8ffc1
f 33/145/43 34/146/43 35/147/43
f 36/148/44 37/149/44 38/150/44
f 37/151/45 36/152/45 39/153/45
f 35/154/46 34/155/46 40/156/46
f 41/157/47 40/158/47 34/159/47
f 41/160/48 39/161/48 42/162/48
f 36/163/49 42/164/49 39/165/49
f 40/166/50 41/167/50 42/168/50
f 43/169/51 44/170/51 45/171/51
f 37/172/52 46/173/52 38/174/52
f 46/175/53 44/176/53 38/177/53
f 47/178/54 48/179/54 49/180/54
f 50/181/55 43/182/55 45/183/55
f 51/184/56 50/185/56 48/186/56
f 47/187/57 51/188/57 48/189/57
f 43/190/58 50/191/58 51/192/58
f 45/193/59 44/194/59 46/195/59
f 52/196/60 35/197/60 40/198/60 53/199/60
f 54/200/61 52/201/61 53/202/61 55/203/61
f 56/204/62 33/205/62 35/206/62 52/207/62
f 57/208/63 56/209/63 52/210/63 54/211/63
f 58/212/64 41/213/64 34/214/64 59/215/64
f 34/216/65 56/217/65 59/218/65
f 56/219/66 57/220/66 59/221/66
f 33/222/67 56/223/67 34/224/67
f 39/225/68 60/226/68 37/227/68
f 61/228/69 62/229/69 60/230/69
f 41/231/70 58/232/70 61/233/70 39/234/70
f 60/235/71 39/236/71 61/237/71
f 63/238/72 46/239/72 37/240/72 60/241/72
f 64/242/73 63/243/73 60/244/73 62/245/73
f 65/246/74 50/247/74 45/248/74 66/249/74
f 45/250/75 63/251/75 66/252/75
f 63/253/76 64/254/76 66/255/76
f 46/256/77 63/257/77 45/258/77
f 48/259/78 67/260/78 49/261/78
f 68/262/79 69/263/79 67/264/79
f 50/265/80 65/266/80 68/267/80 48/268/80
f 67/269/81 48/270/81 68/271/81
f 70/272/82 47/273/82 49/274/82 67/275/82
f 71/276/83 70/277/83 67/278/83 69/279/83
f 72/280/84 51/281/84 47/282/84 70/283/84
f 73/284/85 72/285/85 70/286/85 71/287/85
f 74/288/86 43/289/86 51/290/86 72/291/86
f 75/292/87 74/293/87 72/294/87 73/295/87
f 76/296/88 38/297/88 44/298/88 77/299/88
f 44/300/89 74/301/89 77/302/89
f 74/303/90 75/304/90 77/305/90
f 43/306/91 74/307/91 44/308/91
f 36/309/92 78/310/92 42/311/92
f 79/312/93 80/313/93 78/314/93
f 38/315/94 76/316/94 79/317/94 36/318/94
f 78/319/95 36/320/95 79/321/95
f 53/322/96 40/323/96 42/324/96 78/325/96
f 55/326/97 53/327/97 78/328/97 80/329/97
f 57/330/98 54/331/98 59/332/98
f 79/333/99 76/334/99 62/335/99
f 62/336/100 61/337/100 79/338/100
f 54/339/101 55/340/101 59/341/101
f 58/342/102 59/343/102 55/344/102
f 58/345/103 80/346/103 61/347/103
f 55/348/104 80/349/104 58/350/104
f 62/351/105 76/352/105 64/353/105
f 64/354/106 76/355/106 77/356/106
f 71/357/107 69/358/107 68/359/107
f 75/360/108 65/361/108 66/362/108
f 79/363/109 61/364/109 80/365/109
f 73/366/110 68/367/110 65/368/110
f 71/369/111 68/370/111 73/371/111
f 75/372/112 73/373/112 65/374/112
f 66/375/113 64/376/113 77/377/113
f 66/378/114 77/379/114 75/380/114
o object_3
v 0.1900740278263892 0.5135193073892844 0.2750000000000009
v 0.20590464000900635 0.46968252302649144 0.2750000000000009
v 0.2027065289517249 0.595687600388552 0.2750000000000009
v 0.27338449483116517 0.29159403087141633 0.27500000000000085
v 0.17565974121292485 0.5576759064340843 0.2750000000000009
v 0.174243415643772 0.5576759064340843 0.2750000000000009
v 0.2867251587410773 0.2535823309564841 0.27500000000000085
v 0.3461184499164427 0.09861156584265346 0.2750000000000008
v 0.3960544926424826 0.09861156584265346 0.2750000000000008
v 0.07688415174682983 0.2915940308714164 0.27500000000000085
v 0.06349780683716189 0.25358233095648414 0.27500000000000085
v 0.14683115606506716 0.595687600388552 0.27500000000000097
v 0.15948648576935184 0.5138619625711692 0.2750000000000009
v 0.1436787379284705 0.4700479829454673 0.2750000000000009
v -0.045465992639461716 0.09861156584265351 0.27500000000000085
v 0.004104567815860549 0.09861156584265351 0.27500000000000085
v 0.06349780683716189 0.25358233095648414 0.22500000000000087
v 0.004104567815860549 0.09861156584265351 0.22500000000000084
v 0.2867251587410773 0.2535823309564841 0.22500000000000084
v 0.3461184499164427 0.09861156584265346 0.2250000000000008
v 0.3960544926424826 0.09861156584265346 0.2250000000000008
v 0.2027065289517249 0.5956876003885521 0.22500000000000092
v 0.14683115606506716 0.5956876003885521 0.22500000000000095
v -0.045465992639461716 0.09861156584265351 0.22500000000000087
v 0.20590464000900635 0.46968252302649144 0.22500000000000092
v 0.27338449483116517 0.29159403087141633 0.22500000000000087
v 0.1900740278263892 0.5135193073892844 0.22500000000000092
v 0.17565974121292485 0.5576759064340843 0.25000000000000094
v 0.17565974121292485 0.5576759064340843 0.22500000000000092
v 0.07688415174682983 0.2915940308714164 0.22500000000000087
v 0.174243415643772 0.5576759064340843 0.25000000000000094
v 0.15948648576935184 0.5138619625711692 0.22500000000000092
v 0.174243415643772 0.5576759064340843 0.22500000000000092
v 0.1436787379284705 0.4700479829454673 0.22500000000000092
vt 0.5859375 0.8984375
vt 0.5703125 0.8984375
vt 0.5703125 0.8828125
vt 0.6171875 0.8984375
vt 0.6015625 0.8984375
vt 0.6015625 0.8828125
vt 0.6484375 0.8984375
vt 0.6328125 0.8984375
vt 0.6328125 0.8828125
vt 0.6796875 0.8984375
vt 0.6640625 0.8984375
vt 0.6640625 0.8828125
vt 0.7109375 0.8984375
vt 0.6953125 0.8984375
vt 0.6953125 0.8828125
vt 0.7421875 0.8984375
vt 0.7265625 0.8984375
vt 0.7265625 0.8828125
vt 0.7421875 0.8828125
vt 0.7734375 0.8984375
vt 0.7578125 0.8984375
vt 0.7578125 0.8828125
vt 0.8046875 0.8984375
vt 0.7890625 0.8984375
vt 0.7890625 0.8828125
vt 0.8359375 0.8984375
vt 0.8203125 0.8984375
vt 0.8203125 0.8828125
vt 0.8671875 0.8984375
vt 0.8515625 0.8984375
vt 0.8515625 0.8828125
vt 0.8984375 0.8984375
vt 0.8828125 0.8984375
vt 0.8828125 0.8828125
vt 0.9296875 0.8984375
vt 0.9140625 0.8984375
vt 0.9140625 0.8828125
vt 0.9609375 0.8984375
vt 0.9453125 0.8984375
vt 0.9453125 0.8828125
vt 0.9921875 0.8984375
vt 0.9765625 0.8984375
vt 0.9765625 0.8828125
vt 0.0234375 0.8671875
vt 0.0078125 0.8671875
vt 0.0078125 0.8515625
vt 0.0546875 0.8671875
vt 0.0390625 0.8671875
vt 0.0390625 0.8515625
vt 0.0546875 0.8515625
vt 0.0859375 0.8671875
vt 0.0703125 0.8671875
vt 0.0703125 0.8515625
vt 0.0859375 0.8515625
vt 0.1171875 0.8671875
vt 0.1015625 0.8671875
vt 0.1015625 0.8515625
vt 0.1171875 0.8515625
vt 0.1484375 0.8671875
vt 0.1328125 0.8671875
vt 0.1328125 0.8515625
vt 0.1484375 0.8515625
vt 0.1796875 0.8671875
vt 0.1640625 0.8671875
vt 0.1640625 0.8515625
vt 0.1796875 0.8515625
vt 0.2109375 0.8671875
vt 0.1953125 0.8671875
vt 0.1953125 0.8515625
vt 0.2109375 0.8515625
vt 0.2421875 0.8671875
vt 0.2265625 0.8671875
vt 0.2265625 0.8515625
vt 0.2421875 0.8515625
vt 0.2734375 0.8671875
vt 0.2578125 0.8671875
vt 0.2578125 0.8515625
vt 0.2734375 0.8515625
vt 0.3046875 0.8671875
vt 0.2890625 0.8671875
vt 0.2890625 0.8515625
vt 0.3046875 0.8515625
vt 0.3359375 0.8671875
vt 0.3203125 0.8671875
vt 0.3203125 0.8515625
vt 0.3359375 0.8515625
vt 0.3671875 0.8671875
vt 0.3515625 0.8671875
vt 0.3515625 0.8515625
vt 0.3984375 0.8671875
vt 0.3828125 0.8671875
vt 0.3828125 0.8515625
vt 0.4296875 0.8671875
vt 0.4140625 0.8671875
vt 0.4140625 0.8515625
vt 0.4609375 0.8671875
vt 0.4453125 0.8671875
vt 0.4453125 0.8515625
vt 0.4609375 0.8515625
vt 0.4921875 0.8671875
vt 0.4765625 0.8671875
vt 0.4765625 0.8515625
vt 0.5234375 0.8671875
vt 0.5078125 0.8671875
vt 0.5078125 0.8515625
vt 0.5546875 0.8671875
vt 0.5390625 0.8671875
vt 0.5390625 0.8515625
vt 0.5859375 0.8671875
vt 0.5703125 0.8671875
vt 0.5703125 0.8515625
vt 0.5859375 0.8515625
vt 0.6171875 0.8671875
vt 0.6015625 0.8671875
vt 0.6015625 0.8515625
vt 0.6171875 0.8515625
vt 0.6484375 0.8671875
vt 0.6328125 0.8671875
vt 0.6328125 0.8515625
vt 0.6484375 0.8515625
vt 0.6796875 0.8671875
vt 0.6640625 0.8671875
vt 0.6640625 0.8515625
vt 0.6796875 0.8515625
vt 0.7109375 0.8671875
vt 0.6953125 0.8671875
vt 0.6953125 0.8515625
vt 0.7421875 0.8671875
vt 0.7265625 0.8671875
vt 0.7265625 0.8515625
vt 0.7734375 0.8671875
vt 0.7578125 0.8671875
vt 0.7578125 0.8515625
vt 0.8046875 0.8671875
vt 0.7890625 0.8671875
vt 0.7890625 0.8515625
vt 0.8359375 0.8671875
vt 0.8203125 0.8671875
vt 0.8203125 0.8515625
vt 0.8671875 0.8671875
vt 0.8515625 0.8671875
vt 0.8515625 0.8515625
vt 0.8671875 0.8515625
vt 0.8984375 0.8671875
vt 0.8828125 0.8671875
vt 0.8828125 0.8515625
vt 0.9296875 0.8671875
vt 0.9140625 0.8671875
vt 0.9140625 0.8515625
vt 0.9609375 0.8671875
vt 0.9453125 0.8671875
vt 0.9453125 0.8515625
vt 0.9921875 0.8671875
vt 0.9765625 0.8671875
vt 0.9765625 0.8515625
vt 0.0234375 0.8359375
vt 0.0078125 0.8359375
vt 0.0078125 0.8203125
vt 0.0546875 0.8359375
vt 0.0390625 0.8359375
vt 0.0390625 0.8203125
vt 0.0859375 0.8359375
vt 0.0703125 0.8359375
vt 0.0703125 0.8203125
vt 0.1171875 0.8359375
vt 0.1015625 0.8359375
vt 0.1015625 0.8203125
vt 0.1484375 0.8359375
vt 0.1328125 0.8359375
vt 0.1328125 0.8203125
vn 1.2246467991473532e-16 -2.220446049250313e-16 1
vn 1.2246467991473532e-16 -2.220446049250313e-16 1
vn 1.2246467991473532e-16 -2.220446049250313e-16 1
vn 1.2246467991473532e-16 -2.220446049250313e-16 1
vn 1.2246467991473532e-16 -2.220446049250313e-16 1
vn 1.2246467991473532e-16 -2.220446049250313e-16 1
vn 1.2246467991473532e-16 -2.220446049250313e-16 1
vn 1.2246467991473532e-16 -2.220446049250313e-16 1
vn 1.2246467991473532e-16 -2.220446049250313e-16 1
vn 1.2246467991473532e-16 -2.220446049250313e-16 1
vn 1.2246467991473532e-16 -2.220446049250313e-16 1
vn 1.2246467991473532e-16 -2.220446049250313e-16 1
vn 1.2246467991473532e-16 -2.220446049250313e-16 1
vn 1.2246467991473532e-16 -2.220446049250313e-16 1
vn 1.2246467991473532e-16 -2.220446049250313e-16 1
vn 0.9337707260946462 -0.35787180817812064 -1.938174373456482e-16
vn -1.2246467991473535e-16 -1 -2.2204460492503128e-16
vn -0.9337706210808172 -0.3578720821834879 3.489035512231497e-17
vn -1.2246467991473535e-16 -1 -2.2204460492503128e-16
vn 0.9319789443937618 0.36251240972784604 -3.3640578314014293e-17
vn 1.2246467991473535e-16 1 2.2204460492503128e-16
vn -0.9326434842877328 0.3607992949212037 1.943294226758692e-16
vn -1.2246467991473535e-16 -1 -2.2204460492503128e-16
vn -0.935121011854423 -0.3543285102674641 3.584256132228136e-17
vn -0.9405493603093643 -0.3396570341118312 3.9765064404925936e-17
vn -0.9506320996633674 -0.31032017512501153 4.7513935116047357e-17
vn -0.9506320996633674 -0.31032017512501153 4.7513935116047357e-17
vn -0.9506320996633674 -0.31032017512501153 4.7513935116047357e-17
vn 1.2246467991473535e-16 1 2.2204460492503128e-16
vn 0.9476905142854153 -0.3191906783310648 -1.869331835559683e-16
vn 0.9476905142854153 -0.3191906783310648 -1.869331835559683e-16
vn 0.9476905142854153 -0.3191906783310648 -1.869331835559683e-16
vn 0.9365457891604154 -0.35054526784125145 -1.925304658011734e-16
vn 0.9406496538570543 -0.3393791812981523 -1.9055367500263952e-16
vn -1.2246467991473535e-16 -1 -2.2204460492503128e-16
vn -1.2246467991473535e-16 -1 -2.2204460492503128e-16
vn -1.2246467991473532e-16 2.220446049250313e-16 -1
vn -1.2246467991473532e-16 2.220446049250313e-16 -1
vn -1.2246467991473532e-16 2.220446049250313e-16 -1
vn -1.2246467991473532e-16 2.220446049250313e-16 -1
vn -1.2246467991473532e-16 2.220446049250313e-16 -1
vn -1.2246467991473532e-16 2.220446049250313e-16 -1
vn -1.2246467991473532e-16 2.220446049250313e-16 -1
vn -1.2246467991473532e-16 2.220446049250313e-16 -1
vn -1.2246467991473532e-16 2.220446049250313e-16 -1
vn -1.2246467991473532e-16 2.220446049250313e-16 -1
vn -1.2246467991473532e-16 2.220446049250313e-16 -1
vn -1.2246467991473532e-16 2.220446049250313e-16 -1
vn -1.2246467991473532e-16 2.220446049250313e-16 -1
vn -1.2246467991473532e-16 2.220446049250313e-16 -1
vn -1.2246467991473532e-16 2.220446049250313e-16 -1
usemtl m_6bc5f999-7733-a6c5-8d89-2d8ee6f8ffc1
f 81/381/115 82/382/115 83/383/115
f 84/384/116 83/385/116 82/386/116
f 83/387/117 85/388/117 81/389/117
f 85/390/118 83/391/118 86/392/118
f 87/393/119 88/394/119 89/395/119
f 84/396/120 90/397/120 91/398/120 87/399/120
f 89/400/121 84/401/121 87/402/121
f 84/403/122 89/404/122 83/405/122
f 92/406/123 93/407/123 86/408/123
f 93/409/124 92/410/124 94/411/124
f 90/412/125 94/413/125 92/414/125
f 92/415/126 86/416/126 83/417/126
f 95/418/127 91/419/127 90/420/127
f 91/421/128 95/422/128 96/423/128
f 95/424/129 90/425/129 92/426/129
f 97/427/130 91/428/130 96/429/130 98/430/130
f 99/431/131 87/432/131 91/433/131 97/434/131
f 100/435/132 88/436/132 87/437/132 99/438/132
f 101/439/133 89/440/133 88/441/133 100/442/133
f 102/443/134 83/444/134 89/445/134 101/446/134
f 103/447/135 92/448/135 83/449/135 102/450/135
f 104/451/136 95/452/136 92/453/136 103/454/136
f 98/455/137 96/456/137 95/457/137 104/458/137
f 82/459/138 105/460/138 106/461/138 84/462/138
f 105/463/139 82/464/139 81/465/139 107/466/139
f 108/467/140 81/468/140 85/469/140
f 109/470/141 107/471/141 108/472/141
f 81/473/142 108/474/142 107/475/142
f 110/476/143 90/477/143 84/478/143 106/479/143
f 111/480/144 86/481/144 93/482/144
f 111/483/145 112/484/145 113/485/145
f 112/486/146 111/487/146 93/488/146
f 90/489/147 110/490/147 114/491/147 94/492/147
f 94/493/148 114/494/148 112/495/148 93/496/148
f 108/497/149 85/498/149 86/499/149 111/500/149
f 109/501/150 108/502/150 111/503/150 113/504/150
f 107/505/151 102/506/151 105/507/151
f 106/508/152 105/509/152 102/510/152
f 102/511/153 107/512/153 109/513/153
f 109/514/154 113/515/154 102/516/154
f 99/517/155 101/518/155 100/519/155
f 106/520/156 99/521/156 97/522/156 110/523/156
f 101/524/157 99/525/157 106/526/157
f 106/527/158 102/528/158 101/529/158
f 103/530/159 113/531/159 112/532/159
f 112/533/160 114/534/160 103/535/160
f 110/536/161 103/537/161 114/538/161
f 103/539/162 102/540/162 113/541/162
f 104/542/163 110/543/163 97/544/163
f 97/545/164 98/546/164 104/547/164
f 104/548/165 103/549/165 110/550/165
o object_2
v -0.1624250399569665 0.3120618665361655 0.2750000000000009
v -0.1624250399569665 0.09861156584265351 0.27500000000000085
v -0.11564140195647832 0.09861156584265351 0.27500000000000085
v -0.1624250399569665 0.35007356198074946 0.2750000000000009
v -0.25718016500274304 0.35007356198074946 0.2750000000000009
v -0.3014053332308925 0.31768142448308595 0.2750000000000009
v -0.25270285482207894 0.3120618665361656 0.2750000000000009
v -0.3737280356387295 0.20814649702551494 0.2750000000000009
v -0.3093263136843835 0.3570465618515266 0.27500000000000097
v -0.11564140195647821 0.5956876003885521 0.27500000000000097
v -0.25868787641326546 0.5956876003885521 0.27500000000000097
v -0.254347561548153 0.5576759064340843 0.27500000000000097
v -0.1624250399569665 0.5576759064340843 0.27500000000000097
v -0.3485544192294275 0.5312002146387351 0.27500000000000097
v -0.3084182726840175 0.5510569775247826 0.27500000000000097
v -0.33034243459502804 0.5864016974115623 0.275000000000001
v -0.35361428136626855 0.3330665563935293 0.27500000000000097
v -0.348714350412289 0.3779655599737419 0.27500000000000097
v -0.39401311750213247 0.36295735181810984 0.27500000000000097
v -0.3734710680941736 0.4113343024397148 0.27500000000000097
v -0.3897642600039635 0.09861156584265354 0.2750000000000009
v -0.446050738046566 0.09861156584265357 0.2750000000000009
v -0.419883488367001 0.4047839129114402 0.27500000000000097
v -0.38393912191192253 0.5585439646387351 0.275000000000001
v -0.3734310614566005 0.4990764701509727 0.27500000000000097
v -0.4173649775485195 0.5143302524233115 0.27500000000000097
v -0.42850689763824096 0.4559763515138877 0.27500000000000097
v -0.3817233073214686 0.4556565368318809 0.27500000000000097
v -0.11564140195647821 0.5956876003885521 0.22500000000000098
v -0.25868787641326546 0.5956876003885521 0.22500000000000098
v -0.33034243459502804 0.5864016974115623 0.22500000000000098
v -0.38393912191192253 0.5585439646387351 0.22500000000000098
v -0.4173649775485195 0.5143302524233117 0.22500000000000098
v -0.42850689763824096 0.45597635151388777 0.250000000000001
v -0.42850689763824096 0.45597635151388777 0.22500000000000098
v -0.11564140195647832 0.09861156584265351 0.2500000000000009
v -0.11564140195647832 0.09861156584265354 0.22500000000000087
v -0.1624250399569665 0.09861156584265354 0.2500000000000009
v -0.1624250399569665 0.09861156584265354 0.22500000000000087
v -0.1624250399569665 0.3120618665361656 0.22500000000000092
v -0.25270285482207894 0.3120618665361656 0.22500000000000092
v -0.3897642600039635 0.09861156584265357 0.2500000000000009
v -0.3897642600039635 0.09861156584265357 0.2250000000000009
v -0.446050738046566 0.09861156584265357 0.2500000000000009
v -0.446050738046566 0.09861156584265357 0.2250000000000009
v -0.3014053332308925 0.31768142448308595 0.25000000000000094
v -0.3014053332308925 0.31768142448308595 0.22500000000000092
v -0.3737280356387295 0.20814649702551496 0.22500000000000092
v -0.419883488367001 0.4047839129114403 0.22500000000000098
v -0.39401311750213247 0.36295735181810984 0.22500000000000095
v -0.35361428136626855 0.3330665563935293 0.22500000000000095
v -0.1624250399569665 0.35007356198074946 0.25000000000000094
v -0.25718016500274304 0.35007356198074946 0.22500000000000092
v -0.3093263136843835 0.3570465618515266 0.22500000000000095
v -0.1624250399569665 0.35007356198074946 0.22500000000000092
v -0.348714350412289 0.3779655599737419 0.22500000000000095
v -0.3734710680941736 0.4113343024397148 0.22500000000000098
v -0.3817233073214686 0.4556565368318809 0.250000000000001
v -0.3817233073214686 0.4556565368318809 0.22500000000000098
v -0.1624250399569665 0.5576759064340843 0.250000000000001
v -0.1624250399569665 0.5576759064340843 0.22500000000000098
v -0.3734310614566005 0.49907647015097273 0.22500000000000098
v -0.3485544192294275 0.5312002146387351 0.22500000000000098
v -0.3084182726840175 0.5510569775247826 0.22500000000000098
v -0.254347561548153 0.5576759064340843 0.22500000000000098
vt 0.1796875 0.8359375
vt 0.1640625 0.8359375
vt 0.1640625 0.8203125
vt 0.2109375 0.8359375
vt 0.1953125 0.8359375
vt 0.1953125 0.8203125
vt 0.2421875 0.8359375
vt 0.2265625 0.8359375
vt 0.2265625 0.8203125
vt 0.2734375 0.8359375
vt 0.2578125 0.8359375
vt 0.2578125 0.8203125
vt 0.3046875 0.8359375
vt 0.2890625 0.8359375
vt 0.2890625 0.8203125
vt 0.3046875 0.8203125
vt 0.3359375 0.8359375
vt 0.3203125 0.8359375
vt 0.3203125 0.8203125
vt 0.3671875 0.8359375
vt 0.3515625 0.8359375
vt 0.3515625 0.8203125
vt 0.3984375 0.8359375
vt 0.3828125 0.8359375
vt 0.3828125 0.8203125
vt 0.3984375 0.8203125
vt 0.4296875 0.8359375
vt 0.4140625 0.8359375
vt 0.4140625 0.8203125
vt 0.4609375 0.8359375
vt 0.4453125 0.8359375
vt 0.4453125 0.8203125
vt 0.4921875 0.8359375
vt 0.4765625 0.8359375
vt 0.4765625 0.8203125
vt 0.5234375 0.8359375
vt 0.5078125 0.8359375
vt 0.5078125 0.8203125
vt 0.5546875 0.8359375
vt 0.5390625 0.8359375
vt 0.5390625 0.8203125
vt 0.5859375 0.8359375
vt 0.5703125 0.8359375
vt 0.5703125 0.8203125
vt 0.6171875 0.8359375
vt 0.6015625 0.8359375
vt 0.6015625 0.8203125
vt 0.6484375 0.8359375
vt 0.6328125 0.8359375
vt 0.6328125 0.8203125
vt 0.6796875 0.8359375
vt 0.6640625 0.8359375
vt 0.6640625 0.8203125
vt 0.7109375 0.8359375
vt 0.6953125 0.8359375
vt 0.6953125 0.8203125
vt 0.7421875 0.8359375
vt 0.7265625 0.8359375
vt 0.7265625 0.8203125
vt 0.7734375 0.8359375
vt 0.7578125 0.8359375
vt 0.7578125 0.8203125
vt 0.8046875 0.8359375
vt 0.7890625 0.8359375
vt 0.7890625 0.8203125
vt 0.8359375 0.8359375
vt 0.8203125 0.8359375
vt 0.8203125 0.8203125
vt 0.8671875 0.8359375
vt 0.8515625 0.8359375
vt 0.8515625 0.8203125
vt 0.8984375 0.8359375
vt 0.8828125 0.8359375
vt 0.8828125 0.8203125
vt 0.9296875 0.8359375
vt 0.9140625 0.8359375
vt 0.9140625 0.8203125
vt 0.9609375 0.8359375
vt 0.9453125 0.8359375
vt 0.9453125 0.8203125
vt 0.9921875 0.8359375
vt 0.9765625 0.8359375
vt 0.9765625 0.8203125
vt 0.9921875 0.8203125
vt 0.0234375 0.8046875
vt 0.0078125 0.8046875
vt 0.0078125 0.7890625
vt 0.0234375 0.7890625
vt 0.0546875 0.8046875
vt 0.0390625 0.8046875
vt 0.0390625 0.7890625
vt 0.0546875 0.7890625
vt 0.0859375 0.8046875
vt 0.0703125 0.8046875
vt 0.0703125 0.7890625
vt 0.0859375 0.7890625
vt 0.1171875 0.8046875
vt 0.1015625 0.8046875
vt 0.1015625 0.7890625
vt 0.1484375 0.8046875
vt 0.1328125 0.8046875
vt 0.1328125 0.7890625
vt 0.1796875 0.8046875
vt 0.1640625 0.8046875
vt 0.1640625 0.7890625
vt 0.2109375 0.8046875
vt 0.1953125 0.8046875
vt 0.1953125 0.7890625
vt 0.2421875 0.8046875
vt 0.2265625 0.8046875
vt 0.2265625 0.7890625
vt 0.2734375 0.8046875
vt 0.2578125 0.8046875
vt 0.2578125 0.7890625
vt 0.3046875 0.8046875
vt 0.2890625 0.8046875
vt 0.2890625 0.7890625
vt 0.3046875 0.7890625
vt 0.3359375 0.8046875
vt 0.3203125 0.8046875
vt 0.3203125 0.7890625
vt 0.3359375 0.7890625
vt 0.3671875 0.8046875
vt 0.3515625 0.8046875
vt 0.3515625 0.7890625
vt 0.3984375 0.8046875
vt 0.3828125 0.8046875
vt 0.3828125 0.7890625
vt 0.4296875 0.8046875
vt 0.4140625 0.8046875
vt 0.4140625 0.7890625
vt 0.4609375 0.8046875
vt 0.4453125 0.8046875
vt 0.4453125 0.7890625
vt 0.4609375 0.7890625
vt 0.4921875 0.8046875
vt 0.4765625 0.8046875
vt 0.4765625 0.7890625
vt 0.5234375 0.8046875
vt 0.5078125 0.8046875
vt 0.5078125 0.7890625
vt 0.5546875 0.8046875
vt 0.5390625 0.8046875
vt 0.5390625 0.7890625
vt 0.5859375 0.8046875
vt 0.5703125 0.8046875
vt 0.5703125 0.7890625
vt 0.5859375 0.7890625
vt 0.6171875 0.8046875
vt 0.6015625 0.8046875
vt 0.6015625 0.7890625
vt 0.6171875 0.7890625
vt 0.6484375 0.8046875
vt 0.6328125 0.8046875
vt 0.6328125 0.7890625
vt 0.6796875 0.8046875
vt 0.6640625 0.8046875
vt 0.6640625 0.7890625
vt 0.7109375 0.8046875
vt 0.6953125 0.8046875
vt 0.6953125 0.7890625
vt 0.7421875 0.8046875
vt 0.7265625 0.8046875
vt 0.7265625 0.7890625
vt 0.7734375 0.8046875
vt 0.7578125 0.8046875
vt 0.7578125 0.7890625
vt 0.8046875 0.8046875
vt 0.7890625 0.8046875
vt 0.7890625 0.7890625
vt 0.8359375 0.8046875
vt 0.8203125 0.8046875
vt 0.8203125 0.7890625
vt 0.8671875 0.8046875
vt 0.8515625 0.8046875
vt 0.8515625 0.7890625
vt 0.8671875 0.7890625
vt 0.8984375 0.8046875
vt 0.8828125 0.8046875
vt 0.8828125 0.7890625
vt 0.9296875 0.8046875
vt 0.9140625 0.8046875
vt 0.9140625 0.7890625
vt 0.9609375 0.8046875
vt 0.9453125 0.8046875
vt 0.9453125 0.7890625
vt 0.9921875 0.8046875
vt 0.9765625 0.8046875
vt 0.9765625 0.7890625
vt 0.0234375 0.7734375
vt 0.0078125 0.7734375
vt 0.0078125 0.7578125
vt 0.0234375 0.7578125
vt 0.0546875 0.7734375
vt 0.0390625 0.7734375
vt 0.0390625 0.7578125
vt 0.0859375 0.7734375
vt 0.0703125 0.7734375
vt 0.0703125 0.7578125
vt 0.1171875 0.7734375
vt 0.1015625 0.7734375
vt 0.1015625 0.7578125
vt 0.1171875 0.7578125
vt 0.1484375 0.7734375
vt 0.1328125 0.7734375
vt 0.1328125 0.7578125
vt 0.1796875 0.7734375
vt 0.1640625 0.7734375
vt 0.1640625 0.7578125
vt 0.2109375 0.7734375
vt 0.1953125 0.7734375
vt 0.1953125 0.7578125
vt 0.2109375 0.7578125
vt 0.2421875 0.7734375
vt 0.2265625 0.7734375
vt 0.2265625 0.7578125
vt 0.2421875 0.7578125
vt 0.2734375 0.7734375
vt 0.2578125 0.7734375
vt 0.2578125 0.7578125
vt 0.3046875 0.7734375
vt 0.2890625 0.7734375
vt 0.2890625 0.7578125
vt 0.3359375 0.7734375
vt 0.3203125 0.7734375
vt 0.3203125 0.7578125
vt 0.3671875 0.7734375
vt 0.3515625 0.7734375
vt 0.3515625 0.7578125
vt 0.3671875 0.7578125
vt 0.3984375 0.7734375
vt 0.3828125 0.7734375
vt 0.3828125 0.7578125
vt 0.3984375 0.7578125
vt 0.4296875 0.7734375
vt 0.4140625 0.7734375
vt 0.4140625 0.7578125
vt 0.4609375 0.7734375
vt 0.4453125 0.7734375
vt 0.4453125 0.7578125
vt 0.4609375 0.7578125
vt 0.4921875 0.7734375
vt 0.4765625 0.7734375
vt 0.4765625 0.7578125
vt 0.5234375 0.7734375
vt 0.5078125 0.7734375
vt 0.5078125 0.7578125
vt 0.5546875 0.7734375
vt 0.5390625 0.7734375
vt 0.5390625 0.7578125
vt 0.5546875 0.7578125
vt 0.5859375 0.7734375
vt 0.5703125 0.7734375
vt 0.5703125 0.7578125
vt 0.5859375 0.7578125
vt 0.6171875 0.7734375
vt 0.6015625 0.7734375
vt 0.6015625 0.7578125
vt 0.6484375 0.7734375
vt 0.6328125 0.7734375
vt 0.6328125 0.7578125
vt 0.6796875 0.7734375
vt 0.6640625 0.7734375
vt 0.6640625 0.7578125
vt 0.7109375 0.7734375
vt 0.6953125 0.7734375
vt 0.6953125 0.7578125
vt 0.7421875 0.7734375
vt 0.7265625 0.7734375
vt 0.7265625 0.7578125
vt 0.7734375 0.7734375
vt 0.7578125 0.7734375
vt 0.7578125 0.7578125
vt 0.8046875 0.7734375
vt 0.7890625 0.7734375
vt 0.7890625 0.7578125
vt 0.8359375 0.7734375
vt 0.8203125 0.7734375
vt 0.8203125 0.7578125
vt 0.8359375 0.7578125
vt 0.8671875 0.7734375
vt 0.8515625 0.7734375
vt 0.8515625 0.7578125
vt 0.8984375 0.7734375
vt 0.8828125 0.7734375
vt 0.8828125 0.7578125
vt 0.9296875 0.7734375
vt 0.9140625 0.7734375
vt 0.9140625 0.7578125
vt 0.9296875 0.7578125
vt 0.9609375 0.7734375
vt 0.9453125 0.7734375
vt 0.9453125 0.7578125
vt 0.9921875 0.7734375
vt 0.9765625 0.7734375
vt 0.9765625 0.7578125
vt 0.0234375 0.7421875
vt 0.0078125 0.7421875
vt 0.0078125 0.7265625
vt 0.0546875 0.7421875
vt 0.0390625 0.7421875
vt 0.0390625 0.7265625
vt 0.0859375 0.7421875
vt 0.0703125 0.7421875
vt 0.0703125 0.7265625
vt 0.1171875 0.7421875
vt 0.1015625 0.7421875
vt 0.1015625 0.7265625
vt 0.1484375 0.7421875
vt 0.1328125 0.7421875
vt 0.1328125 0.7265625
vt 0.1796875 0.7421875
vt 0.1640625 0.7421875
vt 0.1640625 0.7265625
vt 0.2109375 0.7421875
vt 0.1953125 0.7421875
vt 0.1953125 0.7265625
vt 0.2421875 0.7421875
vt 0.2265625 0.7421875
vt 0.2265625 0.7265625
vt 0.2734375 0.7421875
vt 0.2578125 0.7421875
vt 0.2578125 0.7265625
vt 0.3046875 0.7421875
vt 0.2890625 0.7421875
vt 0.2890625 0.7265625
vt 0.3359375 0.7421875
vt 0.3203125 0.7421875
vt 0.3203125 0.7265625
vt 0.3671875 0.7421875
vt 0.3515625 0.7421875
vt 0.3515625 0.7265625
vt 0.3984375 0.7421875
vt 0.3828125 0.7421875
vt 0.3828125 0.7265625
vt 0.4296875 0.7421875
vt 0.4140625 0.7421875
vt 0.4140625 0.7265625
vt 0.4609375 0.7421875
vt 0.4453125 0.7421875
vt 0.4453125 0.7265625
vt 0.4921875 0.7421875
vt 0.4765625 0.7421875
vt 0.4765625 0.7265625
vn 1.2246467991473532e-16 -2.220446049250313e-16 1
vn 1.2246467991473532e-16 -2.220446049250313e-16 1
vn 1.2246467991473532e-16 -2.220446049250313e-16 1
vn 1.2246467991473532e-16 -2.220446049250313e-16 1
vn 1.2246467991473532e-16 -2.220446049250313e-16 1
vn 1.2246467991473532e-16 -2.220446049250313e-16 1
vn 1.2246467991473532e-16 -2.220446049250313e-16 1
vn 1.2246467991473532e-16 -2.220446049250313e-16 1
vn 1.2246467991473532e-16 -2.220446049250313e-16 1
vn 1.2246467991473532e-16 -2.220446049250313e-16 1
vn 1.2246467991473532e-16 -2.220446049250313e-16 1
vn 1.2246467991473532e-16 -2.220446049250313e-16 1
vn 1.2246467991473532e-16 -2.220446049250313e-16 1
vn 1.2246467991473532e-16 -2.220446049250313e-16 1
vn 1.2246467991473532e-16 -2.220446049250313e-16 1
vn 1.2246467991473532e-16 -2.220446049250313e-16 1
vn 1.2246467991473532e-16 -2.220446049250313e-16 1
vn 1.2246467991473532e-16 -2.220446049250313e-16 1
vn 1.2246467991473532e-16 -2.220446049250313e-16 1
vn 1.2246467991473532e-16 -2.220446049250313e-16 1
vn 1.2246467991473532e-16 -2.220446049250313e-16 1
vn 1.2246467991473532e-16 -2.220446049250313e-16 1
vn 1.2246467991473532e-16 -2.220446049250313e-16 1
vn 1.2246467991473532e-16 -2.220446049250313e-16 1
vn 1.2246467991473532e-16 -2.220446049250313e-16 1
vn 1.2246467991473532e-16 -2.220446049250313e-16 1
vn 1.2246467991473535e-16 1 2.2204460492503128e-16
vn -0.12851794664974006 0.9917071832899744 2.359421389146974e-16
vn -0.46118925399701305 0.887301793077011 2.534999704639165e-16
vn -0.7976942589268042 0.6030620774640177 2.3159605282505953e-16
vn -0.9822552680124316 0.18754889618930412 1.619357975501847e-16
vn -0.9822552680124316 0.18754889618930412 1.619357975501847e-16
vn -0.9822552680124316 0.18754889618930412 1.619357975501847e-16
vn 1 -1.2246467991473532e-16 -1.2246467991473535e-16
vn 1 -1.2246467991473532e-16 -1.2246467991473535e-16
vn 1 -1.2246467991473532e-16 -1.2246467991473535e-16
vn -1.2246467991473535e-16 -1 -2.2204460492503128e-16
vn -1.2246467991473535e-16 -1 -2.2204460492503128e-16
vn -1 1.2246467991473532e-16 1.2246467991473535e-16
vn -1 1.2246467991473532e-16 1.2246467991473535e-16
vn -1 1.2246467991473532e-16 1.2246467991473535e-16
vn -1.2246467991473535e-16 -1 -2.2204460492503128e-16
vn 0.8414592571221406 -0.5403205702205456 -2.230243061322426e-16
vn 0.8414592571221406 -0.5403205702205456 -2.230243061322426e-16
vn 0.8414592571221406 -0.5403205702205456 -2.230243061322426e-16
vn -1.2246467991473535e-16 -1 -2.2204460492503128e-16
vn -1.2246467991473535e-16 -1 -2.2204460492503128e-16
vn -0.8345055394645187 0.5509995504562891 2.2454393127253236e-16
vn -0.8345055394645187 0.5509995504562891 2.2454393127253236e-16
vn -0.8345055394645187 0.5509995504562891 2.2454393127253236e-16
vn -0.8345055480811856 0.5509995374060856 2.2454392943004245e-16
vn -0.8345055480811856 0.5509995374060856 2.2454392943004245e-16
vn -0.8345055480811856 0.5509995374060856 2.2454392943004245e-16
vn -0.9861071326259767 -0.16611057457059927 8.387933745427904e-17
vn -0.8504676682991243 -0.5260273236038701 -1.2649278473309355e-17
vn -0.9861071326259767 -0.16611057457059927 8.387933745427904e-17
vn -0.9861071326259767 -0.16611057457059927 8.387933745427904e-17
vn -0.28266612388426215 -0.9592183601288328 -1.7837264542741797e-16
vn -0.28266612388426215 -0.9592183601288328 -1.7837264542741797e-16
vn -0.5947871586509069 -0.8038832228029024 -1.0565751361155316e-16
vn -0.28266612388426215 -0.9592183601288328 -1.7837264542741797e-16
vn 1.2246467991473535e-16 1 2.2204460492503128e-16
vn 0.1325405864936499 0.9911775789090063 2.038540934187432e-16
vn 1.2246467991473535e-16 1 2.2204460492503128e-16
vn 1.2246467991473535e-16 1 2.2204460492503128e-16
vn 0.46905211256874557 0.8831704907291666 1.38660925866342e-16
vn 0.8031065092830603 0.5958354930240207 3.394987505203954e-17
vn 0.9831051429364439 0.1830417382235927 -7.975222620359307e-17
vn 0.9831051429364439 0.1830417382235927 -7.975222620359307e-17
vn 0.9831051429364439 0.1830417382235927 -7.975222620359307e-17
vn -1 1.2246467991473532e-16 1.2246467991473535e-16
vn -1 1.2246467991473532e-16 1.2246467991473535e-16
vn 0.9822478780178099 -0.18758759588392246 -1.6194348559526104e-16
vn 0.7906445152858043 -0.6122754694159123 -2.3277849220256136e-16
vn 0.9822478780178099 -0.18758759588392246 -1.6194348559526104e-16
vn 0.9822478780178099 -0.18758759588392246 -1.6194348559526104e-16
vn 0.44343448262700597 -0.8963067887823452 -2.5332514878487185e-16
vn 0.12150547947052305 -0.9925907608166815 -2.3527955298902033e-16
vn -1.2246467991473535e-16 -1 -2.2204460492503128e-16
vn -1.2246467991473535e-16 -1 -2.2204460492503128e-16
vn -1.2246467991473535e-16 -1 -2.2204460492503128e-16
vn -1.2246467991473532e-16 2.220446049250313e-16 -1
vn -1.2246467991473532e-16 2.220446049250313e-16 -1
vn -1.2246467991473532e-16 2.220446049250313e-16 -1
vn -1.2246467991473532e-16 2.220446049250313e-16 -1
vn -1.2246467991473532e-16 2.220446049250313e-16 -1
vn -1.2246467991473532e-16 2.220446049250313e-16 -1
vn -1.2246467991473532e-16 2.220446049250313e-16 -1
vn -1.2246467991473532e-16 2.220446049250313e-16 -1
vn -1.2246467991473532e-16 2.220446049250313e-16 -1
vn -1.2246467991473532e-16 2.220446049250313e-16 -1
vn -1.2246467991473532e-16 2.220446049250313e-16 -1
vn -1.2246467991473532e-16 2.220446049250313e-16 -1
vn -1.2246467991473532e-16 2.220446049250313e-16 -1
vn -1.2246467991473532e-16 2.220446049250313e-16 -1
vn -1.2246467991473532e-16 2.220446049250313e-16 -1
vn -1.2246467991473532e-16 2.220446049250313e-16 -1
vn -1.2246467991473532e-16 2.220446049250313e-16 -1
vn -1.2246467991473532e-16 2.220446049250313e-16 -1
vn -1.2246467991473532e-16 2.220446049250313e-16 -1
vn -1.2246467991473532e-16 2.220446049250313e-16 -1
vn -1.2246467991473532e-16 2.220446049250313e-16 -1
vn -1.2246467991473532e-16 2.220446049250313e-16 -1
vn -1.2246467991473532e-16 2.220446049250313e-16 -1
vn -1.2246467991473532e-16 2.220446049250313e-16 -1
vn -1.2246467991473532e-16 2.220446049250313e-16 -1
vn -1.2246467991473532e-16 2.220446049250313e-16 -1
usemtl m_6bc5f999-7733-a6c5-8d89-2d8ee6f8ffc1
f 115/551/166 116/552/166 117/553/166
f 118/554/167 115/555/167 117/556/167
f 119/557/168 120/558/168 121/559/168
f 121/560/169 120/561/169 122/562/169
f 119/563/170 121/564/170 115/565/170 118/566/170
f 119/567/171 123/568/171 120/569/171
f 124/570/172 118/571/172 117/572/172
f 125/573/173 126/574/173 127/575/173 124/576/173
f 127/577/174 118/578/174 124/579/174
f 128/580/175 129/581/175 130/582/175
f 126/583/176 125/584/176 129/585/176
f 129/586/177 125/587/177 130/588/177
f 123/589/178 131/590/178 120/591/178
f 131/592/179 132/593/179 133/594/179
f 123/595/180 132/596/180 131/597/180
f 134/598/181 133/599/181 132/600/181
f 135/601/182 122/602/182 136/603/182
f 121/604/183 122/605/183 135/606/183
f 137/607/184 133/608/184 134/609/184
f 138/610/185 139/611/185 128/612/185
f 140/613/186 141/614/186 142/615/186
f 137/616/187 134/617/187 142/618/187
f 140/619/188 139/620/188 138/621/188
f 142/622/189 139/623/189 140/624/189
f 142/625/190 141/626/190 137/627/190
f 130/628/191 138/629/191 128/630/191
f 125/631/192 124/632/192 143/633/192 144/634/192
f 130/635/193 125/636/193 144/637/193 145/638/193
f 145/639/194 146/640/194 138/641/194 130/642/194
f 140/643/195 138/644/195 146/645/195 147/646/195
f 148/647/196 141/648/196 140/649/196
f 147/650/197 149/651/197 148/652/197
f 147/653/198 148/654/198 140/655/198
f 124/656/199 117/657/199 150/658/199
f 151/659/200 143/660/200 150/661/200
f 124/662/201 150/663/201 143/664/201
f 152/665/202 150/666/202 117/667/202 116/668/202
f 153/669/203 151/670/203 150/671/203 152/672/203
f 152/673/204 115/674/204 154/675/204
f 115/676/205 152/677/205 116/678/205
f 154/679/206 153/680/206 152/681/206
f 155/682/207 154/683/207 115/684/207 121/685/207
f 121/686/208 135/687/208 156/688/208
f 157/689/209 155/690/209 156/691/209
f 121/692/210 156/693/210 155/694/210
f 158/695/211 156/696/211 135/697/211 136/698/211
f 159/699/212 157/700/212 156/701/212 158/702/212
f 160/703/213 122/704/213 120/705/213
f 160/706/214 161/707/214 162/708/214
f 162/709/215 122/710/215 160/711/215
f 122/712/216 162/713/216 158/714/216
f 158/715/217 162/716/217 159/717/217
f 136/718/218 122/719/218 158/720/218
f 148/721/219 137/722/219 141/723/219
f 163/724/220 164/725/220 133/726/220 137/727/220
f 149/728/221 163/729/221 148/730/221
f 137/731/222 148/732/222 163/733/222
f 160/734/223 120/735/223 131/736/223
f 165/737/224 160/738/224 131/739/224
f 131/740/225 133/741/225 164/742/225 165/743/225
f 160/744/226 165/745/226 161/746/226
f 166/747/227 119/748/227 118/749/227
f 123/750/228 119/751/228 167/752/228 168/753/228
f 167/754/229 166/755/229 169/756/229
f 119/757/230 166/758/230 167/759/230
f 168/760/231 170/761/231 132/762/231 123/763/231
f 134/764/232 132/765/232 170/766/232 171/767/232
f 172/768/233 142/769/233 134/770/233
f 171/771/234 173/772/234 172/773/234
f 171/774/235 172/775/235 134/776/235
f 174/777/236 166/778/236 118/779/236 127/780/236
f 175/781/237 169/782/237 166/783/237 174/784/237
f 172/785/238 139/786/238 142/787/238
f 128/788/239 139/789/239 176/790/239 177/791/239
f 176/792/240 172/793/240 173/794/240
f 139/795/241 172/796/241 176/797/241
f 177/798/242 178/799/242 129/800/242 128/801/242
f 126/802/243 129/803/243 178/804/243 179/805/243
f 174/806/244 127/807/244 126/808/244
f 179/809/245 175/810/245 174/811/245
f 179/812/246 174/813/246 126/814/246
f 154/815/247 151/816/247 153/817/247
f 169/818/248 151/819/248 154/820/248
f 167/821/249 155/822/249 161/823/249
f 155/824/250 162/825/250 161/826/250
f 167/827/251 169/828/251 154/829/251 155/830/251
f 167/831/252 161/832/252 168/833/252
f 143/834/253 151/835/253 169/836/253
f 144/837/254 143/838/254 175/839/254 179/840/254
f 175/841/255 143/842/255 169/843/255
f 177/844/256 145/845/256 178/846/256
f 179/847/257 178/848/257 144/849/257
f 178/850/258 145/851/258 144/852/258
f 168/853/259 161/854/259 165/855/259
f 165/856/260 164/857/260 170/858/260
f 168/859/261 165/860/261 170/861/261
f 171/862/262 170/863/262 164/864/262
f 157/865/263 159/866/263 162/867/263
f 155/868/264 157/869/264 162/870/264
f 163/871/265 171/872/265 164/873/265
f 146/874/266 177/875/266 176/876/266
f 147/877/267 173/878/267 149/879/267
f 163/880/268 173/881/268 171/882/268
f 147/883/269 146/884/269 176/885/269
f 173/886/270 147/887/270 176/888/270
f 173/889/271 163/890/271 149/891/271
f 145/892/272 177/893/272 146/894/272