# Made in Blockbench 5.1.6
mtllib error.mtl

o object_1
v -0.93888875 0.57301875 0
v -0.9856725 1.02665875 0
v -0.93888875 0.9490624999999999 0
v -0.7283625 1.02665875 0
v -0.7283625 0.9490624999999999 0
v -0.93888875 0.4954225 0
v -0.93888875 0.089534375 0
v -0.9856725 0.011938125000000022 0
v -0.7137425 0.011938125000000022 0
v -0.7137425 0.089534375 0
v -0.748830625 0.57301875 0
v -0.748830625 0.4954225 0
v -0.9856725 1.02665875 0.05
v -0.9856725 0.011938125000000022 0.05
v -0.7283625 1.02665875 0.05
v -0.7283625 0.9490624999999999 0.05
v -0.93888875 0.9490624999999999 0.05
v -0.93888875 0.57301875 0.05
v -0.748830625 0.57301875 0.05
v -0.748830625 0.4954225 0.05
v -0.93888875 0.4954225 0.05
v -0.93888875 0.089534375 0.05
v -0.7137425 0.089534375 0.05
v -0.7137425 0.011938125000000022 0.05
vt 0.0234375 0.9921875
vt 0.0078125 0.9921875
vt 0.0078125 0.9765625
vt 0.0546875 0.9921875
vt 0.0390625 0.9921875
vt 0.0390625 0.9765625
vt 0.0546875 0.9765625
vt 0.0859375 0.9921875
vt 0.0703125 0.9921875
vt 0.0703125 0.9765625
vt 0.1171875 0.9921875
vt 0.1015625 0.9921875
vt 0.1015625 0.9765625
vt 0.1484375 0.9921875
vt 0.1328125 0.9921875
vt 0.1328125 0.9765625
vt 0.1796875 0.9921875
vt 0.1640625 0.9921875
vt 0.1640625 0.9765625
vt 0.1796875 0.9765625
vt 0.2109375 0.9921875
vt 0.1953125 0.9921875
vt 0.1953125 0.9765625
vt 0.2109375 0.9765625
vt 0.2421875 0.9921875
vt 0.2265625 0.9921875
vt 0.2265625 0.9765625
vt 0.2421875 0.9765625
vt 0.2734375 0.9921875
vt 0.2578125 0.9921875
vt 0.2578125 0.9765625
vt 0.2734375 0.9765625
vt 0.3046875 0.9921875
vt 0.2890625 0.9921875
vt 0.2890625 0.9765625
vt 0.3046875 0.9765625
vt 0.3359375 0.9921875
vt 0.3203125 0.9921875
vt 0.3203125 0.9765625
vt 0.3359375 0.9765625
vt 0.3671875 0.9921875
vt 0.3515625 0.9921875
vt 0.3515625 0.9765625
vt 0.3671875 0.9765625
vt 0.3984375 0.9921875
vt 0.3828125 0.9921875
vt 0.3828125 0.9765625
vt 0.3984375 0.9765625
vt 0.4296875 0.9921875
vt 0.4140625 0.9921875
vt 0.4140625 0.9765625
vt 0.4296875 0.9765625
vt 0.4609375 0.9921875
vt 0.4453125 0.9921875
vt 0.4453125 0.9765625
vt 0.4609375 0.9765625
vt 0.4921875 0.9921875
vt 0.4765625 0.9921875
vt 0.4765625 0.9765625
vt 0.4921875 0.9765625
vt 0.5234375 0.9921875
vt 0.5078125 0.9921875
vt 0.5078125 0.9765625
vt 0.5234375 0.9765625
vt 0.5546875 0.9921875
vt 0.5390625 0.9921875
vt 0.5390625 0.9765625
vt 0.5546875 0.9765625
vt 0.5859375 0.9921875
vt 0.5703125 0.9921875
vt 0.5703125 0.9765625
vt 0.5859375 0.9765625
vt 0.6171875 0.9921875
vt 0.6015625 0.9921875
vt 0.6015625 0.9765625
vt 0.6484375 0.9921875
vt 0.6328125 0.9921875
vt 0.6328125 0.9765625
vt 0.6484375 0.9765625
vt 0.6796875 0.9921875
vt 0.6640625 0.9921875
vt 0.6640625 0.9765625
vt 0.7109375 0.9921875
vt 0.6953125 0.9921875
vt 0.6953125 0.9765625
vt 0.7421875 0.9921875
vt 0.7265625 0.9921875
vt 0.7265625 0.9765625
vt 0.7734375 0.9921875
vt 0.7578125 0.9921875
vt 0.7578125 0.9765625
vt 0.7734375 0.9765625
vt 0.8046875 0.9921875
vt 0.7890625 0.9921875
vt 0.7890625 0.9765625
vt 0.8046875 0.9765625
vn 0 0 -1
vn 0 0 -1
vn 0 0 -1
vn 0 0 -1
vn 0 0 -1
vn 0 0 -1
vn 0 0 -1
vn -1 0 0
vn 0 1 0
vn 1 0 0
vn 0 -1 0
vn 1 0 0
vn 0 1 0
vn 1 0 0
vn 0 -1 0
vn 1 0 0
vn 0 1 0
vn 1 0 0
vn 0 -1 0
vn 0 0 1
vn 0 0 1
vn 0 0 1
vn 0 0 1
vn 0 0 1
vn 0 0 1
vn 0 0 1
usemtl m_4b849320-4799-cf9b-ebe8-09502049e1f1
f 1/1/1 2/2/1 3/3/1
f 2/4/2 4/5/2 5/6/2 3/7/2
f 6/8/3 2/9/3 1/10/3
f 7/11/4 8/12/4 6/13/4
f 2/14/5 6/15/5 8/16/5
f 9/17/6 8/18/6 7/19/6 10/20/6
f 6/21/7 1/22/7 11/23/7 12/24/7
f 13/25/8 2/26/8 8/27/8 14/28/8
f 15/29/9 4/30/9 2/31/9 13/32/9
f 16/33/10 5/34/10 4/35/10 15/36/10
f 17/37/11 3/38/11 5/39/11 16/40/11
f 18/41/12 1/42/12 3/43/12 17/44/12
f 19/45/13 11/46/13 1/47/13 18/48/13
f 20/49/14 12/50/14 11/51/14 19/52/14
f 21/53/15 6/54/15 12/55/15 20/56/15
f 22/57/16 7/58/16 6/59/16 21/60/16
f 23/61/17 10/62/17 7/63/17 22/64/17
f 24/65/18 9/66/18 10/67/18 23/68/18
f 14/69/19 8/70/19 9/71/19 24/72/19
f 18/73/20 17/74/20 13/75/20
f 13/76/21 17/77/21 16/78/21 15/79/21
f 21/80/22 18/81/22 13/82/22
f 22/83/23 21/84/23 14/85/23
f 13/86/24 14/87/24 21/88/24
f 24/89/25 23/90/25 22/91/25 14/92/25
f 21/93/26 20/94/26 19/95/26 18/96/26
o object_2
v -0.44196875 1.021919375 0
v -0.576315625 0.447670625 0
v -0.576315625 0.011938125000000022 0
v -0.623099375 0.011938125000000022 0
v -0.576315625 0.5252675 0
v -0.4538925 0.528825625 0
v -0.486038125 0.447670625 0
v -0.481560625 0.5252675 0
v -0.437335625 0.4591425 0
v -0.348976875 0.011938125000000022 0
v -0.623099375 1.02665875 0
v -0.576315625 0.9490624999999999 0
v -0.480053125 1.02665875 0
v -0.484393125 0.9490624999999999 0
v -0.4303225 0.9355506250000001 0
v -0.408398125 1.0077025 0
v -0.429414375 0.539501875 0
v -0.39002625 0.5822056250000001 0
v -0.38512625 0.490549375 0
v -0.3447275 0.551568125 0
v -0.31023375 0.741455 0
v -0.36527 0.65032375 0
v -0.29269 0.011938125000000022 0
v -0.39018625 0.895015625 0
v -0.354801875 0.950834375 0
v -0.36531 0.82943875 0
v -0.321375625 0.8605775 0
v -0.3570175 0.740801875 0
v -0.623099375 1.02665875 0.05
v -0.480053125 1.02665875 0.05
v -0.44196875 1.021919375 0.05
v -0.408398125 1.0077025 0.05
v -0.354801875 0.950834375 0.05
v -0.321375625 0.8605775 0.05
v -0.31023375 0.741455 0.05
v -0.623099375 0.011938125000000022 0.025
v -0.623099375 0.011938125000000022 0.05
v -0.576315625 0.011938125000000022 0.025
v -0.576315625 0.011938125000000022 0.05
v -0.576315625 0.447670625 0.05
v -0.486038125 0.447670625 0.05
v -0.348976875 0.011938125000000022 0.025
v -0.348976875 0.011938125000000022 0.05
v -0.29269 0.011938125000000022 0.025
v -0.29269 0.011938125000000022 0.05
v -0.437335625 0.4591425 0.05
v -0.3447275 0.551568125 0.05
v -0.38512625 0.490549375 0.05
v -0.576315625 0.5252675 0.025
v -0.4538925 0.528825625 0.05
v -0.429414375 0.539501875 0.05
v -0.481560625 0.5252675 0.05
v -0.576315625 0.5252675 0.05
v -0.39002625 0.5822056250000001 0.05
v -0.36527 0.65032375 0.05
v -0.3570175 0.740801875 0.025
v -0.3570175 0.740801875 0.05
v -0.576315625 0.9490624999999999 0.05
v -0.36531 0.82943875 0.05
v -0.39018625 0.895015625 0.05
v -0.4303225 0.9355506250000001 0.05
v -0.484393125 0.9490624999999999 0.05
vt 0.2109375 0.6796875
vt 0.1953125 0.6796875
vt 0.1953125 0.6640625
vt 0.2421875 0.6796875
vt 0.2265625 0.6796875
vt 0.2265625 0.6640625
vt 0.2734375 0.6796875
vt 0.2578125 0.6796875
vt 0.2578125 0.6640625
vt 0.3046875 0.6796875
vt 0.2890625 0.6796875
vt 0.2890625 0.6640625
vt 0.3359375 0.6796875
vt 0.3203125 0.6796875
vt 0.3203125 0.6640625
vt 0.3671875 0.6796875
vt 0.3515625 0.6796875
vt 0.3515625 0.6640625
vt 0.3984375 0.6796875
vt 0.3828125 0.6796875
vt 0.3828125 0.6640625
vt 0.4296875 0.6796875
vt 0.4140625 0.6796875
vt 0.4140625 0.6640625
vt 0.4609375 0.6796875
vt 0.4453125 0.6796875
vt 0.4453125 0.6640625
vt 0.4921875 0.6796875
vt 0.4765625 0.6796875
vt 0.4765625 0.6640625
vt 0.5234375 0.6796875
vt 0.5078125 0.6796875
vt 0.5078125 0.6640625
vt 0.5546875 0.6796875
vt 0.5390625 0.6796875
vt 0.5390625 0.6640625
vt 0.5859375 0.6796875
vt 0.5703125 0.6796875
vt 0.5703125 0.6640625
vt 0.6171875 0.6796875
vt 0.6015625 0.6796875
vt 0.6015625 0.6640625
vt 0.6484375 0.6796875
vt 0.6328125 0.6796875
vt 0.6328125 0.6640625
vt 0.6796875 0.6796875
vt 0.6640625 0.6796875
vt 0.6640625 0.6640625
vt 0.7109375 0.6796875
vt 0.6953125 0.6796875
vt 0.6953125 0.6640625
vt 0.7421875 0.6796875
vt 0.7265625 0.6796875
vt 0.7265625 0.6640625
vt 0.7734375 0.6796875
vt 0.7578125 0.6796875
vt 0.7578125 0.6640625
vt 0.8046875 0.6796875
vt 0.7890625 0.6796875
vt 0.7890625 0.6640625
vt 0.8359375 0.6796875
vt 0.8203125 0.6796875
vt 0.8203125 0.6640625
vt 0.8671875 0.6796875
vt 0.8515625 0.6796875
vt 0.8515625 0.6640625
vt 0.8984375 0.6796875
vt 0.8828125 0.6796875
vt 0.8828125 0.6640625
vt 0.9296875 0.6796875
vt 0.9140625 0.6796875
vt 0.9140625 0.6640625
vt 0.9609375 0.6796875
vt 0.9453125 0.6796875
vt 0.9453125 0.6640625
vt 0.9921875 0.6796875
vt 0.9765625 0.6796875
vt 0.9765625 0.6640625
vt 0.0234375 0.6484375
vt 0.0078125 0.6484375
vt 0.0078125 0.6328125
vt 0.0546875 0.6484375
vt 0.0390625 0.6484375
vt 0.0390625 0.6328125
vt 0.0859375 0.6484375
vt 0.0703125 0.6484375
vt 0.0703125 0.6328125
vt 0.0859375 0.6328125
vt 0.1171875 0.6484375
vt 0.1015625 0.6484375
vt 0.1015625 0.6328125
vt 0.1171875 0.6328125
vt 0.1484375 0.6484375
vt 0.1328125 0.6484375
vt 0.1328125 0.6328125
vt 0.1484375 0.6328125
vt 0.1796875 0.6484375
vt 0.1640625 0.6484375
vt 0.1640625 0.6328125
vt 0.1796875 0.6328125
vt 0.2109375 0.6484375
vt 0.1953125 0.6484375
vt 0.1953125 0.6328125
vt 0.2109375 0.6328125
vt 0.2421875 0.6484375
vt 0.2265625 0.6484375
vt 0.2265625 0.6328125
vt 0.2421875 0.6328125
vt 0.2734375 0.6484375
vt 0.2578125 0.6484375
vt 0.2578125 0.6328125
vt 0.3046875 0.6484375
vt 0.2890625 0.6484375
vt 0.2890625 0.6328125
vt 0.3359375 0.6484375
vt 0.3203125 0.6484375
vt 0.3203125 0.6328125
vt 0.3671875 0.6484375
vt 0.3515625 0.6484375
vt 0.3515625 0.6328125
vt 0.3671875 0.6328125
vt 0.3984375 0.6484375
vt 0.3828125 0.6484375
vt 0.3828125 0.6328125
vt 0.3984375 0.6328125
vt 0.4296875 0.6484375
vt 0.4140625 0.6484375
vt 0.4140625 0.6328125
vt 0.4609375 0.6484375
vt 0.4453125 0.6484375
vt 0.4453125 0.6328125
vt 0.4921875 0.6484375
vt 0.4765625 0.6484375
vt 0.4765625 0.6328125
vt 0.5234375 0.6484375
vt 0.5078125 0.6484375
vt 0.5078125 0.6328125
vt 0.5234375 0.6328125
vt 0.5546875 0.6484375
vt 0.5390625 0.6484375
vt 0.5390625 0.6328125
vt 0.5859375 0.6484375
vt 0.5703125 0.6484375
vt 0.5703125 0.6328125
vt 0.6171875 0.6484375
vt 0.6015625 0.6484375
vt 0.6015625 0.6328125
vt 0.6484375 0.6484375
vt 0.6328125 0.6484375
vt 0.6328125 0.6328125
vt 0.6484375 0.6328125
vt 0.6796875 0.6484375
vt 0.6640625 0.6484375
vt 0.6640625 0.6328125
vt 0.6796875 0.6328125
vt 0.7109375 0.6484375
vt 0.6953125 0.6484375
vt 0.6953125 0.6328125
vt 0.7421875 0.6484375
vt 0.7265625 0.6484375
vt 0.7265625 0.6328125
vt 0.7734375 0.6484375
vt 0.7578125 0.6484375
vt 0.7578125 0.6328125
vt 0.8046875 0.6484375
vt 0.7890625 0.6484375
vt 0.7890625 0.6328125
vt 0.8046875 0.6328125
vt 0.8359375 0.6484375
vt 0.8203125 0.6484375
vt 0.8203125 0.6328125
vt 0.8359375 0.6328125
vt 0.8671875 0.6484375
vt 0.8515625 0.6484375
vt 0.8515625 0.6328125
vt 0.8671875 0.6328125
vt 0.8984375 0.6484375
vt 0.8828125 0.6484375
vt 0.8828125 0.6328125
vt 0.9296875 0.6484375
vt 0.9140625 0.6484375
vt 0.9140625 0.6328125
vt 0.9296875 0.6328125
vt 0.9609375 0.6484375
vt 0.9453125 0.6484375
vt 0.9453125 0.6328125
vt 0.9609375 0.6328125
vt 0.9921875 0.6484375
vt 0.9765625 0.6484375
vt 0.9765625 0.6328125
vt 0.0234375 0.6171875
vt 0.0078125 0.6171875
vt 0.0078125 0.6015625
vt 0.0546875 0.6171875
vt 0.0390625 0.6171875
vt 0.0390625 0.6015625
vt 0.0546875 0.6015625
vt 0.0859375 0.6171875
vt 0.0703125 0.6171875
vt 0.0703125 0.6015625
vt 0.1171875 0.6171875
vt 0.1015625 0.6171875
vt 0.1015625 0.6015625
vt 0.1484375 0.6171875
vt 0.1328125 0.6171875
vt 0.1328125 0.6015625
vt 0.1484375 0.6015625
vt 0.1796875 0.6171875
vt 0.1640625 0.6171875
vt 0.1640625 0.6015625
vt 0.2109375 0.6171875
vt 0.1953125 0.6171875
vt 0.1953125 0.6015625
vt 0.2421875 0.6171875
vt 0.2265625 0.6171875
vt 0.2265625 0.6015625
vt 0.2734375 0.6171875
vt 0.2578125 0.6171875
vt 0.2578125 0.6015625
vt 0.3046875 0.6171875
vt 0.2890625 0.6171875
vt 0.2890625 0.6015625
vt 0.3359375 0.6171875
vt 0.3203125 0.6171875
vt 0.3203125 0.6015625
vt 0.3359375 0.6015625
vt 0.3671875 0.6171875
vt 0.3515625 0.6171875
vt 0.3515625 0.6015625
vt 0.3984375 0.6171875
vt 0.3828125 0.6171875
vt 0.3828125 0.6015625
vt 0.4296875 0.6171875
vt 0.4140625 0.6171875
vt 0.4140625 0.6015625
vt 0.4296875 0.6015625
vt 0.4609375 0.6171875
vt 0.4453125 0.6171875
vt 0.4453125 0.6015625
vt 0.4609375 0.6015625
vt 0.4921875 0.6171875
vt 0.4765625 0.6171875
vt 0.4765625 0.6015625
vt 0.4921875 0.6015625
vt 0.5234375 0.6171875
vt 0.5078125 0.6171875
vt 0.5078125 0.6015625
vt 0.5546875 0.6171875
vt 0.5390625 0.6171875
vt 0.5390625 0.6015625
vt 0.5859375 0.6171875
vt 0.5703125 0.6171875
vt 0.5703125 0.6015625
vt 0.6171875 0.6171875
vt 0.6015625 0.6171875
vt 0.6015625 0.6015625
vt 0.6484375 0.6171875
vt 0.6328125 0.6171875
vt 0.6328125 0.6015625
vt 0.6796875 0.6171875
vt 0.6640625 0.6171875
vt 0.6640625 0.6015625
vt 0.7109375 0.6171875
vt 0.6953125 0.6171875
vt 0.6953125 0.6015625
vt 0.7421875 0.6171875
vt 0.7265625 0.6171875
vt 0.7265625 0.6015625
vt 0.7734375 0.6171875
vt 0.7578125 0.6171875
vt 0.7578125 0.6015625
vt 0.8046875 0.6171875
vt 0.7890625 0.6171875
vt 0.7890625 0.6015625
vt 0.8359375 0.6171875
vt 0.8203125 0.6171875
vt 0.8203125 0.6015625
vt 0.8671875 0.6171875
vt 0.8515625 0.6171875
vt 0.8515625 0.6015625
vt 0.8984375 0.6171875
vt 0.8828125 0.6171875
vt 0.8828125 0.6015625
vt 0.9296875 0.6171875
vt 0.9140625 0.6171875
vt 0.9140625 0.6015625
vt 0.9609375 0.6171875
vt 0.9453125 0.6171875
vt 0.9453125 0.6015625
vt 0.9921875 0.6171875
vt 0.9765625 0.6171875
vt 0.9765625 0.6015625
vt 0.0234375 0.5859375
vt 0.0078125 0.5859375
vt 0.0078125 0.5703125
vt 0.0546875 0.5859375
vt 0.0390625 0.5859375
vt 0.0390625 0.5703125
vt 0.0859375 0.5859375
vt 0.0703125 0.5859375
vt 0.0703125 0.5703125
vt 0.1171875 0.5859375
vt 0.1015625 0.5859375
vt 0.1015625 0.5703125
vt 0.1484375 0.5859375
vt 0.1328125 0.5859375
vt 0.1328125 0.5703125
vt 0.1796875 0.5859375
vt 0.1640625 0.5859375
vt 0.1640625 0.5703125
vt 0.2109375 0.5859375
vt 0.1953125 0.5859375
vt 0.1953125 0.5703125
vt 0.2421875 0.5859375
vt 0.2265625 0.5859375
vt 0.2265625 0.5703125
vt 0.2734375 0.5859375
vt 0.2578125 0.5859375
vt 0.2578125 0.5703125
vt 0.3046875 0.5859375
vt 0.2890625 0.5859375
vt 0.2890625 0.5703125
vt 0.3359375 0.5859375
vt 0.3203125 0.5859375
vt 0.3203125 0.5703125
vt 0.3671875 0.5859375
vt 0.3515625 0.5859375
vt 0.3515625 0.5703125
vn 0 0 -1
vn 0 0 -1
vn 0 0 -1
vn 0 0 -1
vn 0 0 -1
vn 0 0 -1
vn 0 0 -1
vn 0 0 -1
vn 0 0 -1
vn 0 0 -1
vn 0 0 -1
vn 0 0 -1
vn 0 0 -1
vn 0 0 -1
vn 0 0 -1
vn 0 0 -1
vn 0 0 -1
vn 0 0 -1
vn 0 0 -1
vn 0 0 -1
vn 0 0 -1
vn 0 0 -1
vn 0 0 -1
vn 0 0 -1
vn 0 0 -1
vn 0 0 -1
vn 0 0 -1
vn 0 0 -1
vn 0 1 0
vn 0.12349153813870696 0.9923456252778748 0
vn 0.38996377934476056 0.9208301965070167 0
vn 0.9377562803059568 0.347294052276649 0
vn 0.9956542894798166 0.09312645080986341 0
vn 0.7277316232272493 0.6858620011015576 0
vn -1 0 0
vn -1 0 0
vn -1 0 0
vn 0 -1 0
vn 0 -1 0
vn 1 0 0
vn 1 0 0
vn 1 0 0
vn 0 -1 0
vn -0.9539205805547324 -0.3000592041483187 0
vn -0.9539205805547324 -0.3000592041483187 0
vn -0.9539205805547324 -0.3000592041483187 0
vn 0 -1 0
vn 0 -1 0
vn 0.9514682834741283 0.307746820524268 0
vn 0.9514682834741283 0.307746820524268 0
vn 0.9514682834741283 0.307746820524268 0
vn 0.983898292309511 -0.1787292656238154 0
vn 0.8338146176614233 -0.5520445483601255 0
vn 0.5154759654643574 -0.8569040372343852 0
vn 0 1 0
vn -0.3997835934612391 0.9166095561356639 0
vn -0.1275497651890879 0.9918321719929277 0
vn 0 1 0
vn 0 1 0
vn -0.9398553454403272 0.3415727296597952 0
vn -0.9958661528663308 0.09083284414359151 0
vn -0.9958661528663308 0.09083284414359151 0
vn -0.7350669486490384 0.6779945287417827 0
vn -0.9958661528663308 0.09083284414359151 0
vn 1 0 0
vn 1 0 0
vn 1 0 0
vn -0.9956521702591719 -0.09314910551476706 0
vn -0.9349868269288584 -0.3546824403173986 0
vn -0.9956521702591719 -0.09314910551476706 0
vn -0.9956521702591719 -0.09314910551476706 0
vn -0.2424379950251082 -0.9701669024287551 0
vn 0 -1 0
vn -0.710593259332085 -0.7036030271337698 0
vn 0 0 1
vn 0 0 1
vn 0 0 1
vn 0 0 1
vn 0 0 1
vn 0 0 1
vn 0 0 1
vn 0 0 1
vn 0 0 1
vn 0 0 1
vn 0 0 1
vn 0 0 1
vn 0 0 1
vn 0 0 1
vn 0 0 1
vn 0 0 1
vn 0 0 1
vn 0 0 1
vn 0 0 1
vn 0 0 1
vn 0 0 1
vn 0 0 1
vn 0 0 1
vn 0 0 1
vn 0 0 1
vn 0 0 1
vn 0 0 1
vn 0 0 1
usemtl m_4b849320-4799-cf9b-ebe8-09502049e1f1
f 26/97/27 27/98/27 28/99/27
f 29/100/28 26/101/28 28/102/28
f 30/103/29 31/104/29 32/105/29
f 31/106/30 33/107/30 34/108/30
f 31/109/31 29/110/31 32/111/31
f 30/112/32 33/113/32 31/114/32
f 26/115/33 29/116/33 31/117/33
f 35/118/34 29/119/34 28/120/34
f 36/121/35 35/122/35 37/123/35
f 36/124/36 29/125/36 35/126/36
f 38/127/37 36/128/37 37/129/37
f 39/130/38 38/131/38 25/132/38
f 25/133/39 38/134/39 37/135/39
f 25/136/40 40/137/40 39/138/40
f 41/139/41 33/140/41 30/141/41
f 42/142/42 43/143/42 41/144/42
f 43/145/43 33/146/43 41/147/43
f 44/148/44 43/149/44 42/150/44
f 45/151/45 44/152/45 46/153/45
f 44/154/46 42/155/46 46/156/46
f 33/157/47 47/158/47 34/159/47
f 48/160/48 40/161/48 49/162/48
f 48/163/49 39/164/49 40/165/49
f 50/166/50 48/167/50 49/168/50
f 51/169/51 45/170/51 52/171/51
f 46/172/52 52/173/52 45/174/52
f 51/175/53 50/176/53 49/177/53
f 52/178/54 50/179/54 51/180/54
f 37/181/55 35/182/55 53/183/55 54/184/55
f 25/185/56 37/186/56 54/187/56 55/188/56
f 40/189/57 25/190/57 55/191/57 56/192/57
f 51/193/58 49/194/58 57/195/58 58/196/58
f 45/197/59 51/198/59 58/199/59 59/200/59
f 49/201/60 40/202/60 56/203/60 57/204/60
f 35/205/61 28/206/61 60/207/61
f 61/208/62 53/209/62 60/210/62
f 35/211/63 60/212/63 53/213/63
f 62/214/64 60/215/64 28/216/64 27/217/64
f 63/218/65 61/219/65 60/220/65 62/221/65
f 62/222/66 26/223/66 64/224/66
f 26/225/67 62/226/67 27/227/67
f 64/228/68 63/229/68 62/230/68
f 65/231/69 64/232/69 26/233/69 31/234/69
f 31/235/70 34/236/70 66/237/70
f 67/238/71 65/239/71 66/240/71
f 31/241/72 66/242/72 65/243/72
f 68/244/73 66/245/73 34/246/73 47/247/73
f 69/248/74 67/249/74 66/250/74 68/251/74
f 68/252/75 33/253/75 70/254/75
f 33/255/76 68/256/76 47/257/76
f 70/258/77 69/259/77 68/260/77
f 44/261/78 45/262/78 59/263/78 71/264/78
f 71/265/79 72/266/79 43/267/79 44/268/79
f 33/269/80 43/270/80 72/271/80 70/272/80
f 73/273/81 32/274/81 29/275/81
f 74/276/82 75/277/82 41/278/82 30/279/82
f 30/280/83 32/281/83 76/282/83 74/283/83
f 76/284/84 73/285/84 77/286/84
f 32/287/85 73/288/85 76/289/85
f 46/290/86 42/291/86 78/292/86 79/293/86
f 46/294/87 80/295/87 52/296/87
f 80/297/88 46/298/88 79/299/88
f 42/300/89 41/301/89 75/302/89 78/303/89
f 80/304/90 79/305/90 81/306/90
f 73/307/91 36/308/91 82/309/91
f 36/310/92 73/311/92 29/312/92
f 82/313/93 77/314/93 73/315/93
f 80/316/94 50/317/94 52/318/94
f 83/319/95 84/320/95 48/321/95 50/322/95
f 81/323/96 83/324/96 80/325/96
f 50/326/97 80/327/97 83/328/97
f 38/329/98 39/330/98 85/331/98 86/332/98
f 36/333/99 38/334/99 86/335/99 82/336/99
f 39/337/100 48/338/100 84/339/100 85/340/100
f 64/341/101 61/342/101 63/343/101
f 77/344/102 61/345/102 64/346/102
f 74/347/103 76/348/103 65/349/103
f 65/350/104 67/351/104 70/352/104
f 65/353/105 76/354/105 77/355/105
f 74/356/106 65/357/106 70/358/106
f 64/359/107 65/360/107 77/361/107
f 53/362/108 61/363/108 77/364/108
f 82/365/109 54/366/109 53/367/109
f 82/368/110 53/369/110 77/370/110
f 86/371/111 54/372/111 82/373/111
f 85/374/112 55/375/112 86/376/112
f 55/377/113 54/378/113 86/379/113
f 55/380/114 85/381/114 56/382/114
f 75/383/115 74/384/115 70/385/115
f 78/386/116 75/387/116 72/388/116
f 72/389/117 75/390/117 70/391/117
f 71/392/118 78/393/118 72/394/118
f 59/395/119 79/396/119 71/397/119
f 71/398/120 79/399/120 78/400/120
f 70/401/121 67/402/121 69/403/121
f 84/404/122 57/405/122 56/406/122
f 84/407/123 56/408/123 85/409/123
f 83/410/124 57/411/124 84/412/124
f 58/413/125 81/414/125 59/415/125
f 79/416/126 59/417/126 81/418/126
f 58/419/127 57/420/127 83/421/127
f 81/422/128 58/423/128 83/424/128
o object_3
v -0.16111125 0.447670625 0
v -0.16111125 0.011938125000000022 0
v -0.207895 0.011938125000000022 0
v -0.16111125 0.5252675 0
v -0.038688125 0.528825625 0
v -0.070833125 0.447670625 0
v -0.06635625 0.5252675 0
v -0.022130625 0.4591425 0
v 0.066228125 0.011938125000000022 0
v -0.207895 1.02665875 0
v -0.16111125 0.9490624999999999 0
v -0.064848125 1.02665875 0
v -0.06918875 0.9490624999999999 0
v -0.015118125 0.9355506250000001 0
v -0.02676375 1.021919375 0
v 0.00680625 1.0077025 0
v -0.01421 0.539501875 0
v 0.025178125 0.5822056250000001 0
v 0.030078125 0.490549375 0
v 0.070476875 0.551568125 0
v 0.104970625 0.741455 0
v 0.049935 0.65032375 0
v 0.122514375 0.011938125000000022 0
v 0.025018125 0.895015625 0
v 0.060403125 0.950834375 0
v 0.049895 0.82943875 0
v 0.09382875 0.8605775 0
v 0.058186875 0.740801875 0
v -0.207895 1.02665875 0.05
v -0.064848125 1.02665875 0.05
v -0.02676375 1.021919375 0.05
v 0.00680625 1.0077025 0.05
v 0.060403125 0.950834375 0.05
v 0.09382875 0.8605775 0.05
v 0.104970625 0.741455 0.05
v -0.207895 0.011938125000000022 0.025
v -0.207895 0.011938125000000022 0.05
v -0.16111125 0.011938125000000022 0.025
v -0.16111125 0.011938125000000022 0.05
v -0.16111125 0.447670625 0.05
v -0.070833125 0.447670625 0.05
v 0.066228125 0.011938125000000022 0.025
v 0.066228125 0.011938125000000022 0.05
v 0.122514375 0.011938125000000022 0.025
v 0.122514375 0.011938125000000022 0.05
v -0.022130625 0.4591425 0.05
v 0.070476875 0.551568125 0.05
v 0.030078125 0.490549375 0.05
v -0.16111125 0.5252675 0.025
v -0.038688125 0.528825625 0.05
v -0.01421 0.539501875 0.05
v -0.06635625 0.5252675 0.05
v -0.16111125 0.5252675 0.05
v 0.025178125 0.5822056250000001 0.05
v 0.049935 0.65032375 0.05
v 0.058186875 0.740801875 0.025
v 0.058186875 0.740801875 0.05
v -0.16111125 0.9490624999999999 0.05
v 0.049895 0.82943875 0.05
v 0.025018125 0.895015625 0.05
v -0.015118125 0.9355506250000001 0.05
v -0.06918875 0.9490624999999999 0.05
vt 0.0234375 0.7734375
vt 0.0078125 0.7734375
vt 0.0078125 0.7578125
vt 0.0546875 0.7734375
vt 0.0390625 0.7734375
vt 0.0390625 0.7578125
vt 0.0859375 0.7734375
vt 0.0703125 0.7734375
vt 0.0703125 0.7578125
vt 0.1171875 0.7734375
vt 0.1015625 0.7734375
vt 0.1015625 0.7578125
vt 0.1484375 0.7734375
vt 0.1328125 0.7734375
vt 0.1328125 0.7578125
vt 0.1796875 0.7734375
vt 0.1640625 0.7734375
vt 0.1640625 0.7578125
vt 0.2109375 0.7734375
vt 0.1953125 0.7734375
vt 0.1953125 0.7578125
vt 0.2421875 0.7734375
vt 0.2265625 0.7734375
vt 0.2265625 0.7578125
vt 0.2734375 0.7734375
vt 0.2578125 0.7734375
vt 0.2578125 0.7578125
vt 0.3046875 0.7734375
vt 0.2890625 0.7734375
vt 0.2890625 0.7578125
vt 0.3359375 0.7734375
vt 0.3203125 0.7734375
vt 0.3203125 0.7578125
vt 0.3671875 0.7734375
vt 0.3515625 0.7734375
vt 0.3515625 0.7578125
vt 0.3984375 0.7734375
vt 0.3828125 0.7734375
vt 0.3828125 0.7578125
vt 0.4296875 0.7734375
vt 0.4140625 0.7734375
vt 0.4140625 0.7578125
vt 0.4609375 0.7734375
vt 0.4453125 0.7734375
vt 0.4453125 0.7578125
vt 0.4921875 0.7734375
vt 0.4765625 0.7734375
vt 0.4765625 0.7578125
vt 0.5234375 0.7734375
vt 0.5078125 0.7734375
vt 0.5078125 0.7578125
vt 0.5546875 0.7734375
vt 0.5390625 0.7734375
vt 0.5390625 0.7578125
vt 0.5859375 0.7734375
vt 0.5703125 0.7734375
vt 0.5703125 0.7578125
vt 0.6171875 0.7734375
vt 0.6015625 0.7734375
vt 0.6015625 0.7578125
vt 0.6484375 0.7734375
vt 0.6328125 0.7734375
vt 0.6328125 0.7578125
vt 0.6796875 0.7734375
vt 0.6640625 0.7734375
vt 0.6640625 0.7578125
vt 0.7109375 0.7734375
vt 0.6953125 0.7734375
vt 0.6953125 0.7578125
vt 0.7421875 0.7734375
vt 0.7265625 0.7734375
vt 0.7265625 0.7578125
vt 0.7734375 0.7734375
vt 0.7578125 0.7734375
vt 0.7578125 0.7578125
vt 0.8046875 0.7734375
vt 0.7890625 0.7734375
vt 0.7890625 0.7578125
vt 0.8359375 0.7734375
vt 0.8203125 0.7734375
vt 0.8203125 0.7578125
vt 0.8671875 0.7734375
vt 0.8515625 0.7734375
vt 0.8515625 0.7578125
vt 0.8984375 0.7734375
vt 0.8828125 0.7734375
vt 0.8828125 0.7578125
vt 0.8984375 0.7578125
vt 0.9296875 0.7734375
vt 0.9140625 0.7734375
vt 0.9140625 0.7578125
vt 0.9296875 0.7578125
vt 0.9609375 0.7734375
vt 0.9453125 0.7734375
vt 0.9453125 0.7578125
vt 0.9609375 0.7578125
vt 0.9921875 0.7734375
vt 0.9765625 0.7734375
vt 0.9765625 0.7578125
vt 0.9921875 0.7578125
vt 0.0234375 0.7421875
vt 0.0078125 0.7421875
vt 0.0078125 0.7265625
vt 0.0234375 0.7265625
vt 0.0546875 0.7421875
vt 0.0390625 0.7421875
vt 0.0390625 0.7265625
vt 0.0546875 0.7265625
vt 0.0859375 0.7421875
vt 0.0703125 0.7421875
vt 0.0703125 0.7265625
vt 0.1171875 0.7421875
vt 0.1015625 0.7421875
vt 0.1015625 0.7265625
vt 0.1484375 0.7421875
vt 0.1328125 0.7421875
vt 0.1328125 0.7265625
vt 0.1796875 0.7421875
vt 0.1640625 0.7421875
vt 0.1640625 0.7265625
vt 0.1796875 0.7265625
vt 0.2109375 0.7421875
vt 0.1953125 0.7421875
vt 0.1953125 0.7265625
vt 0.2109375 0.7265625
vt 0.2421875 0.7421875
vt 0.2265625 0.7421875
vt 0.2265625 0.7265625
vt 0.2734375 0.7421875
vt 0.2578125 0.7421875
vt 0.2578125 0.7265625
vt 0.3046875 0.7421875
vt 0.2890625 0.7421875
vt 0.2890625 0.7265625
vt 0.3359375 0.7421875
vt 0.3203125 0.7421875
vt 0.3203125 0.7265625
vt 0.3359375 0.7265625
vt 0.3671875 0.7421875
vt 0.3515625 0.7421875
vt 0.3515625 0.7265625
vt 0.3984375 0.7421875
vt 0.3828125 0.7421875
vt 0.3828125 0.7265625
vt 0.4296875 0.7421875
vt 0.4140625 0.7421875
vt 0.4140625 0.7265625
vt 0.4609375 0.7421875
vt 0.4453125 0.7421875
vt 0.4453125 0.7265625
vt 0.4609375 0.7265625
vt 0.4921875 0.7421875
vt 0.4765625 0.7421875
vt 0.4765625 0.7265625
vt 0.4921875 0.7265625
vt 0.5234375 0.7421875
vt 0.5078125 0.7421875
vt 0.5078125 0.7265625
vt 0.5546875 0.7421875
vt 0.5390625 0.7421875
vt 0.5390625 0.7265625
vt 0.5859375 0.7421875
vt 0.5703125 0.7421875
vt 0.5703125 0.7265625
vt 0.6171875 0.7421875
vt 0.6015625 0.7421875
vt 0.6015625 0.7265625
vt 0.6171875 0.7265625
vt 0.6484375 0.7421875
vt 0.6328125 0.7421875
vt 0.6328125 0.7265625
vt 0.6484375 0.7265625
vt 0.6796875 0.7421875
vt 0.6640625 0.7421875
vt 0.6640625 0.7265625
vt 0.6796875 0.7265625
vt 0.7109375 0.7421875
vt 0.6953125 0.7421875
vt 0.6953125 0.7265625
vt 0.7421875 0.7421875
vt 0.7265625 0.7421875
vt 0.7265625 0.7265625
vt 0.7421875 0.7265625
vt 0.7734375 0.7421875
vt 0.7578125 0.7421875
vt 0.7578125 0.7265625
vt 0.7734375 0.7265625
vt 0.8046875 0.7421875
vt 0.7890625 0.7421875
vt 0.7890625 0.7265625
vt 0.8359375 0.7421875
vt 0.8203125 0.7421875
vt 0.8203125 0.7265625
vt 0.8671875 0.7421875
vt 0.8515625 0.7421875
vt 0.8515625 0.7265625
vt 0.8671875 0.7265625
vt 0.8984375 0.7421875
vt 0.8828125 0.7421875
vt 0.8828125 0.7265625
vt 0.9296875 0.7421875
vt 0.9140625 0.7421875
vt 0.9140625 0.7265625
vt 0.9609375 0.7421875
vt 0.9453125 0.7421875
vt 0.9453125 0.7265625
vt 0.9609375 0.7265625
vt 0.9921875 0.7421875
vt 0.9765625 0.7421875
vt 0.9765625 0.7265625
vt 0.0234375 0.7109375
vt 0.0078125 0.7109375
vt 0.0078125 0.6953125
vt 0.0546875 0.7109375
vt 0.0390625 0.7109375
vt 0.0390625 0.6953125
vt 0.0859375 0.7109375
vt 0.0703125 0.7109375
vt 0.0703125 0.6953125
vt 0.1171875 0.7109375
vt 0.1015625 0.7109375
vt 0.1015625 0.6953125
vt 0.1484375 0.7109375
vt 0.1328125 0.7109375
vt 0.1328125 0.6953125
vt 0.1484375 0.6953125
vt 0.1796875 0.7109375
vt 0.1640625 0.7109375
vt 0.1640625 0.6953125
vt 0.2109375 0.7109375
vt 0.1953125 0.7109375
vt 0.1953125 0.6953125
vt 0.2421875 0.7109375
vt 0.2265625 0.7109375
vt 0.2265625 0.6953125
vt 0.2421875 0.6953125
vt 0.2734375 0.7109375
vt 0.2578125 0.7109375
vt 0.2578125 0.6953125
vt 0.2734375 0.6953125
vt 0.3046875 0.7109375
vt 0.2890625 0.7109375
vt 0.2890625 0.6953125
vt 0.3046875 0.6953125
vt 0.3359375 0.7109375
vt 0.3203125 0.7109375
vt 0.3203125 0.6953125
vt 0.3671875 0.7109375
vt 0.3515625 0.7109375
vt 0.3515625 0.6953125
vt 0.3984375 0.7109375
vt 0.3828125 0.7109375
vt 0.3828125 0.6953125
vt 0.4296875 0.7109375
vt 0.4140625 0.7109375
vt 0.4140625 0.6953125
vt 0.4609375 0.7109375
vt 0.4453125 0.7109375
vt 0.4453125 0.6953125
vt 0.4921875 0.7109375
vt 0.4765625 0.7109375
vt 0.4765625 0.6953125
vt 0.5234375 0.7109375
vt 0.5078125 0.7109375
vt 0.5078125 0.6953125
vt 0.5546875 0.7109375
vt 0.5390625 0.7109375
vt 0.5390625 0.6953125
vt 0.5859375 0.7109375
vt 0.5703125 0.7109375
vt 0.5703125 0.6953125
vt 0.6171875 0.7109375
vt 0.6015625 0.7109375
vt 0.6015625 0.6953125
vt 0.6484375 0.7109375
vt 0.6328125 0.7109375
vt 0.6328125 0.6953125
vt 0.6796875 0.7109375
vt 0.6640625 0.7109375
vt 0.6640625 0.6953125
vt 0.7109375 0.7109375
vt 0.6953125 0.7109375
vt 0.6953125 0.6953125
vt 0.7421875 0.7109375
vt 0.7265625 0.7109375
vt 0.7265625 0.6953125
vt 0.7734375 0.7109375
vt 0.7578125 0.7109375
vt 0.7578125 0.6953125
vt 0.8046875 0.7109375
vt 0.7890625 0.7109375
vt 0.7890625 0.6953125
vt 0.8359375 0.7109375
vt 0.8203125 0.7109375
vt 0.8203125 0.6953125
vt 0.8671875 0.7109375
vt 0.8515625 0.7109375
vt 0.8515625 0.6953125
vt 0.8984375 0.7109375
vt 0.8828125 0.7109375
vt 0.8828125 0.6953125
vt 0.9296875 0.7109375
vt 0.9140625 0.7109375
vt 0.9140625 0.6953125
vt 0.9609375 0.7109375
vt 0.9453125 0.7109375
vt 0.9453125 0.6953125
vt 0.9921875 0.7109375
vt 0.9765625 0.7109375
vt 0.9765625 0.6953125
vt 0.0234375 0.6796875
vt 0.0078125 0.6796875
vt 0.0078125 0.6640625
vt 0.0546875 0.6796875
vt 0.0390625 0.6796875
vt 0.0390625 0.6640625
vt 0.0859375 0.6796875
vt 0.0703125 0.6796875
vt 0.0703125 0.6640625
vt 0.1171875 0.6796875
vt 0.1015625 0.6796875
vt 0.1015625 0.6640625
vt 0.1484375 0.6796875
vt 0.1328125 0.6796875
vt 0.1328125 0.6640625
vt 0.1796875 0.6796875
vt 0.1640625 0.6796875
vt 0.1640625 0.6640625
vn 0 0 -1
vn 0 0 -1
vn 0 0 -1
vn 0 0 -1
vn 0 0 -1
vn 0 0 -1
vn 0 0 -1
vn 0 0 -1
vn 0 0 -1
vn 0 0 -1
vn 0 0 -1
vn 0 0 -1
vn 0 0 -1
vn 0 0 -1
vn 0 0 -1
vn 0 0 -1
vn 0 0 -1
vn 0 0 -1
vn 0 0 -1
vn 0 0 -1
vn 0 0 -1
vn 0 0 -1
vn 0 0 -1
vn 0 0 -1
vn 0 0 -1
vn 0 0 -1
vn 0 0 -1
vn 0 0 -1
vn 0 1 0
vn 0.12349153813870696 0.9923456252778748 0
vn 0.3899699355091377 0.9208275893993397 0
vn 0.9377583951309877 0.34728834181606894 0
vn 0.9956542894798166 0.09312645080986318 0
vn 0.7277276312385453 0.6858662367633618 0
vn -1 0 0
vn -1 0 0
vn -1 0 0
vn 0 -1 0
vn 0 -1 0
vn 1 0 0
vn 1 0 0
vn 1 0 0
vn 0 -1 0
vn -0.9539205805547324 -0.30005920414831877 0
vn -0.9539205805547324 -0.30005920414831877 0
vn -0.9539205805547324 -0.30005920414831877 0
vn 0 -1 0
vn 0 -1 0
vn 0.9514686728378717 0.30774561671637035 0
vn 0.9514686728378717 0.30774561671637035 0
vn 0.9514686728378717 0.30774561671637035 0
vn 0.983898292309511 -0.1787292656238152 0
vn 0.833814617661423 -0.5520445483601256 0
vn 0.5154804966040195 -0.8569013114827598 0
vn 0 1 0
vn -0.39978359346123865 0.9166095561356641 0
vn -0.12754976518908806 0.9918321719929277 0
vn 0 1 0
vn 0 1 0
vn -0.939852577057686 0.34158034691420236 0
vn -0.9958667751168152 0.09082602170322461 0
vn -0.9958667751168152 0.09082602170322461 0
vn -0.7350669486490384 0.6779945287417827 0
vn -0.9958667751168152 0.09082602170322461 0
vn 1 0 0
vn 1 0 0
vn 1 0 0
vn -0.9956528213530607 -0.09314214584005706 0
vn -0.9349838717527351 -0.3546902304296878 0
vn -0.9956528213530607 -0.09314214584005706 0
vn -0.9956528213530607 -0.09314214584005706 0
vn -0.24243799502510813 -0.9701669024287551 0
vn 0 -1 0
vn -0.710593259332085 -0.7036030271337699 0
vn 0 0 1
vn 0 0 1
vn 0 0 1
vn 0 0 1
vn 0 0 1
vn 0 0 1
vn 0 0 1
vn 0 0 1
vn 0 0 1
vn 0 0 1
vn 0 0 1
vn 0 0 1
vn 0 0 1
vn 0 0 1
vn 0 0 1
vn 0 0 1
vn 0 0 1
vn 0 0 1
vn 0 0 1
vn 0 0 1
vn 0 0 1
vn 0 0 1
vn 0 0 1
vn 0 0 1
vn 0 0 1
vn 0 0 1
vn 0 0 1
vn 0 0 1
usemtl m_4b849320-4799-cf9b-ebe8-09502049e1f1
f 87/425/129 88/426/129 89/427/129
f 90/428/130 87/429/130 89/430/130
f 91/431/131 92/432/131 93/433/131
f 92/434/132 94/435/132 95/436/132
f 92/437/133 90/438/133 93/439/133
f 91/440/134 94/441/134 92/442/134
f 87/443/135 90/444/135 92/445/135
f 96/446/136 90/447/136 89/448/136
f 97/449/137 96/450/137 98/451/137
f 97/452/138 90/453/138 96/454/138
f 99/455/139 97/456/139 98/457/139
f 100/458/140 99/459/140 101/460/140
f 101/461/141 99/462/141 98/463/141
f 101/464/142 102/465/142 100/466/142
f 103/467/143 94/468/143 91/469/143
f 104/470/144 105/471/144 103/472/144
f 105/473/145 94/474/145 103/475/145
f 106/476/146 105/477/146 104/478/146
f 107/479/147 106/480/147 108/481/147
f 106/482/148 104/483/148 108/484/148
f 94/485/149 109/486/149 95/487/149
f 110/488/150 102/489/150 111/490/150
f 110/491/151 100/492/151 102/493/151
f 112/494/152 110/495/152 111/496/152
f 113/497/153 107/498/153 114/499/153
f 108/500/154 114/501/154 107/502/154
f 113/503/155 112/504/155 111/505/155
f 114/506/156 112/507/156 113/508/156
f 98/509/157 96/510/157 115/511/157 116/512/157
f 101/513/158 98/514/158 116/515/158 117/516/158
f 102/517/159 101/518/159 117/519/159 118/520/159
f 113/521/160 111/522/160 119/523/160 120/524/160
f 107/525/161 113/526/161 120/527/161 121/528/161
f 111/529/162 102/530/162 118/531/162 119/532/162
f 96/533/163 89/534/163 122/535/163
f 123/536/164 115/537/164 122/538/164
f 96/539/165 122/540/165 115/541/165
f 124/542/166 122/543/166 89/544/166 88/545/166
f 125/546/167 123/547/167 122/548/167 124/549/167
f 124/550/168 87/551/168 126/552/168
f 87/553/169 124/554/169 88/555/169
f 126/556/170 125/557/170 124/558/170
f 127/559/171 126/560/171 87/561/171 92/562/171
f 92/563/172 95/564/172 128/565/172
f 129/566/173 127/567/173 128/568/173
f 92/569/174 128/570/174 127/571/174
f 130/572/175 128/573/175 95/574/175 109/575/175
f 131/576/176 129/577/176 128/578/176 130/579/176
f 130/580/177 94/581/177 132/582/177
f 94/583/178 130/584/178 109/585/178
f 132/586/179 131/587/179 130/588/179
f 106/589/180 107/590/180 121/591/180 133/592/180
f 133/593/181 134/594/181 105/595/181 106/596/181
f 94/597/182 105/598/182 134/599/182 132/600/182
f 135/601/183 93/602/183 90/603/183
f 136/604/184 137/605/184 103/606/184 91/607/184
f 91/608/185 93/609/185 138/610/185 136/611/185
f 138/612/186 135/613/186 139/614/186
f 93/615/187 135/616/187 138/617/187
f 108/618/188 104/619/188 140/620/188 141/621/188
f 108/622/189 142/623/189 114/624/189
f 142/625/190 108/626/190 141/627/190
f 104/628/191 103/629/191 137/630/191 140/631/191
f 142/632/192 141/633/192 143/634/192
f 135/635/193 97/636/193 144/637/193
f 97/638/194 135/639/194 90/640/194
f 144/641/195 139/642/195 135/643/195
f 142/644/196 112/645/196 114/646/196
f 145/647/197 146/648/197 110/649/197 112/650/197
f 143/651/198 145/652/198 142/653/198
f 112/654/199 142/655/199 145/656/199
f 99/657/200 100/658/200 147/659/200 148/660/200
f 97/661/201 99/662/201 148/663/201 144/664/201
f 100/665/202 110/666/202 146/667/202 147/668/202
f 126/669/203 123/670/203 125/671/203
f 139/672/204 123/673/204 126/674/204
f 136/675/205 138/676/205 127/677/205
f 127/678/206 129/679/206 132/680/206
f 127/681/207 138/682/207 139/683/207
f 136/684/208 127/685/208 132/686/208
f 126/687/209 127/688/209 139/689/209
f 115/690/210 123/691/210 139/692/210
f 144/693/211 116/694/211 115/695/211
f 144/696/212 115/697/212 139/698/212
f 148/699/213 116/700/213 144/701/213
f 147/702/214 117/703/214 148/704/214
f 117/705/215 116/706/215 148/707/215
f 117/708/216 147/709/216 118/710/216
f 137/711/217 136/712/217 132/713/217
f 140/714/218 137/715/218 134/716/218
f 134/717/219 137/718/219 132/719/219
f 133/720/220 140/721/220 134/722/220
f 121/723/221 141/724/221 133/725/221
f 133/726/222 141/727/222 140/728/222
f 132/729/223 129/730/223 131/731/223
f 146/732/224 119/733/224 118/734/224
f 146/735/225 118/736/225 147/737/225
f 145/738/226 119/739/226 146/740/226
f 120/741/227 143/742/227 121/743/227
f 141/744/228 121/745/228 143/746/228
f 120/747/229 119/748/229 145/749/229
f 143/750/230 120/751/230 145/752/230
o object_4
v 0.277005625 0.8413881249999999 0
v 0.24338 0.9014506250000001 0
v 0.317913125 1.00431 0
v 0.2277775 0.52396125 0
v 0.336233125 0.926620625 0
v 0.180994375 0.52358875 0
v 0.415460625 0.95503125 0
v 0.373346875 0.94792875 0
v 0.41674 1.0385962499999999 0
v 0.364289375 1.030025 0
v 0.20890875 0.246731875 0
v 0.27787375 0.202198125 0
v 0.28984375 0.06374625 0
v 0.337135625 0.11322312499999998 0
v 0.347895 0.015936875000000017 0
v 0.37364125 0.09098 0
v 0.414729375 0.083565 0
v 0.41600875 0 0
v 0.457094375 0.9478175 0
v 0.48433375 1.02319625 0
v 0.493865625 0.9261775 0
v 0.542196875 0.9769950000000001 0
v 0.55281875 0.83961625 0
v 0.623474375 0.7979268749999999 0
v 0.651754375 0.52358875 0
v 0.602046875 0.52396125 0
v 0.483134375 0.015936875000000017 0
v 0.45712875 0.09082562500000002 0
v 0.494368125 0.11260562499999999 0
v 0.540963125 0.06374625 0
v 0.62294875 0.24710500000000002 0
v 0.553366875 0.19972625 0
v 0.623474375 0.7979268749999999 0.05
v 0.651754375 0.52358875 0.05
v 0.48433375 1.02319625 0.05
v 0.542196875 0.9769950000000001 0.05
v 0.364289375 1.030025 0.05
v 0.41674 1.0385962499999999 0.05
v 0.24338 0.9014506250000001 0.05
v 0.317913125 1.00431 0.05
v 0.180994375 0.52358875 0.05
v 0.28984375 0.06374625 0.05
v 0.20890875 0.246731875 0.05
v 0.41600875 0 0.05
v 0.347895 0.015936875000000017 0.05
v 0.540963125 0.06374625 0.05
v 0.483134375 0.015936875000000017 0.05
v 0.62294875 0.24710500000000002 0.05
v 0.553366875 0.19972625 0.05
v 0.602046875 0.52396125 0.05
v 0.45712875 0.09082562500000002 0.05
v 0.494368125 0.11260562499999999 0.05
v 0.37364125 0.09098 0.05
v 0.414729375 0.083565 0.05
v 0.27787375 0.202198125 0.05
v 0.337135625 0.11322312499999998 0.05
v 0.2277775 0.52396125 0.05
v 0.336233125 0.926620625 0.05
v 0.277005625 0.8413881249999999 0.05
v 0.415460625 0.95503125 0.05
v 0.373346875 0.94792875 0.05
v 0.493865625 0.9261775 0.05
v 0.457094375 0.9478175 0.05
v 0.55281875 0.83961625 0.05
vt 0.0234375 0.8671875
vt 0.0078125 0.8671875
vt 0.0078125 0.8515625
vt 0.0546875 0.8671875
vt 0.0390625 0.8671875
vt 0.0390625 0.8515625
vt 0.0859375 0.8671875
vt 0.0703125 0.8671875
vt 0.0703125 0.8515625
vt 0.1171875 0.8671875
vt 0.1015625 0.8671875
vt 0.1015625 0.8515625
vt 0.1484375 0.8671875
vt 0.1328125 0.8671875
vt 0.1328125 0.8515625
vt 0.1796875 0.8671875
vt 0.1640625 0.8671875
vt 0.1640625 0.8515625
vt 0.2109375 0.8671875
vt 0.1953125 0.8671875
vt 0.1953125 0.8515625
vt 0.2421875 0.8671875
vt 0.2265625 0.8671875
vt 0.2265625 0.8515625
vt 0.2734375 0.8671875
vt 0.2578125 0.8671875
vt 0.2578125 0.8515625
vt 0.3046875 0.8671875
vt 0.2890625 0.8671875
vt 0.2890625 0.8515625
vt 0.3359375 0.8671875
vt 0.3203125 0.8671875
vt 0.3203125 0.8515625
vt 0.3671875 0.8671875
vt 0.3515625 0.8671875
vt 0.3515625 0.8515625
vt 0.3984375 0.8671875
vt 0.3828125 0.8671875
vt 0.3828125 0.8515625
vt 0.4296875 0.8671875
vt 0.4140625 0.8671875
vt 0.4140625 0.8515625
vt 0.4609375 0.8671875
vt 0.4453125 0.8671875
vt 0.4453125 0.8515625
vt 0.4921875 0.8671875
vt 0.4765625 0.8671875
vt 0.4765625 0.8515625
vt 0.5234375 0.8671875
vt 0.5078125 0.8671875
vt 0.5078125 0.8515625
vt 0.5546875 0.8671875
vt 0.5390625 0.8671875
vt 0.5390625 0.8515625
vt 0.5859375 0.8671875
vt 0.5703125 0.8671875
vt 0.5703125 0.8515625
vt 0.6171875 0.8671875
vt 0.6015625 0.8671875
vt 0.6015625 0.8515625
vt 0.6484375 0.8671875
vt 0.6328125 0.8671875
vt 0.6328125 0.8515625
vt 0.6796875 0.8671875
vt 0.6640625 0.8671875
vt 0.6640625 0.8515625
vt 0.7109375 0.8671875
vt 0.6953125 0.8671875
vt 0.6953125 0.8515625
vt 0.7421875 0.8671875
vt 0.7265625 0.8671875
vt 0.7265625 0.8515625
vt 0.7734375 0.8671875
vt 0.7578125 0.8671875
vt 0.7578125 0.8515625
vt 0.8046875 0.8671875
vt 0.7890625 0.8671875
vt 0.7890625 0.8515625
vt 0.8359375 0.8671875
vt 0.8203125 0.8671875
vt 0.8203125 0.8515625
vt 0.8671875 0.8671875
vt 0.8515625 0.8671875
vt 0.8515625 0.8515625
vt 0.8984375 0.8671875
vt 0.8828125 0.8671875
vt 0.8828125 0.8515625
vt 0.9296875 0.8671875
vt 0.9140625 0.8671875
vt 0.9140625 0.8515625
vt 0.9609375 0.8671875
vt 0.9453125 0.8671875
vt 0.9453125 0.8515625
vt 0.9921875 0.8671875
vt 0.9765625 0.8671875
vt 0.9765625 0.8515625
vt 0.0234375 0.8359375
vt 0.0078125 0.8359375
vt 0.0078125 0.8203125
vt 0.0234375 0.8203125
vt 0.0546875 0.8359375
vt 0.0390625 0.8359375
vt 0.0390625 0.8203125
vt 0.0546875 0.8203125
vt 0.0859375 0.8359375
vt 0.0703125 0.8359375
vt 0.0703125 0.8203125
vt 0.0859375 0.8203125
vt 0.1171875 0.8359375
vt 0.1015625 0.8359375
vt 0.1015625 0.8203125
vt 0.1171875 0.8203125
vt 0.1484375 0.8359375
vt 0.1328125 0.8359375
vt 0.1328125 0.8203125
vt 0.1484375 0.8203125
vt 0.1796875 0.8359375
vt 0.1640625 0.8359375
vt 0.1640625 0.8203125
vt 0.1796875 0.8203125
vt 0.2109375 0.8359375
vt 0.1953125 0.8359375
vt 0.1953125 0.8203125
vt 0.2109375 0.8203125
vt 0.2421875 0.8359375
vt 0.2265625 0.8359375
vt 0.2265625 0.8203125
vt 0.2421875 0.8203125
vt 0.2734375 0.8359375
vt 0.2578125 0.8359375
vt 0.2578125 0.8203125
vt 0.2734375 0.8203125
vt 0.3046875 0.8359375
vt 0.2890625 0.8359375
vt 0.2890625 0.8203125
vt 0.3046875 0.8203125
vt 0.3359375 0.8359375
vt 0.3203125 0.8359375
vt 0.3203125 0.8203125
vt 0.3359375 0.8203125
vt 0.3671875 0.8359375
vt 0.3515625 0.8359375
vt 0.3515625 0.8203125
vt 0.3671875 0.8203125
vt 0.3984375 0.8359375
vt 0.3828125 0.8359375
vt 0.3828125 0.8203125
vt 0.3984375 0.8203125
vt 0.4296875 0.8359375
vt 0.4140625 0.8359375
vt 0.4140625 0.8203125
vt 0.4296875 0.8203125
vt 0.4609375 0.8359375
vt 0.4453125 0.8359375
vt 0.4453125 0.8203125
vt 0.4609375 0.8203125
vt 0.4921875 0.8359375
vt 0.4765625 0.8359375
vt 0.4765625 0.8203125
vt 0.4921875 0.8203125
vt 0.5234375 0.8359375
vt 0.5078125 0.8359375
vt 0.5078125 0.8203125
vt 0.5234375 0.8203125
vt 0.5546875 0.8359375
vt 0.5390625 0.8359375
vt 0.5390625 0.8203125
vt 0.5546875 0.8203125
vt 0.5859375 0.8359375
vt 0.5703125 0.8359375
vt 0.5703125 0.8203125
vt 0.5859375 0.8203125
vt 0.6171875 0.8359375
vt 0.6015625 0.8359375
vt 0.6015625 0.8203125
vt 0.6171875 0.8203125
vt 0.6484375 0.8359375
vt 0.6328125 0.8359375
vt 0.6328125 0.8203125
vt 0.6484375 0.8203125
vt 0.6796875 0.8359375
vt 0.6640625 0.8359375
vt 0.6640625 0.8203125
vt 0.6796875 0.8203125
vt 0.7109375 0.8359375
vt 0.6953125 0.8359375
vt 0.6953125 0.8203125
vt 0.7109375 0.8203125
vt 0.7421875 0.8359375
vt 0.7265625 0.8359375
vt 0.7265625 0.8203125
vt 0.7421875 0.8203125
vt 0.7734375 0.8359375
vt 0.7578125 0.8359375
vt 0.7578125 0.8203125
vt 0.7734375 0.8203125
vt 0.8046875 0.8359375
vt 0.7890625 0.8359375
vt 0.7890625 0.8203125
vt 0.8046875 0.8203125
vt 0.8359375 0.8359375
vt 0.8203125 0.8359375
vt 0.8203125 0.8203125
vt 0.8359375 0.8203125
vt 0.8671875 0.8359375
vt 0.8515625 0.8359375
vt 0.8515625 0.8203125
vt 0.8671875 0.8203125
vt 0.8984375 0.8359375
vt 0.8828125 0.8359375
vt 0.8828125 0.8203125
vt 0.8984375 0.8203125
vt 0.9296875 0.8359375
vt 0.9140625 0.8359375
vt 0.9140625 0.8203125
vt 0.9296875 0.8203125
vt 0.9609375 0.8359375
vt 0.9453125 0.8359375
vt 0.9453125 0.8203125
vt 0.9609375 0.8203125
vt 0.9921875 0.8359375
vt 0.9765625 0.8359375
vt 0.9765625 0.8203125
vt 0.9921875 0.8203125
vt 0.0234375 0.8046875
vt 0.0078125 0.8046875
vt 0.0078125 0.7890625
vt 0.0546875 0.8046875
vt 0.0390625 0.8046875
vt 0.0390625 0.7890625
vt 0.0859375 0.8046875
vt 0.0703125 0.8046875
vt 0.0703125 0.7890625
vt 0.1171875 0.8046875
vt 0.1015625 0.8046875
vt 0.1015625 0.7890625
vt 0.1484375 0.8046875
vt 0.1328125 0.8046875
vt 0.1328125 0.7890625
vt 0.1796875 0.8046875
vt 0.1640625 0.8046875
vt 0.1640625 0.7890625
vt 0.2109375 0.8046875
vt 0.1953125 0.8046875
vt 0.1953125 0.7890625
vt 0.2421875 0.8046875
vt 0.2265625 0.8046875
vt 0.2265625 0.7890625
vt 0.2734375 0.8046875
vt 0.2578125 0.8046875
vt 0.2578125 0.7890625
vt 0.3046875 0.8046875
vt 0.2890625 0.8046875
vt 0.2890625 0.7890625
vt 0.3359375 0.8046875
vt 0.3203125 0.8046875
vt 0.3203125 0.7890625
vt 0.3671875 0.8046875
vt 0.3515625 0.8046875
vt 0.3515625 0.7890625
vt 0.3984375 0.8046875
vt 0.3828125 0.8046875
vt 0.3828125 0.7890625
vt 0.4296875 0.8046875
vt 0.4140625 0.8046875
vt 0.4140625 0.7890625
vt 0.4609375 0.8046875
vt 0.4453125 0.8046875
vt 0.4453125 0.7890625
vt 0.4921875 0.8046875
vt 0.4765625 0.8046875
vt 0.4765625 0.7890625
vt 0.5234375 0.8046875
vt 0.5078125 0.8046875
vt 0.5078125 0.7890625
vt 0.5546875 0.8046875
vt 0.5390625 0.8046875
vt 0.5390625 0.7890625
vt 0.5859375 0.8046875
vt 0.5703125 0.8046875
vt 0.5703125 0.7890625
vt 0.6171875 0.8046875
vt 0.6015625 0.8046875
vt 0.6015625 0.7890625
vt 0.6484375 0.8046875
vt 0.6328125 0.8046875
vt 0.6328125 0.7890625
vt 0.6796875 0.8046875
vt 0.6640625 0.8046875
vt 0.6640625 0.7890625
vt 0.7109375 0.8046875
vt 0.6953125 0.8046875
vt 0.6953125 0.7890625
vt 0.7421875 0.8046875
vt 0.7265625 0.8046875
vt 0.7265625 0.7890625
vt 0.7734375 0.8046875
vt 0.7578125 0.8046875
vt 0.7578125 0.7890625
vt 0.8046875 0.8046875
vt 0.7890625 0.8046875
vt 0.7890625 0.7890625
vt 0.8359375 0.8046875
vt 0.8203125 0.8046875
vt 0.8203125 0.7890625
vt 0.8671875 0.8046875
vt 0.8515625 0.8046875
vt 0.8515625 0.7890625
vt 0.8984375 0.8046875
vt 0.8828125 0.8046875
vt 0.8828125 0.7890625
vt 0.9296875 0.8046875
vt 0.9140625 0.8046875
vt 0.9140625 0.7890625
vt 0.9609375 0.8046875
vt 0.9453125 0.8046875
vt 0.9453125 0.7890625
vt 0.9921875 0.8046875
vt 0.9765625 0.8046875
vt 0.9765625 0.7890625
vn 0 0 -1
vn 0 0 -1
vn 0 0 -1
vn 0 0 -1
vn 0 0 -1
vn 0 0 -1
vn 0 0 -1
vn 0 0 -1
vn 0 0 -1
vn 0 0 -1
vn 0 0 -1
vn 0 0 -1
vn 0 0 -1
vn 0 0 -1
vn 0 0 -1
vn 0 0 -1
vn 0 0 -1
vn 0 0 -1
vn 0 0 -1
vn 0 0 -1
vn 0 0 -1
vn 0 0 -1
vn 0 0 -1
vn 0 0 -1
vn 0 0 -1
vn 0 0 -1
vn 0 0 -1
vn 0 0 -1
vn 0 0 -1
vn 0 0 -1
vn 0 0 -1
vn 0 0 -1
vn 0.9947287697796201 0.10254108724176643 0
vn 0.6239598048231653 0.7814564363833966 0
vn 0.9105906699275581 0.4133093657792926 0
vn -0.161276366025732 0.9869092834508825 0
vn -0.8097597700155889 0.5867615485563967 0
vn -0.4849282630165378 0.8745539318577007 0
vn 0.22213932464322056 0.9750149334482288 0
vn -0.9866431738927437 0.16289643154732797 0
vn -0.9145370933012413 -0.404502045700781 0
vn -0.22782156858141164 -0.9737028976485104 0
vn -0.6357267699443527 -0.771914162310888 0
vn 0.6371808284795293 -0.7707143386613102 0
vn 0.9946164683102868 -0.10362471213939502 0
vn 0.9128985752140264 -0.4081864664245994 0
vn 0.23099750276242867 -0.9729543430796339 0
vn -0.9949554865461556 -0.10031739525975952 0
vn -0.9889163212521771 0.14847393562865183 0
vn -0.5048570414941121 0.8632029701372745 0
vn -0.8280000925234875 0.5607279614760585 0
vn 0.17759695841809386 0.9841033077683673 0
vn 0.8322867711041748 0.5543453171489656 0
vn 0.5203276927771684 0.8539666809244895 0
vn -0.16878677625532407 0.985652587964611 0
vn 0.9880958410099578 0.15383955596277568 0
vn 0.8211972064815792 -0.5706445023540055 0
vn 0.166301905236693 -0.9860748837256966 0
vn 0.4979041324298956 -0.8672320767298872 0
vn -0.5071916816389486 -0.8618332774245001 0
vn -0.9880563793757687 -0.15409280052892466 0
vn -0.826520147019302 -0.562907138497276 0
vn -0.1707231561071283 -0.985319036641849 0
vn 0.9881869989048294 -0.1532529125187078 0
vn 0 0 1
vn 0 0 1
vn 0 0 1
vn 0 0 1
vn 0 0 1
vn 0 0 1
vn 0 0 1
vn 0 0 1
vn 0 0 1
vn 0 0 1
vn 0 0 1
vn 0 0 1
vn 0 0 1
vn 0 0 1
vn 0 0 1
vn 0 0 1
vn 0 0 1
vn 0 0 1
vn 0 0 1
vn 0 0 1
vn 0 0 1
vn 0 0 1
vn 0 0 1
vn 0 0 1
vn 0 0 1
vn 0 0 1
vn 0 0 1
vn 0 0 1
vn 0 0 1
vn 0 0 1
vn 0 0 1
vn 0 0 1
usemtl m_4b849320-4799-cf9b-ebe8-09502049e1f1
f 149/753/231 150/754/231 151/755/231
f 150/756/232 149/757/232 152/758/232
f 153/759/233 149/760/233 151/761/233
f 154/762/234 150/763/234 152/764/234
f 155/765/235 156/766/235 157/767/235
f 158/768/236 157/769/236 156/770/236
f 158/771/237 156/772/237 153/773/237
f 151/774/238 158/775/238 153/776/238
f 159/777/239 154/778/239 152/779/239
f 159/780/240 160/781/240 161/782/240
f 162/783/241 161/784/241 160/785/241
f 152/786/242 160/787/242 159/788/242
f 163/789/243 162/790/243 164/791/243
f 165/792/244 166/793/244 164/794/244
f 163/795/245 164/796/245 166/797/245
f 161/798/246 162/799/246 163/800/246
f 167/801/247 157/802/247 168/803/247
f 168/804/248 169/805/248 167/806/248
f 169/807/249 168/808/249 170/809/249
f 169/810/250 170/811/250 171/812/250
f 172/813/251 171/814/251 170/815/251
f 173/816/252 174/817/252 172/818/252
f 171/819/253 172/820/253 174/821/253
f 175/822/254 176/823/254 177/824/254
f 176/825/255 175/826/255 166/827/255
f 175/828/256 177/829/256 178/830/256
f 166/831/257 165/832/257 176/833/257
f 174/834/258 179/835/258 180/836/258
f 179/837/259 178/838/259 180/839/259
f 177/840/260 180/841/260 178/842/260
f 173/843/261 179/844/261 174/845/261
f 157/846/262 167/847/262 155/848/262
f 172/849/263 181/850/263 182/851/263 173/852/263
f 168/853/264 183/854/264 184/855/264 170/856/264
f 170/857/265 184/858/265 181/859/265 172/860/265
f 158/861/266 185/862/266 186/863/266 157/864/266
f 150/865/267 187/866/267 188/867/267 151/868/267
f 151/869/268 188/870/268 185/871/268 158/872/268
f 157/873/269 186/874/269 183/875/269 168/876/269
f 154/877/270 189/878/270 187/879/270 150/880/270
f 161/881/271 190/882/271 191/883/271 159/884/271
f 166/885/272 192/886/272 193/887/272 163/888/272
f 163/889/273 193/890/273 190/891/273 161/892/273
f 178/893/274 194/894/274 195/895/274 175/896/274
f 173/897/275 182/898/275 196/899/275 179/900/275
f 179/901/276 196/902/276 194/903/276 178/904/276
f 175/905/277 195/906/277 192/907/277 166/908/277
f 159/909/278 191/910/278 189/911/278 154/912/278
f 180/913/279 197/914/279 198/915/279 174/916/279
f 176/917/280 199/918/280 200/919/280 177/920/280
f 177/921/281 200/922/281 197/923/281 180/924/281
f 164/925/282 201/926/282 202/927/282 165/928/282
f 160/929/283 203/930/283 204/931/283 162/932/283
f 162/933/284 204/934/284 201/935/284 164/936/284
f 165/937/285 202/938/285 199/939/285 176/940/285
f 152/941/286 205/942/286 203/943/286 160/944/286
f 153/945/287 206/946/287 207/947/287 149/948/287
f 155/949/288 208/950/288 209/951/288 156/952/288
f 156/953/289 209/954/289 206/955/289 153/956/289
f 169/957/290 210/958/290 211/959/290 167/960/290
f 174/961/291 198/962/291 212/963/291 171/964/291
f 171/965/292 212/966/292 210/967/292 169/968/292
f 167/969/293 211/970/293 208/971/293 155/972/293
f 149/973/294 207/974/294 205/975/294 152/976/294
f 207/977/295 188/978/295 187/979/295
f 187/980/296 205/981/296 207/982/296
f 206/983/297 188/984/297 207/985/297
f 189/986/298 205/987/298 187/988/298
f 208/989/299 186/990/299 209/991/299
f 185/992/300 209/993/300 186/994/300
f 185/995/301 206/996/301 209/997/301
f 188/998/302 206/999/302 185/1000/302
f 191/1001/303 205/1002/303 189/1003/303
f 191/1004/304 190/1005/304 203/1006/304
f 204/1007/305 203/1008/305 190/1009/305
f 205/1010/306 191/1011/306 203/1012/306
f 193/1013/307 201/1014/307 204/1015/307
f 202/1016/308 201/1017/308 192/1018/308
f 193/1019/309 192/1020/309 201/1021/309
f 190/1022/310 193/1023/310 204/1024/310
f 211/1025/311 183/1026/311 186/1027/311
f 183/1028/312 211/1029/312 210/1030/312
f 210/1031/313 184/1032/313 183/1033/313
f 210/1034/314 212/1035/314 184/1036/314
f 181/1037/315 184/1038/315 212/1039/315
f 182/1040/316 181/1041/316 198/1042/316
f 212/1043/317 198/1044/317 181/1045/317
f 195/1046/318 200/1047/318 199/1048/318
f 199/1049/319 192/1050/319 195/1051/319
f 195/1052/320 194/1053/320 200/1054/320
f 192/1055/321 199/1056/321 202/1057/321
f 198/1058/322 197/1059/322 196/1060/322
f 196/1061/323 197/1062/323 194/1063/323
f 200/1064/324 194/1065/324 197/1066/324
f 182/1067/325 198/1068/325 196/1069/325
f 186/1070/326 208/1071/326 211/1072/326
o object_5
v 0.797953125 0.447670625 0
v 0.797953125 0.011938125000000022 0
v 0.751169375 0.011938125000000022 0
v 0.797953125 0.5252675 0
v 0.92037625 0.528825625 0
v 0.88823125 0.447670625 0
v 0.892708125 0.5252675 0
v 0.93693375 0.4591425 0
v 1.0252925 0.011938125000000022 0
v 0.751169375 1.02665875 0
v 0.797953125 0.9490624999999999 0
v 0.89421625 1.02665875 0
v 0.889875625 0.9490624999999999 0
v 0.94394625 0.9355506250000001 0
v 0.932300625 1.021919375 0
v 0.965870625 1.0077025 0
v 0.944854375 0.539501875 0
v 0.9842425 0.5822056250000001 0
v 0.9891425 0.490549375 0
v 1.02954125 0.551568125 0
v 1.064035 0.741455 0
v 1.008999375 0.65032375 0
v 1.08157875 0.011938125000000022 0
v 0.9840825 0.895015625 0
v 1.0194675 0.950834375 0
v 1.008959375 0.82943875 0
v 1.052893125 0.8605775 0
v 1.01725125 0.740801875 0
v 0.751169375 1.02665875 0.05
v 0.89421625 1.02665875 0.05
v 0.932300625 1.021919375 0.05
v 0.965870625 1.0077025 0.05
v 1.0194675 0.950834375 0.05
v 1.052893125 0.8605775 0.05
v 1.064035 0.741455 0.05
v 0.751169375 0.011938125000000022 0.025
v 0.751169375 0.011938125000000022 0.05
v 0.797953125 0.011938125000000022 0.025
v 0.797953125 0.011938125000000022 0.05
v 0.797953125 0.447670625 0.05
v 0.88823125 0.447670625 0.05
v 1.0252925 0.011938125000000022 0.025
v 1.0252925 0.011938125000000022 0.05
v 1.08157875 0.011938125000000022 0.025
v 1.08157875 0.011938125000000022 0.05
v 0.93693375 0.4591425 0.05
v 1.02954125 0.551568125 0.05
v 0.9891425 0.490549375 0.05
v 0.797953125 0.5252675 0.025
v 0.92037625 0.528825625 0.05
v 0.944854375 0.539501875 0.05
v 0.892708125 0.5252675 0.05
v 0.797953125 0.5252675 0.05
v 0.9842425 0.5822056250000001 0.05
v 1.008999375 0.65032375 0.05
v 1.01725125 0.740801875 0.025
v 1.01725125 0.740801875 0.05
v 0.797953125 0.9490624999999999 0.05
v 1.008959375 0.82943875 0.05
v 0.9840825 0.895015625 0.05
v 0.94394625 0.9355506250000001 0.05
v 0.889875625 0.9490624999999999 0.05
vt 0.8359375 0.9921875
vt 0.8203125 0.9921875
vt 0.8203125 0.9765625
vt 0.8671875 0.9921875
vt 0.8515625 0.9921875
vt 0.8515625 0.9765625
vt 0.8984375 0.9921875
vt 0.8828125 0.9921875
vt 0.8828125 0.9765625
vt 0.9296875 0.9921875
vt 0.9140625 0.9921875
vt 0.9140625 0.9765625
vt 0.9609375 0.9921875
vt 0.9453125 0.9921875
vt 0.9453125 0.9765625
vt 0.9921875 0.9921875
vt 0.9765625 0.9921875
vt 0.9765625 0.9765625
vt 0.0234375 0.9609375
vt 0.0078125 0.9609375
vt 0.0078125 0.9453125
vt 0.0546875 0.9609375
vt 0.0390625 0.9609375
vt 0.0390625 0.9453125
vt 0.0859375 0.9609375
vt 0.0703125 0.9609375
vt 0.0703125 0.9453125
vt 0.1171875 0.9609375
vt 0.1015625 0.9609375
vt 0.1015625 0.9453125
vt 0.1484375 0.9609375
vt 0.1328125 0.9609375
vt 0.1328125 0.9453125
vt 0.1796875 0.9609375
vt 0.1640625 0.9609375
vt 0.1640625 0.9453125
vt 0.2109375 0.9609375
vt 0.1953125 0.9609375
vt 0.1953125 0.9453125
vt 0.2421875 0.9609375
vt 0.2265625 0.9609375
vt 0.2265625 0.9453125
vt 0.2734375 0.9609375
vt 0.2578125 0.9609375
vt 0.2578125 0.9453125
vt 0.3046875 0.9609375
vt 0.2890625 0.9609375
vt 0.2890625 0.9453125
vt 0.3359375 0.9609375
vt 0.3203125 0.9609375
vt 0.3203125 0.9453125
vt 0.3671875 0.9609375
vt 0.3515625 0.9609375
vt 0.3515625 0.9453125
vt 0.3984375 0.9609375
vt 0.3828125 0.9609375
vt 0.3828125 0.9453125
vt 0.4296875 0.9609375
vt 0.4140625 0.9609375
vt 0.4140625 0.9453125
vt 0.4609375 0.9609375
vt 0.4453125 0.9609375
vt 0.4453125 0.9453125
vt 0.4921875 0.9609375
vt 0.4765625 0.9609375
vt 0.4765625 0.9453125
vt 0.5234375 0.9609375
vt 0.5078125 0.9609375
vt 0.5078125 0.9453125
vt 0.5546875 0.9609375
vt 0.5390625 0.9609375
vt 0.5390625 0.9453125
vt 0.5859375 0.9609375
vt 0.5703125 0.9609375
vt 0.5703125 0.9453125
vt 0.6171875 0.9609375
vt 0.6015625 0.9609375
vt 0.6015625 0.9453125
vt 0.6484375 0.9609375
vt 0.6328125 0.9609375
vt 0.6328125 0.9453125
vt 0.6796875 0.9609375
vt 0.6640625 0.9609375
vt 0.6640625 0.9453125
vt 0.7109375 0.9609375
vt 0.6953125 0.9609375
vt 0.6953125 0.9453125
vt 0.7109375 0.9453125
vt 0.7421875 0.9609375
vt 0.7265625 0.9609375
vt 0.7265625 0.9453125
vt 0.7421875 0.9453125
vt 0.7734375 0.9609375
vt 0.7578125 0.9609375
vt 0.7578125 0.9453125
vt 0.7734375 0.9453125
vt 0.8046875 0.9609375
vt 0.7890625 0.9609375
vt 0.7890625 0.9453125
vt 0.8046875 0.9453125
vt 0.8359375 0.9609375
vt 0.8203125 0.9609375
vt 0.8203125 0.9453125
vt 0.8359375 0.9453125
vt 0.8671875 0.9609375
vt 0.8515625 0.9609375
vt 0.8515625 0.9453125
vt 0.8671875 0.9453125
vt 0.8984375 0.9609375
vt 0.8828125 0.9609375
vt 0.8828125 0.9453125
vt 0.9296875 0.9609375
vt 0.9140625 0.9609375
vt 0.9140625 0.9453125
vt 0.9609375 0.9609375
vt 0.9453125 0.9609375
vt 0.9453125 0.9453125
vt 0.9921875 0.9609375
vt 0.9765625 0.9609375
vt 0.9765625 0.9453125
vt 0.9921875 0.9453125
vt 0.0234375 0.9296875
vt 0.0078125 0.9296875
vt 0.0078125 0.9140625
vt 0.0234375 0.9140625
vt 0.0546875 0.9296875
vt 0.0390625 0.9296875
vt 0.0390625 0.9140625
vt 0.0859375 0.9296875
vt 0.0703125 0.9296875
vt 0.0703125 0.9140625
vt 0.1171875 0.9296875
vt 0.1015625 0.9296875
vt 0.1015625 0.9140625
vt 0.1484375 0.9296875
vt 0.1328125 0.9296875
vt 0.1328125 0.9140625
vt 0.1484375 0.9140625
vt 0.1796875 0.9296875
vt 0.1640625 0.9296875
vt 0.1640625 0.9140625
vt 0.2109375 0.9296875
vt 0.1953125 0.9296875
vt 0.1953125 0.9140625
vt 0.2421875 0.9296875
vt 0.2265625 0.9296875
vt 0.2265625 0.9140625
vt 0.2734375 0.9296875
vt 0.2578125 0.9296875
vt 0.2578125 0.9140625
vt 0.2734375 0.9140625
vt 0.3046875 0.9296875
vt 0.2890625 0.9296875
vt 0.2890625 0.9140625
vt 0.3046875 0.9140625
vt 0.3359375 0.9296875
vt 0.3203125 0.9296875
vt 0.3203125 0.9140625
vt 0.3671875 0.9296875
vt 0.3515625 0.9296875
vt 0.3515625 0.9140625
vt 0.3984375 0.9296875
vt 0.3828125 0.9296875
vt 0.3828125 0.9140625
vt 0.4296875 0.9296875
vt 0.4140625 0.9296875
vt 0.4140625 0.9140625
vt 0.4296875 0.9140625
vt 0.4609375 0.9296875
vt 0.4453125 0.9296875
vt 0.4453125 0.9140625
vt 0.4609375 0.9140625
vt 0.4921875 0.9296875
vt 0.4765625 0.9296875
vt 0.4765625 0.9140625
vt 0.4921875 0.9140625
vt 0.5234375 0.9296875
vt 0.5078125 0.9296875
vt 0.5078125 0.9140625
vt 0.5546875 0.9296875
vt 0.5390625 0.9296875
vt 0.5390625 0.9140625
vt 0.5546875 0.9140625
vt 0.5859375 0.9296875
vt 0.5703125 0.9296875
vt 0.5703125 0.9140625
vt 0.5859375 0.9140625
vt 0.6171875 0.9296875
vt 0.6015625 0.9296875
vt 0.6015625 0.9140625
vt 0.6484375 0.9296875
vt 0.6328125 0.9296875
vt 0.6328125 0.9140625
vt 0.6796875 0.9296875
vt 0.6640625 0.9296875
vt 0.6640625 0.9140625
vt 0.6796875 0.9140625
vt 0.7109375 0.9296875
vt 0.6953125 0.9296875
vt 0.6953125 0.9140625
vt 0.7421875 0.9296875
vt 0.7265625 0.9296875
vt 0.7265625 0.9140625
vt 0.7734375 0.9296875
vt 0.7578125 0.9296875
vt 0.7578125 0.9140625
vt 0.7734375 0.9140625
vt 0.8046875 0.9296875
vt 0.7890625 0.9296875
vt 0.7890625 0.9140625
vt 0.8359375 0.9296875
vt 0.8203125 0.9296875
vt 0.8203125 0.9140625
vt 0.8671875 0.9296875
vt 0.8515625 0.9296875
vt 0.8515625 0.9140625
vt 0.8984375 0.9296875
vt 0.8828125 0.9296875
vt 0.8828125 0.9140625
vt 0.9296875 0.9296875
vt 0.9140625 0.9296875
vt 0.9140625 0.9140625
vt 0.9609375 0.9296875
vt 0.9453125 0.9296875
vt 0.9453125 0.9140625
vt 0.9609375 0.9140625
vt 0.9921875 0.9296875
vt 0.9765625 0.9296875
vt 0.9765625 0.9140625
vt 0.0234375 0.8984375
vt 0.0078125 0.8984375
vt 0.0078125 0.8828125
vt 0.0546875 0.8984375
vt 0.0390625 0.8984375
vt 0.0390625 0.8828125
vt 0.0546875 0.8828125
vt 0.0859375 0.8984375
vt 0.0703125 0.8984375
vt 0.0703125 0.8828125
vt 0.0859375 0.8828125
vt 0.1171875 0.8984375
vt 0.1015625 0.8984375
vt 0.1015625 0.8828125
vt 0.1171875 0.8828125
vt 0.1484375 0.8984375
vt 0.1328125 0.8984375
vt 0.1328125 0.8828125
vt 0.1796875 0.8984375
vt 0.1640625 0.8984375
vt 0.1640625 0.8828125
vt 0.2109375 0.8984375
vt 0.1953125 0.8984375
vt 0.1953125 0.8828125
vt 0.2421875 0.8984375
vt 0.2265625 0.8984375
vt 0.2265625 0.8828125
vt 0.2734375 0.8984375
vt 0.2578125 0.8984375
vt 0.2578125 0.8828125
vt 0.3046875 0.8984375
vt 0.2890625 0.8984375
vt 0.2890625 0.8828125
vt 0.3359375 0.8984375
vt 0.3203125 0.8984375
vt 0.3203125 0.8828125
vt 0.3671875 0.8984375
vt 0.3515625 0.8984375
vt 0.3515625 0.8828125
vt 0.3984375 0.8984375
vt 0.3828125 0.8984375
vt 0.3828125 0.8828125
vt 0.4296875 0.8984375
vt 0.4140625 0.8984375
vt 0.4140625 0.8828125
vt 0.4609375 0.8984375
vt 0.4453125 0.8984375
vt 0.4453125 0.8828125
vt 0.4921875 0.8984375
vt 0.4765625 0.8984375
vt 0.4765625 0.8828125
vt 0.5234375 0.8984375
vt 0.5078125 0.8984375
vt 0.5078125 0.8828125
vt 0.5546875 0.8984375
vt 0.5390625 0.8984375
vt 0.5390625 0.8828125
vt 0.5859375 0.8984375
vt 0.5703125 0.8984375
vt 0.5703125 0.8828125
vt 0.6171875 0.8984375
vt 0.6015625 0.8984375
vt 0.6015625 0.8828125
vt 0.6484375 0.8984375
vt 0.6328125 0.8984375
vt 0.6328125 0.8828125
vt 0.6796875 0.8984375
vt 0.6640625 0.8984375
vt 0.6640625 0.8828125
vt 0.7109375 0.8984375
vt 0.6953125 0.8984375
vt 0.6953125 0.8828125
vt 0.7421875 0.8984375
vt 0.7265625 0.8984375
vt 0.7265625 0.8828125
vt 0.7734375 0.8984375
vt 0.7578125 0.8984375
vt 0.7578125 0.8828125
vt 0.8046875 0.8984375
vt 0.7890625 0.8984375
vt 0.7890625 0.8828125
vt 0.8359375 0.8984375
vt 0.8203125 0.8984375
vt 0.8203125 0.8828125
vt 0.8671875 0.8984375
vt 0.8515625 0.8984375
vt 0.8515625 0.8828125
vt 0.8984375 0.8984375
vt 0.8828125 0.8984375
vt 0.8828125 0.8828125
vt 0.9296875 0.8984375
vt 0.9140625 0.8984375
vt 0.9140625 0.8828125
vt 0.9609375 0.8984375
vt 0.9453125 0.8984375
vt 0.9453125 0.8828125
vt 0.9921875 0.8984375
vt 0.9765625 0.8984375
vt 0.9765625 0.8828125
vn 0 0 -1
vn 0 0 -1
vn 0 0 -1
vn 0 0 -1
vn 0 0 -1
vn 0 0 -1
vn 0 0 -1
vn 0 0 -1
vn 0 0 -1
vn 0 0 -1
vn 0 0 -1
vn 0 0 -1
vn 0 0 -1
vn 0 0 -1
vn 0 0 -1
vn 0 0 -1
vn 0 0 -1
vn 0 0 -1
vn 0 0 -1
vn 0 0 -1
vn 0 0 -1
vn 0 0 -1
vn 0 0 -1
vn 0 0 -1
vn 0 0 -1
vn 0 0 -1
vn 0 0 -1
vn 0 0 -1
vn 0 1 0
vn 0.12349153813870714 0.9923456252778748 0
vn 0.3899699355091379 0.9208275893993396 0
vn 0.9377583951309875 0.3472883418160691 0
vn 0.9956542894798164 0.09312645080986387 0
vn 0.7277276312385454 0.6858662367633617 0
vn -1 0 0
vn -1 0 0
vn -1 0 0
vn 0 -1 0
vn 0 -1 0
vn 1 0 0
vn 1 0 0
vn 1 0 0
vn 0 -1 0
vn -0.9539205805547324 -0.3000592041483186 0
vn -0.9539205805547324 -0.3000592041483186 0
vn -0.9539205805547324 -0.3000592041483186 0
vn 0 -1 0
vn 0 -1 0
vn 0.9514686728378717 0.3077456167163704 0
vn 0.9514686728378717 0.3077456167163704 0
vn 0.9514686728378717 0.3077456167163704 0
vn 0.983898292309511 -0.17872926562381514 0
vn 0.8338146176614228 -0.5520445483601261 0
vn 0.5154804966040192 -0.8569013114827598 0
vn 0 1 0
vn -0.3997835934612383 0.9166095561356642 0
vn -0.1275497651890879 0.9918321719929277 0
vn 0 1 0
vn 0 1 0
vn -0.9398525770576863 0.3415803469142011 0
vn -0.9958667751168152 0.09082602170322483 0
vn -0.9958667751168152 0.09082602170322483 0
vn -0.7350669486490384 0.6779945287417827 0
vn -0.9958667751168152 0.09082602170322483 0
vn 1 0 0
vn 1 0 0
vn 1 0 0
vn -0.9956528213530609 -0.09314214584005528 0
vn -0.9349838717527346 -0.3546902304296894 0
vn -0.9956528213530609 -0.09314214584005528 0
vn -0.9956528213530609 -0.09314214584005528 0
vn -0.242437995025108 -0.9701669024287551 0
vn 0 -1 0
vn -0.710593259332085 -0.7036030271337698 0
vn 0 0 1
vn 0 0 1
vn 0 0 1
vn 0 0 1
vn 0 0 1
vn 0 0 1
vn 0 0 1
vn 0 0 1
vn 0 0 1
vn 0 0 1
vn 0 0 1
vn 0 0 1
vn 0 0 1
vn 0 0 1
vn 0 0 1
vn 0 0 1
vn 0 0 1
vn 0 0 1
vn 0 0 1
vn 0 0 1
vn 0 0 1
vn 0 0 1
vn 0 0 1
vn 0 0 1
vn 0 0 1
vn 0 0 1
vn 0 0 1
vn 0 0 1
usemtl m_4b849320-4799-cf9b-ebe8-09502049e1f1
f 213/1073/327 214/1074/327 215/1075/327
f 216/1076/328 213/1077/328 215/1078/328
f 217/1079/329 218/1080/329 219/1081/329
f 218/1082/330 220/1083/330 221/1084/330
f 218/1085/331 216/1086/331 219/1087/331
f 217/1088/332 220/1089/332 218/1090/332
f 213/1091/333 216/1092/333 218/1093/333
f 222/1094/334 216/1095/334 215/1096/334
f 223/1097/335 222/1098/335 224/1099/335
f 223/1100/336 216/1101/336 222/1102/336
f 225/1103/337 223/1104/337 224/1105/337
f 226/1106/338 225/1107/338 227/1108/338
f 227/1109/339 225/1110/339 224/1111/339
f 227/1112/340 228/1113/340 226/1114/340
f 229/1115/341 220/1116/341 217/1117/341
f 230/1118/342 231/1119/342 229/1120/342
f 231/1121/343 220/1122/343 229/1123/343
f 232/1124/344 231/1125/344 230/1126/344
f 233/1127/345 232/1128/345 234/1129/345
f 232/1130/346 230/1131/346 234/1132/346
f 220/1133/347 235/1134/347 221/1135/347
f 236/1136/348 228/1137/348 237/1138/348
f 236/1139/349 226/1140/349 228/1141/349
f 238/1142/350 236/1143/350 237/1144/350
f 239/1145/351 233/1146/351 240/1147/351
f 234/1148/352 240/1149/352 233/1150/352
f 239/1151/353 238/1152/353 237/1153/353
f 240/1154/354 238/1155/354 239/1156/354
f 224/1157/355 222/1158/355 241/1159/355 242/1160/355
f 227/1161/356 224/1162/356 242/1163/356 243/1164/356
f 228/1165/357 227/1166/357 243/1167/357 244/1168/357
f 239/1169/358 237/1170/358 245/1171/358 246/1172/358
f 233/1173/359 239/1174/359 246/1175/359 247/1176/359
f 237/1177/360 228/1178/360 244/1179/360 245/1180/360
f 222/1181/361 215/1182/361 248/1183/361
f 249/1184/362 241/1185/362 248/1186/362
f 222/1187/363 248/1188/363 241/1189/363
f 250/1190/364 248/1191/364 215/1192/364 214/1193/364
f 251/1194/365 249/1195/365 248/1196/365 250/1197/365
f 250/1198/366 213/1199/366 252/1200/366
f 213/1201/367 250/1202/367 214/1203/367
f 252/1204/368 251/1205/368 250/1206/368
f 253/1207/369 252/1208/369 213/1209/369 218/1210/369
f 218/1211/370 221/1212/370 254/1213/370
f 255/1214/371 253/1215/371 254/1216/371
f 218/1217/372 254/1218/372 253/1219/372
f 256/1220/373 254/1221/373 221/1222/373 235/1223/373
f 257/1224/374 255/1225/374 254/1226/374 256/1227/374
f 256/1228/375 220/1229/375 258/1230/375
f 220/1231/376 256/1232/376 235/1233/376
f 258/1234/377 257/1235/377 256/1236/377
f 232/1237/378 233/1238/378 247/1239/378 259/1240/378
f 259/1241/379 260/1242/379 231/1243/379 232/1244/379
f 220/1245/380 231/1246/380 260/1247/380 258/1248/380
f 261/1249/381 219/1250/381 216/1251/381
f 262/1252/382 263/1253/382 229/1254/382 217/1255/382
f 217/1256/383 219/1257/383 264/1258/383 262/1259/383
f 264/1260/384 261/1261/384 265/1262/384
f 219/1263/385 261/1264/385 264/1265/385
f 234/1266/386 230/1267/386 266/1268/386 267/1269/386
f 234/1270/387 268/1271/387 240/1272/387
f 268/1273/388 234/1274/388 267/1275/388
f 230/1276/389 229/1277/389 263/1278/389 266/1279/389
f 268/1280/390 267/1281/390 269/1282/390
f 261/1283/391 223/1284/391 270/1285/391
f 223/1286/392 261/1287/392 216/1288/392
f 270/1289/393 265/1290/393 261/1291/393
f 268/1292/394 238/1293/394 240/1294/394
f 271/1295/395 272/1296/395 236/1297/395 238/1298/395
f 269/1299/396 271/1300/396 268/1301/396
f 238/1302/397 268/1303/397 271/1304/397
f 225/1305/398 226/1306/398 273/1307/398 274/1308/398
f 223/1309/399 225/1310/399 274/1311/399 270/1312/399
f 226/1313/400 236/1314/400 272/1315/400 273/1316/400
f 252/1317/401 249/1318/401 251/1319/401
f 265/1320/402 249/1321/402 252/1322/402
f 262/1323/403 264/1324/403 253/1325/403
f 253/1326/404 255/1327/404 258/1328/404
f 253/1329/405 264/1330/405 265/1331/405
f 262/1332/406 253/1333/406 258/1334/406
f 252/1335/407 253/1336/407 265/1337/407
f 241/1338/408 249/1339/408 265/1340/408
f 270/1341/409 242/1342/409 241/1343/409
f 270/1344/410 241/1345/410 265/1346/410
f 274/1347/411 242/1348/411 270/1349/411
f 273/1350/412 243/1351/412 274/1352/412
f 243/1353/413 242/1354/413 274/1355/413
f 243/1356/414 273/1357/414 244/1358/414
f 263/1359/415 262/1360/415 258/1361/415
f 266/1362/416 263/1363/416 260/1364/416
f 260/1365/417 263/1366/417 258/1367/417
f 259/1368/418 266/1369/418 260/1370/418
f 247/1371/419 267/1372/419 259/1373/419
f 259/1374/420 267/1375/420 266/1376/420
f 258/1377/421 255/1378/421 257/1379/421
f 272/1380/422 245/1381/422 244/1382/422
f 272/1383/423 244/1384/423 273/1385/423
f 271/1386/424 245/1387/424 272/1388/424
f 246/1389/425 269/1390/425 247/1391/425
f 267/1392/426 247/1393/426 269/1394/426
f 246/1395/427 245/1396/427 271/1397/427
f 269/1398/428 246/1399/428 271/1400/428