# Made in Blockbench 5.1.6
mtllib null.mtl

o object_4
v 0.37655700683593757 0.27723685264587405 -7.226426261792625e-17
v 0.3780555534362793 0.30932748794555665 -7.95733340845857e-17
v 0.34625728607177736 0.30932748794555665 -7.567916944994879e-17
v 0.3428947448730469 0.2555263137817383 -6.33211164566383e-17
v 0.3248711395263672 0.2814537811279297 -6.687091564053939e-17
v 0.2902128791809082 0.27646929740905757 -6.151972516281898e-17
v 0.317437858581543 0.2550877285003662 -6.010616152979527e-17
v 0.37571638107299804 0.24518277168273925 -6.504387990924554e-17
v 0.340628662109375 0.1780044174194336 -4.5830282505517763e-17
v 0.37571638107299804 0.02160819053649904 -1.5400350367349283e-17
v 0.34176168441772464 0.2555263137817383 -6.318235657065322e-17
v 0.33483095169067384 0.22156251907348634 -5.4792109227911696e-17
v 0.340628662109375 0.02160819053649904 -1.1103344095530999e-17
v 0.3040241050720215 0.2996600914001465 -6.83605032104534e-17
v 0.25491956710815433 0.28359648704528806 -5.878009500370089e-17
v 0.2780326843261719 0.3104194068908692 -6.7566520145685e-17
v 0.24570903778076172 0.31400585174560547 -6.440436584867964e-17
v 0.2232218360900879 0.2779815483093262 -5.365147566724509e-17
v 0.20278141021728516 0.30692892074584965 -5.757585333169702e-17
v 0.17260963439941407 0.2856981086730957 -4.9166689184770055e-17
v 0.2011549663543701 0.26113671302795416 -4.720875873326077e-17
v 0.1882163715362549 0.23186496734619141 -3.912460465494084e-17
v 0.1488157939910889 0.19821639060974122 -2.6827940609681693e-17
v 0.1839035129547119 0.18896931648254395 -2.9071683960213986e-17
v 0.1488157939910889 0.02160819053649904 1.2386957402102248e-17
v 0.1839035129547119 0.02160819053649904 8.089951130283965e-18
v 0.15476425170898436 0.24967381477355954 -3.898225999900491e-17
v 0.340628662109375 0.02160819053649904 -0.02000000000000001
v 0.33483095169067384 0.2215625190734863 -0.040000000000000056
v 0.340628662109375 0.1780044174194336 -0.04000000000000005
v 0.2902128791809082 0.27646929740905757 -0.04000000000000006
v 0.317437858581543 0.2550877285003662 -0.040000000000000056
v 0.25491956710815433 0.28359648704528806 -0.040000000000000056
v 0.340628662109375 0.021608190536499025 -0.040000000000000015
v 0.2011549663543701 0.26113671302795416 -0.04000000000000004
v 0.2232218360900879 0.2779815483093262 -0.040000000000000056
v 0.1882163715362549 0.2318649673461914 -0.040000000000000036
v 0.1839035129547119 0.02160819053649904 -0.01999999999999999
v 0.1839035129547119 0.18896931648254395 -0.04000000000000003
v 0.1839035129547119 0.021608190536499025 -0.039999999999999994
v 0.37571638107299804 0.02160819053649904 -0.020000000000000014
v 0.37571638107299804 0.021608190536499025 -0.04000000000000002
v 0.3780555534362793 0.30932748794555665 -0.02000000000000008
v 0.3780555534362793 0.30932748794555665 -0.040000000000000084
v 0.37655700683593757 0.27723685264587405 -0.04000000000000008
v 0.37571638107299804 0.24518277168273922 -0.04000000000000007
v 0.34625728607177736 0.30932748794555665 -0.020000000000000077
v 0.34625728607177736 0.30932748794555665 -0.04000000000000008
v 0.3428947448730469 0.2555263137817383 -0.020000000000000063
v 0.3428947448730469 0.2555263137817383 -0.04000000000000006
v 0.34176168441772464 0.2555263137817383 -0.020000000000000063
v 0.34176168441772464 0.2555263137817383 -0.04000000000000006
v 0.1488157939910889 0.02160819053649904 -0.019999999999999987
v 0.17260963439941407 0.2856981086730957 -0.04000000000000005
v 0.15476425170898436 0.24967381477355954 -0.04000000000000004
v 0.20278141021728516 0.30692892074584965 -0.040000000000000056
v 0.1488157939910889 0.1982163906097412 -0.04000000000000003
v 0.1488157939910889 0.021608190536499025 -0.039999999999999994
v 0.24570903778076172 0.31400585174560547 -0.04000000000000006
v 0.2780326843261719 0.3104194068908692 -0.04000000000000007
v 0.3248711395263672 0.2814537811279297 -0.04000000000000007
v 0.3040241050720215 0.2996600914001465 -0.04000000000000007
vt 0.046875 0.984375
vt 0.015625 0.984375
vt 0.015625 0.953125
vt 0.109375 0.984375
vt 0.078125 0.984375
vt 0.078125 0.953125
vt 0.171875 0.984375
vt 0.140625 0.984375
vt 0.140625 0.953125
vt 0.234375 0.984375
vt 0.203125 0.984375
vt 0.203125 0.953125
vt 0.296875 0.984375
vt 0.265625 0.984375
vt 0.265625 0.953125
vt 0.359375 0.984375
vt 0.328125 0.984375
vt 0.328125 0.953125
vt 0.421875 0.984375
vt 0.390625 0.984375
vt 0.390625 0.953125
vt 0.484375 0.984375
vt 0.453125 0.984375
vt 0.453125 0.953125
vt 0.546875 0.984375
vt 0.515625 0.984375
vt 0.515625 0.953125
vt 0.609375 0.984375
vt 0.578125 0.984375
vt 0.578125 0.953125
vt 0.671875 0.984375
vt 0.640625 0.984375
vt 0.640625 0.953125
vt 0.734375 0.984375
vt 0.703125 0.984375
vt 0.703125 0.953125
vt 0.796875 0.984375
vt 0.765625 0.984375
vt 0.765625 0.953125
vt 0.859375 0.984375
vt 0.828125 0.984375
vt 0.828125 0.953125
vt 0.921875 0.984375
vt 0.890625 0.984375
vt 0.890625 0.953125
vt 0.984375 0.984375
vt 0.953125 0.984375
vt 0.953125 0.953125
vt 0.046875 0.921875
vt 0.015625 0.921875
vt 0.015625 0.890625
vt 0.109375 0.921875
vt 0.078125 0.921875
vt 0.078125 0.890625
vt 0.171875 0.921875
vt 0.140625 0.921875
vt 0.140625 0.890625
vt 0.234375 0.921875
vt 0.203125 0.921875
vt 0.203125 0.890625
vt 0.296875 0.921875
vt 0.265625 0.921875
vt 0.265625 0.890625
vt 0.359375 0.921875
vt 0.328125 0.921875
vt 0.328125 0.890625
vt 0.421875 0.921875
vt 0.390625 0.921875
vt 0.390625 0.890625
vt 0.484375 0.921875
vt 0.453125 0.921875
vt 0.453125 0.890625
vt 0.546875 0.921875
vt 0.515625 0.921875
vt 0.515625 0.890625
vt 0.609375 0.921875
vt 0.578125 0.921875
vt 0.578125 0.890625
vt 0.671875 0.921875
vt 0.640625 0.921875
vt 0.640625 0.890625
vt 0.671875 0.890625
vt 0.734375 0.921875
vt 0.703125 0.921875
vt 0.703125 0.890625
vt 0.734375 0.890625
vt 0.796875 0.921875
vt 0.765625 0.921875
vt 0.765625 0.890625
vt 0.796875 0.890625
vt 0.859375 0.921875
vt 0.828125 0.921875
vt 0.828125 0.890625
vt 0.859375 0.890625
vt 0.921875 0.921875
vt 0.890625 0.921875
vt 0.890625 0.890625
vt 0.984375 0.921875
vt 0.953125 0.921875
vt 0.953125 0.890625
vt 0.046875 0.859375
vt 0.015625 0.859375
vt 0.015625 0.828125
vt 0.046875 0.828125
vt 0.109375 0.859375
vt 0.078125 0.859375
vt 0.078125 0.828125
vt 0.109375 0.828125
vt 0.171875 0.859375
vt 0.140625 0.859375
vt 0.140625 0.828125
vt 0.234375 0.859375
vt 0.203125 0.859375
vt 0.203125 0.828125
vt 0.234375 0.828125
vt 0.296875 0.859375
vt 0.265625 0.859375
vt 0.265625 0.828125
vt 0.359375 0.859375
vt 0.328125 0.859375
vt 0.328125 0.828125
vt 0.359375 0.828125
vt 0.421875 0.859375
vt 0.390625 0.859375
vt 0.390625 0.828125
vt 0.484375 0.859375
vt 0.453125 0.859375
vt 0.453125 0.828125
vt 0.484375 0.828125
vt 0.546875 0.859375
vt 0.515625 0.859375
vt 0.515625 0.828125
vt 0.546875 0.828125
vt 0.609375 0.859375
vt 0.578125 0.859375
vt 0.578125 0.828125
vt 0.671875 0.859375
vt 0.640625 0.859375
vt 0.640625 0.828125
vt 0.734375 0.859375
vt 0.703125 0.859375
vt 0.703125 0.828125
vt 0.796875 0.859375
vt 0.765625 0.859375
vt 0.765625 0.828125
vt 0.796875 0.828125
vt 0.859375 0.859375
vt 0.828125 0.859375
vt 0.828125 0.828125
vt 0.921875 0.859375
vt 0.890625 0.859375
vt 0.890625 0.828125
vt 0.984375 0.859375
vt 0.953125 0.859375
vt 0.953125 0.828125
vt 0.046875 0.796875
vt 0.015625 0.796875
vt 0.015625 0.765625
vt 0.046875 0.765625
vt 0.109375 0.796875
vt 0.078125 0.796875
vt 0.078125 0.765625
vt 0.109375 0.765625
vt 0.171875 0.796875
vt 0.140625 0.796875
vt 0.140625 0.765625
vt 0.171875 0.765625
vt 0.234375 0.796875
vt 0.203125 0.796875
vt 0.203125 0.765625
vt 0.234375 0.765625
vt 0.296875 0.796875
vt 0.265625 0.796875
vt 0.265625 0.765625
vt 0.296875 0.765625
vt 0.359375 0.796875
vt 0.328125 0.796875
vt 0.328125 0.765625
vt 0.359375 0.765625
vt 0.421875 0.796875
vt 0.390625 0.796875
vt 0.390625 0.765625
vt 0.484375 0.796875
vt 0.453125 0.796875
vt 0.453125 0.765625
vt 0.484375 0.765625
vt 0.546875 0.796875
vt 0.515625 0.796875
vt 0.515625 0.765625
vt 0.546875 0.765625
vt 0.609375 0.796875
vt 0.578125 0.796875
vt 0.578125 0.765625
vt 0.609375 0.765625
vt 0.671875 0.796875
vt 0.640625 0.796875
vt 0.640625 0.765625
vt 0.734375 0.796875
vt 0.703125 0.796875
vt 0.703125 0.765625
vt 0.796875 0.796875
vt 0.765625 0.796875
vt 0.765625 0.765625
vt 0.796875 0.765625
vt 0.859375 0.796875
vt 0.828125 0.796875
vt 0.828125 0.765625
vt 0.859375 0.765625
vt 0.921875 0.796875
vt 0.890625 0.796875
vt 0.890625 0.765625
vt 0.921875 0.765625
vt 0.984375 0.796875
vt 0.953125 0.796875
vt 0.953125 0.765625
vt 0.046875 0.734375
vt 0.015625 0.734375
vt 0.015625 0.703125
vt 0.046875 0.703125
vt 0.109375 0.734375
vt 0.078125 0.734375
vt 0.078125 0.703125
vt 0.171875 0.734375
vt 0.140625 0.734375
vt 0.140625 0.703125
vt 0.234375 0.734375
vt 0.203125 0.734375
vt 0.203125 0.703125
vt 0.234375 0.703125
vt 0.296875 0.734375
vt 0.265625 0.734375
vt 0.265625 0.703125
vt 0.296875 0.703125
vt 0.359375 0.734375
vt 0.328125 0.734375
vt 0.328125 0.703125
vt 0.421875 0.734375
vt 0.390625 0.734375
vt 0.390625 0.703125
vt 0.484375 0.734375
vt 0.453125 0.734375
vt 0.453125 0.703125
vt 0.546875 0.734375
vt 0.515625 0.734375
vt 0.515625 0.703125
vt 0.609375 0.734375
vt 0.578125 0.734375
vt 0.578125 0.703125
vt 0.671875 0.734375
vt 0.640625 0.734375
vt 0.640625 0.703125
vt 0.734375 0.734375
vt 0.703125 0.734375
vt 0.703125 0.703125
vt 0.796875 0.734375
vt 0.765625 0.734375
vt 0.765625 0.703125
vt 0.859375 0.734375
vt 0.828125 0.734375
vt 0.828125 0.703125
vt 0.921875 0.734375
vt 0.890625 0.734375
vt 0.890625 0.703125
vt 0.984375 0.734375
vt 0.953125 0.734375
vt 0.953125 0.703125
vt 0.046875 0.671875
vt 0.015625 0.671875
vt 0.015625 0.640625
vt 0.109375 0.671875
vt 0.078125 0.671875
vt 0.078125 0.640625
vt 0.171875 0.671875
vt 0.140625 0.671875
vt 0.140625 0.640625
vt 0.234375 0.671875
vt 0.203125 0.671875
vt 0.203125 0.640625
vt 0.296875 0.671875
vt 0.265625 0.671875
vt 0.265625 0.640625
vt 0.359375 0.671875
vt 0.328125 0.671875
vt 0.328125 0.640625
vt 0.421875 0.671875
vt 0.390625 0.671875
vt 0.390625 0.640625
vt 0.484375 0.671875
vt 0.453125 0.671875
vt 0.453125 0.640625
vt 0.546875 0.671875
vt 0.515625 0.671875
vt 0.515625 0.640625
vt 0.609375 0.671875
vt 0.578125 0.671875
vt 0.578125 0.640625
vt 0.671875 0.671875
vt 0.640625 0.671875
vt 0.640625 0.640625
vt 0.734375 0.671875
vt 0.703125 0.671875
vt 0.703125 0.640625
vt 0.796875 0.671875
vt 0.765625 0.671875
vt 0.765625 0.640625
vt 0.859375 0.671875
vt 0.828125 0.671875
vt 0.828125 0.640625
vn 1.2246467991473532e-16 2.220446049250313e-16 1
vn 1.2246467991473532e-16 2.220446049250313e-16 1
vn 1.2246467991473532e-16 2.220446049250313e-16 1
vn 1.2246467991473532e-16 2.220446049250313e-16 1
vn 1.2246467991473532e-16 2.220446049250313e-16 1
vn 1.2246467991473532e-16 2.220446049250313e-16 1
vn 1.2246467991473532e-16 2.220446049250313e-16 1
vn 1.2246467991473532e-16 2.220446049250313e-16 1
vn 1.2246467991473532e-16 2.220446049250313e-16 1
vn 1.2246467991473532e-16 2.220446049250313e-16 1
vn 1.2246467991473532e-16 2.220446049250313e-16 1
vn 1.2246467991473532e-16 2.220446049250313e-16 1
vn 1.2246467991473532e-16 2.220446049250313e-16 1
vn 1.2246467991473532e-16 2.220446049250313e-16 1
vn 1.2246467991473532e-16 2.220446049250313e-16 1
vn 1.2246467991473532e-16 2.220446049250313e-16 1
vn 1.2246467991473532e-16 2.220446049250313e-16 1
vn 1.2246467991473532e-16 2.220446049250313e-16 1
vn 1.2246467991473532e-16 2.220446049250313e-16 1
vn 1.2246467991473532e-16 2.220446049250313e-16 1
vn 1.2246467991473532e-16 2.220446049250313e-16 1
vn 1.2246467991473532e-16 2.220446049250313e-16 1
vn 1.2246467991473532e-16 2.220446049250313e-16 1
vn 1.2246467991473532e-16 2.220446049250313e-16 1
vn 1.2246467991473532e-16 2.220446049250313e-16 1
vn -1 2.5407181807812022e-33 1.2246467991473532e-16
vn -0.991257796849012 -0.1319393049323935 1.5069047964189654e-16
vn -0.6176521039623226 -0.7864514469888884 2.5026786804977557e-16
vn -0.1979458219235912 -0.9802129623622583 2.4189237169245403e-16
vn -0.8876500844520528 -0.4605185420504406 2.1096144119894992e-16
vn -1 2.5407181807812022e-33 1.2246467991473532e-16
vn -1 2.5407181807812022e-33 1.2246467991473532e-16
vn 0.6067718678182417 -0.7948760283367227 1.0218981110277852e-16
vn 0.9146338342276475 -0.40428325377887236 -2.224142438474006e-17
vn 1 -2.5407181807812022e-33 -1.2246467991473532e-16
vn 0.9949835510721574 -0.10003865800698981 -9.963729780808609e-17
vn 1 -2.5407181807812022e-33 -1.2246467991473532e-16
vn 0.17442462034677467 -0.9846705295767126 1.9727992342116554e-16
vn 1 -2.5407181807812022e-33 -1.2246467991473532e-16
vn 2.719262146893782e-32 -1 2.220446049250313e-16
vn 2.719262146893782e-32 -1 2.220446049250313e-16
vn 0.9989114602088527 -0.046646486077923044 -1.119737716653246e-16
vn 0.9989114602088527 -0.046646486077923044 -1.119737716653246e-16
vn 0.9989114602088527 -0.046646486077923044 -1.119737716653246e-16
vn 0.9996562958398656 -0.0262162199357441 -1.1660141809651907e-16
vn 1 -2.5407181807812022e-33 -1.2246467991473532e-16
vn 1 -2.5407181807812022e-33 -1.2246467991473532e-16
vn 1 -2.5407181807812022e-33 -1.2246467991473532e-16
vn -2.719262146893782e-32 1 -2.220446049250313e-16
vn -2.719262146893782e-32 1 -2.220446049250313e-16
vn -0.9980526156552658 0.06237769139429803 1.0837556427250405e-16
vn -0.9980526156552658 0.06237769139429803 1.0837556427250405e-16
vn -2.719262146893782e-32 1 -2.220446049250313e-16
vn -2.719262146893782e-32 1 -2.220446049250313e-16
vn -1 2.5407181807812022e-33 1.2246467991473532e-16
vn -0.8960802946729906 0.44389199756108066 1.1174363237196379e-17
vn -0.5754720450058296 0.8178214508172358 -1.1111784115441196e-16
vn -0.9933845953110242 0.11483486316773789 9.615606467329307e-17
vn -1 2.5407181807812022e-33 1.2246467991473532e-16
vn -1 2.5407181807812022e-33 1.2246467991473532e-16
vn -0.1626616738516795 0.9866819040905584 -1.9916708375782468e-16
vn 0.11027748806994898 0.9939008379234734 -2.341954161696626e-16
vn 0.6577912842526872 0.7532002564797762 -2.4780025245619215e-16
vn 0.8378866020904656 0.5458443386509506 -2.238133050561694e-16
vn 0.3824806274952421 0.9239635109628767 -2.520014803766887e-16
vn 0.8378866020904656 0.5458443386509506 -2.238133050561694e-16
vn 0.8378866020904656 0.5458443386509506 -2.238133050561694e-16
vn 2.719262146893782e-32 -1 2.220446049250313e-16
vn 2.719262146893782e-32 -1 2.220446049250313e-16
vn -1.2246467991473532e-16 -2.220446049250313e-16 -1
vn -1.2246467991473532e-16 -2.220446049250313e-16 -1
vn -1.2246467991473532e-16 -2.220446049250313e-16 -1
vn -1.2246467991473532e-16 -2.220446049250313e-16 -1
vn -1.2246467991473532e-16 -2.220446049250313e-16 -1
vn -1.2246467991473532e-16 -2.220446049250313e-16 -1
vn -1.2246467991473532e-16 -2.220446049250313e-16 -1
vn -1.2246467991473532e-16 -2.220446049250313e-16 -1
vn -1.2246467991473532e-16 -2.220446049250313e-16 -1
vn -1.2246467991473532e-16 -2.220446049250313e-16 -1
vn -1.2246467991473532e-16 -2.220446049250313e-16 -1
vn -1.2246467991473532e-16 -2.220446049250313e-16 -1
vn -1.2246467991473532e-16 -2.220446049250313e-16 -1
vn -1.2246467991473532e-16 -2.220446049250313e-16 -1
vn -1.2246467991473532e-16 -2.220446049250313e-16 -1
vn -1.2246467991473532e-16 -2.220446049250313e-16 -1
vn -1.2246467991473532e-16 -2.220446049250313e-16 -1
vn -1.2246467991473532e-16 -2.220446049250313e-16 -1
vn -1.2246467991473532e-16 -2.220446049250313e-16 -1
vn -1.2246467991473532e-16 -2.220446049250313e-16 -1
vn -1.2246467991473532e-16 -2.220446049250313e-16 -1
vn -1.2246467991473532e-16 -2.220446049250313e-16 -1
vn -1.2246467991473532e-16 -2.220446049250313e-16 -1
vn -1.2246467991473532e-16 -2.220446049250313e-16 -1
vn -1.2246467991473532e-16 -2.220446049250313e-16 -1
usemtl m_ef94d802-aeb1-3dac-058e-a78f78e7ca36
f 1/1/1 2/2/1 3/3/1
f 4/4/2 1/5/2 3/6/2
f 5/7/3 6/8/3 7/9/3
f 8/10/4 1/11/4 4/12/4
f 9/13/5 10/14/5 8/15/5
f 11/16/6 12/17/6 4/18/6
f 12/19/7 8/20/7 4/21/7
f 11/22/8 7/23/8 12/24/8
f 10/25/9 9/26/9 13/27/9
f 8/28/10 12/29/10 9/30/10
f 7/31/11 11/32/11 5/33/11
f 14/34/12 6/35/12 5/36/12
f 15/37/13 6/38/13 16/39/13
f 14/40/14 16/41/14 6/42/14
f 17/43/15 15/44/15 16/45/15
f 18/46/16 17/47/16 19/48/16
f 20/49/17 21/50/17 19/51/17
f 18/52/18 19/53/18 21/54/18
f 15/55/19 17/56/19 18/57/19
f 22/58/20 21/59/20 20/60/20
f 23/61/21 24/62/21 22/63/21
f 23/64/22 25/65/22 24/66/22
f 25/67/23 26/68/23 24/69/23
f 27/70/24 23/71/24 22/72/24
f 22/73/25 20/74/25 27/75/25
f 28/76/26 13/77/26 9/78/26
f 12/79/27 29/80/27 30/81/27 9/82/27
f 6/83/28 31/84/28 32/85/28 7/86/28
f 31/87/29 6/88/29 15/89/29 33/90/29
f 7/91/30 32/92/30 29/93/30 12/94/30
f 34/95/31 28/96/31 30/97/31
f 30/98/32 28/99/32 9/100/32
f 21/101/33 35/102/33 36/103/33 18/104/33
f 22/105/34 37/106/34 35/107/34 21/108/34
f 38/109/35 24/110/35 26/111/35
f 24/112/36 39/113/36 37/114/36 22/115/36
f 39/116/37 24/117/37 38/118/37
f 18/119/38 36/120/38 33/121/38 15/122/38
f 38/123/39 40/124/39 39/125/39
f 41/126/40 10/127/40 13/128/40 28/129/40
f 42/130/41 41/131/41 28/132/41 34/133/41
f 43/134/42 2/135/42 1/136/42
f 44/137/43 43/138/43 45/139/43
f 1/140/44 45/141/44 43/142/44
f 45/143/45 1/144/45 8/145/45 46/146/45
f 41/147/46 8/148/46 10/149/46
f 42/150/47 46/151/47 41/152/47
f 8/153/48 41/154/48 46/155/48
f 47/156/49 3/157/49 2/158/49 43/159/49
f 48/160/50 47/161/50 43/162/50 44/163/50
f 49/164/51 4/165/51 3/166/51 47/167/51
f 50/168/52 49/169/52 47/170/52 48/171/52
f 51/172/53 11/173/53 4/174/53 49/175/53
f 52/176/54 51/177/54 49/178/54 50/179/54
f 53/180/55 25/181/55 23/182/55
f 20/183/56 54/184/56 55/185/56 27/186/56
f 19/187/57 56/188/57 54/189/57 20/190/57
f 27/191/58 55/192/58 57/193/58 23/194/58
f 58/195/59 53/196/59 57/197/59
f 57/198/60 53/199/60 23/200/60
f 56/201/61 19/202/61 17/203/61 59/204/61
f 16/205/62 60/206/62 59/207/62 17/208/62
f 5/209/63 61/210/63 62/211/63 14/212/63
f 51/213/64 5/214/64 11/215/64
f 14/216/65 62/217/65 60/218/65 16/219/65
f 52/220/66 61/221/66 51/222/66
f 51/223/67 61/224/67 5/225/67
f 38/226/68 26/227/68 25/228/68 53/229/68
f 40/230/69 38/231/69 53/232/69 58/233/69
f 45/234/70 48/235/70 44/236/70
f 50/237/71 48/238/71 45/239/71
f 61/240/72 32/241/72 31/242/72
f 46/243/73 50/244/73 45/245/73
f 30/246/74 46/247/74 42/248/74
f 52/249/75 50/250/75 29/251/75
f 29/252/76 50/253/76 46/254/76
f 52/255/77 29/256/77 32/257/77
f 42/258/78 34/259/78 30/260/78
f 46/261/79 30/262/79 29/263/79
f 32/264/80 61/265/80 52/266/80
f 62/267/81 61/268/81 31/269/81
f 33/270/82 60/271/82 31/272/82
f 62/273/83 31/274/83 60/275/83
f 59/276/84 60/277/84 33/278/84
f 36/279/85 56/280/85 59/281/85
f 54/282/86 56/283/86 35/284/86
f 36/285/87 35/286/87 56/287/87
f 33/288/88 36/289/88 59/290/88
f 37/291/89 54/292/89 35/293/89
f 57/294/90 37/295/90 39/296/90
f 57/297/91 39/298/91 58/299/91
f 58/300/92 39/301/92 40/302/92
f 55/303/93 37/304/93 57/305/93
f 37/306/94 55/307/94 54/308/94
o object_3
v 0.05639528453350067 0.08100603580474852 1.0516234424395963e-17
v 0.062266081869602204 0.1324269139766693 -1.620459470796311e-18
v 0.022934024333953855 0.0986549949645996 1.0695200780289988e-17
v 0.062266081869602204 0.30932748794555665 -4.0900277528729176e-17
v 0.027178361415863037 0.30932748794555665 -3.6603271074424297e-17
v 0.027178361415863037 0.14167398810386658 6.232840622225723e-19
v 0.03878289222717285 0.04509137630462648 2.0647786790444768e-17
v 0.009008579254150398 0.023970212936401364 2.8983928874021704e-17
v 0.010201015472412117 0.06952486991882324 1.8722731742076358e-17
v -0.011514091491699241 0.05288560390472412 2.5076724614093636e-17
v -0.03334798812866213 0.016929826736450188 3.5734392113132555e-17
v -0.042704706192016606 0.047339181900024396 3.012802634249289e-17
v -0.06529699325561525 0.020497989654541 3.8854725474143484e-17
v -0.07781526565551761 0.05446637630462649 3.2845274703024056e-17
v -0.12845031738281254 0.0754093551635742 3.4396004638584966e-17
v -0.10463817596435548 0.0758479595184326 3.138246863099628e-17
v -0.12164749145507814 0.10930008172988892 2.6037645747789696e-17
v -0.1622953224182129 0.30932748794555665 -1.3399437031418427e-17
v -0.1622953224182129 0.08575294017791749 3.6244085098939553e-17
v -0.12731725692749024 0.15263888835906983 1.7108843565661462e-17
v -0.12731725692749024 0.30932748794555665 -1.7683014625776427e-17
v -0.1295467758178711 0.0754093551635742 3.453028206987423e-17
v -0.11171510696411133 0.04939054012298584 3.812386995765789e-17
v -0.09104168891906742 0.031202487945556634 3.963066529412119e-17
v -0.1328728294372559 0.02160819053649904 4.688386450587691e-17
v -0.163135986328125 0.05369885444641112 4.346447353806822e-17
v -0.16463449478149417 0.02160819053649904 5.077354668581799e-17
v -0.12731725692749024 0.30932748794555665 -0.020000000000000018
v -0.12164749145507814 0.1093000817298889 -0.03999999999999997
v -0.12731725692749024 0.1526388883590698 -0.03999999999999999
v -0.07781526565551761 0.054466376304626474 -0.03999999999999997
v -0.10463817596435548 0.0758479595184326 -0.039999999999999966
v -0.042704706192016606 0.04733918190002438 -0.03999999999999997
v -0.12731725692749024 0.30932748794555665 -0.04000000000000002
v 0.01020101547241211 0.06952486991882323 -0.03999999999999998
v -0.011514091491699241 0.052885603904724104 -0.03999999999999998
v 0.022934024333953848 0.09865499496459959 -0.03999999999999999
v 0.027178361415863037 0.30932748794555665 -0.02000000000000004
v 0.02717836141586303 0.14167398810386655 -0.04
v 0.02717836141586303 0.30932748794555665 -0.040000000000000036
v -0.1622953224182129 0.30932748794555665 -0.020000000000000014
v -0.1622953224182129 0.30932748794555665 -0.040000000000000015
v -0.16463449478149417 0.02160819053649904 -0.01999999999999995
v -0.16463449478149417 0.021608190536499025 -0.03999999999999995
v -0.163135986328125 0.05369885444641111 -0.03999999999999996
v -0.1622953224182129 0.08575294017791747 -0.039999999999999966
v -0.1328728294372559 0.02160819053649904 -0.019999999999999952
v -0.1328728294372559 0.021608190536499025 -0.03999999999999996
v -0.1295467758178711 0.0754093551635742 -0.019999999999999966
v -0.1295467758178711 0.0754093551635742 -0.039999999999999966
v -0.12845031738281254 0.0754093551635742 -0.019999999999999966
v -0.12845031738281254 0.0754093551635742 -0.039999999999999966
v 0.062266081869602204 0.30932748794555665 -0.020000000000000042
v 0.03878289222717285 0.045091376304626465 -0.03999999999999998
v 0.056395284533500664 0.08100603580474851 -0.039999999999999994
v 0.009008579254150391 0.02397021293640135 -0.03999999999999997
v 0.0622660818696022 0.1324269139766693 -0.04
v 0.0622660818696022 0.30932748794555665 -0.04000000000000004
v -0.03334798812866213 0.016929826736450174 -0.039999999999999966
v -0.06529699325561525 0.020497989654540985 -0.039999999999999966
v -0.11171510696411133 0.049390540122985827 -0.039999999999999966
v -0.09104168891906742 0.03120248794555662 -0.03999999999999996
vt 0.921875 0.671875
vt 0.890625 0.671875
vt 0.890625 0.640625
vt 0.984375 0.671875
vt 0.953125 0.671875
vt 0.953125 0.640625
vt 0.984375 0.640625
vt 0.046875 0.609375
vt 0.015625 0.609375
vt 0.015625 0.578125
vt 0.109375 0.609375
vt 0.078125 0.609375
vt 0.078125 0.578125
vt 0.171875 0.609375
vt 0.140625 0.609375
vt 0.140625 0.578125
vt 0.234375 0.609375
vt 0.203125 0.609375
vt 0.203125 0.578125
vt 0.296875 0.609375
vt 0.265625 0.609375
vt 0.265625 0.578125
vt 0.359375 0.609375
vt 0.328125 0.609375
vt 0.328125 0.578125
vt 0.421875 0.609375
vt 0.390625 0.609375
vt 0.390625 0.578125
vt 0.484375 0.609375
vt 0.453125 0.609375
vt 0.453125 0.578125
vt 0.546875 0.609375
vt 0.515625 0.609375
vt 0.515625 0.578125
vt 0.609375 0.609375
vt 0.578125 0.609375
vt 0.578125 0.578125
vt 0.671875 0.609375
vt 0.640625 0.609375
vt 0.640625 0.578125
vt 0.671875 0.578125
vt 0.734375 0.609375
vt 0.703125 0.609375
vt 0.703125 0.578125
vt 0.796875 0.609375
vt 0.765625 0.609375
vt 0.765625 0.578125
vt 0.859375 0.609375
vt 0.828125 0.609375
vt 0.828125 0.578125
vt 0.921875 0.609375
vt 0.890625 0.609375
vt 0.890625 0.578125
vt 0.984375 0.609375
vt 0.953125 0.609375
vt 0.953125 0.578125
vt 0.046875 0.546875
vt 0.015625 0.546875
vt 0.015625 0.515625
vt 0.109375 0.546875
vt 0.078125 0.546875
vt 0.078125 0.515625
vt 0.171875 0.546875
vt 0.140625 0.546875
vt 0.140625 0.515625
vt 0.234375 0.546875
vt 0.203125 0.546875
vt 0.203125 0.515625
vt 0.296875 0.546875
vt 0.265625 0.546875
vt 0.265625 0.515625
vt 0.359375 0.546875
vt 0.328125 0.546875
vt 0.328125 0.515625
vt 0.421875 0.546875
vt 0.390625 0.546875
vt 0.390625 0.515625
vt 0.421875 0.515625
vt 0.484375 0.546875
vt 0.453125 0.546875
vt 0.453125 0.515625
vt 0.484375 0.515625
vt 0.546875 0.546875
vt 0.515625 0.546875
vt 0.515625 0.515625
vt 0.546875 0.515625
vt 0.609375 0.546875
vt 0.578125 0.546875
vt 0.578125 0.515625
vt 0.609375 0.515625
vt 0.671875 0.546875
vt 0.640625 0.546875
vt 0.640625 0.515625
vt 0.734375 0.546875
vt 0.703125 0.546875
vt 0.703125 0.515625
vt 0.796875 0.546875
vt 0.765625 0.546875
vt 0.765625 0.515625
vt 0.796875 0.515625
vt 0.859375 0.546875
vt 0.828125 0.546875
vt 0.828125 0.515625
vt 0.859375 0.515625
vt 0.921875 0.546875
vt 0.890625 0.546875
vt 0.890625 0.515625
vt 0.984375 0.546875
vt 0.953125 0.546875
vt 0.953125 0.515625
vt 0.984375 0.515625
vt 0.046875 0.484375
vt 0.015625 0.484375
vt 0.015625 0.453125
vt 0.109375 0.484375
vt 0.078125 0.484375
vt 0.078125 0.453125
vt 0.109375 0.453125
vt 0.171875 0.484375
vt 0.140625 0.484375
vt 0.140625 0.453125
vt 0.234375 0.484375
vt 0.203125 0.484375
vt 0.203125 0.453125
vt 0.234375 0.453125
vt 0.296875 0.484375
vt 0.265625 0.484375
vt 0.265625 0.453125
vt 0.296875 0.453125
vt 0.359375 0.484375
vt 0.328125 0.484375
vt 0.328125 0.453125
vt 0.421875 0.484375
vt 0.390625 0.484375
vt 0.390625 0.453125
vt 0.484375 0.484375
vt 0.453125 0.484375
vt 0.453125 0.453125
vt 0.546875 0.484375
vt 0.515625 0.484375
vt 0.515625 0.453125
vt 0.546875 0.453125
vt 0.609375 0.484375
vt 0.578125 0.484375
vt 0.578125 0.453125
vt 0.671875 0.484375
vt 0.640625 0.484375
vt 0.640625 0.453125
vt 0.734375 0.484375
vt 0.703125 0.484375
vt 0.703125 0.453125
vt 0.796875 0.484375
vt 0.765625 0.484375
vt 0.765625 0.453125
vt 0.796875 0.453125
vt 0.859375 0.484375
vt 0.828125 0.484375
vt 0.828125 0.453125
vt 0.859375 0.453125
vt 0.921875 0.484375
vt 0.890625 0.484375
vt 0.890625 0.453125
vt 0.921875 0.453125
vt 0.984375 0.484375
vt 0.953125 0.484375
vt 0.953125 0.453125
vt 0.984375 0.453125
vt 0.046875 0.421875
vt 0.015625 0.421875
vt 0.015625 0.390625
vt 0.046875 0.390625
vt 0.109375 0.421875
vt 0.078125 0.421875
vt 0.078125 0.390625
vt 0.109375 0.390625
vt 0.171875 0.421875
vt 0.140625 0.421875
vt 0.140625 0.390625
vt 0.234375 0.421875
vt 0.203125 0.421875
vt 0.203125 0.390625
vt 0.234375 0.390625
vt 0.296875 0.421875
vt 0.265625 0.421875
vt 0.265625 0.390625
vt 0.296875 0.390625
vt 0.359375 0.421875
vt 0.328125 0.421875
vt 0.328125 0.390625
vt 0.359375 0.390625
vt 0.421875 0.421875
vt 0.390625 0.421875
vt 0.390625 0.390625
vt 0.484375 0.421875
vt 0.453125 0.421875
vt 0.453125 0.390625
vt 0.546875 0.421875
vt 0.515625 0.421875
vt 0.515625 0.390625
vt 0.546875 0.390625
vt 0.609375 0.421875
vt 0.578125 0.421875
vt 0.578125 0.390625
vt 0.609375 0.390625
vt 0.671875 0.421875
vt 0.640625 0.421875
vt 0.640625 0.390625
vt 0.671875 0.390625
vt 0.734375 0.421875
vt 0.703125 0.421875
vt 0.703125 0.390625
vt 0.796875 0.421875
vt 0.765625 0.421875
vt 0.765625 0.390625
vt 0.796875 0.390625
vt 0.859375 0.421875
vt 0.828125 0.421875
vt 0.828125 0.390625
vt 0.921875 0.421875
vt 0.890625 0.421875
vt 0.890625 0.390625
vt 0.984375 0.421875
vt 0.953125 0.421875
vt 0.953125 0.390625
vt 0.984375 0.390625
vt 0.046875 0.359375
vt 0.015625 0.359375
vt 0.015625 0.328125
vt 0.046875 0.328125
vt 0.109375 0.359375
vt 0.078125 0.359375
vt 0.078125 0.328125
vt 0.171875 0.359375
vt 0.140625 0.359375
vt 0.140625 0.328125
vt 0.171875 0.328125
vt 0.234375 0.359375
vt 0.203125 0.359375
vt 0.203125 0.328125
vt 0.296875 0.359375
vt 0.265625 0.359375
vt 0.265625 0.328125
vt 0.359375 0.359375
vt 0.328125 0.359375
vt 0.328125 0.328125
vt 0.421875 0.359375
vt 0.390625 0.359375
vt 0.390625 0.328125
vt 0.484375 0.359375
vt 0.453125 0.359375
vt 0.453125 0.328125
vt 0.546875 0.359375
vt 0.515625 0.359375
vt 0.515625 0.328125
vt 0.609375 0.359375
vt 0.578125 0.359375
vt 0.578125 0.328125
vt 0.671875 0.359375
vt 0.640625 0.359375
vt 0.640625 0.328125
vt 0.734375 0.359375
vt 0.703125 0.359375
vt 0.703125 0.328125
vt 0.796875 0.359375
vt 0.765625 0.359375
vt 0.765625 0.328125
vt 0.859375 0.359375
vt 0.828125 0.359375
vt 0.828125 0.328125
vt 0.859375 0.328125
vt 0.921875 0.359375
vt 0.890625 0.359375
vt 0.890625 0.328125
vt 0.984375 0.359375
vt 0.953125 0.359375
vt 0.953125 0.328125
vt 0.046875 0.296875
vt 0.015625 0.296875
vt 0.015625 0.265625
vt 0.109375 0.296875
vt 0.078125 0.296875
vt 0.078125 0.265625
vt 0.171875 0.296875
vt 0.140625 0.296875
vt 0.140625 0.265625
vt 0.234375 0.296875
vt 0.203125 0.296875
vt 0.203125 0.265625
vt 0.296875 0.296875
vt 0.265625 0.296875
vt 0.265625 0.265625
vt 0.359375 0.296875
vt 0.328125 0.296875
vt 0.328125 0.265625
vt 0.421875 0.296875
vt 0.390625 0.296875
vt 0.390625 0.265625
vt 0.484375 0.296875
vt 0.453125 0.296875
vt 0.453125 0.265625
vn 1.2246467991473532e-16 2.220446049250313e-16 1
vn 1.2246467991473532e-16 2.220446049250313e-16 1
vn 1.2246467991473532e-16 2.220446049250313e-16 1
vn 1.2246467991473532e-16 2.220446049250313e-16 1
vn 1.2246467991473532e-16 2.220446049250313e-16 1
vn 1.2246467991473532e-16 2.220446049250313e-16 1
vn 1.2246467991473532e-16 2.220446049250313e-16 1
vn 1.2246467991473532e-16 2.220446049250313e-16 1
vn 1.2246467991473532e-16 2.220446049250313e-16 1
vn 1.2246467991473532e-16 2.220446049250313e-16 1
vn 1.2246467991473532e-16 2.220446049250313e-16 1
vn 1.2246467991473532e-16 2.220446049250313e-16 1
vn 1.2246467991473532e-16 2.220446049250313e-16 1
vn 1.2246467991473532e-16 2.220446049250313e-16 1
vn 1.2246467991473532e-16 2.220446049250313e-16 1
vn 1.2246467991473532e-16 2.220446049250313e-16 1
vn 1.2246467991473532e-16 2.220446049250313e-16 1
vn 1.2246467991473532e-16 2.220446049250313e-16 1
vn 1.2246467991473532e-16 2.220446049250313e-16 1
vn 1.2246467991473532e-16 2.220446049250313e-16 1
vn 1.2246467991473532e-16 2.220446049250313e-16 1
vn 1.2246467991473532e-16 2.220446049250313e-16 1
vn 1.2246467991473532e-16 2.220446049250313e-16 1
vn 1 -2.5407181807812022e-33 -1.2246467991473532e-16
vn 0.991550814365877 0.12971885957857543 -1.5023332602696266e-16
vn 0.6233298738918519 0.7819589940105351 -2.499656693801022e-16
vn 0.19893559602441702 0.9800125655492433 -2.419690870297254e-16
vn 0.8913876943293184 0.453241633566756 -2.0980336812688006e-16
vn 1 -2.5407181807812022e-33 -1.2246467991473532e-16
vn 1 -2.5407181807812022e-33 -1.2246467991473532e-16
vn -0.6082247256021741 0.7937648790203305 -1.017651626283366e-16
vn -0.9162892040781613 0.40051728363431416 2.3280362076531616e-17
vn -1 2.5407181807812022e-33 1.2246467991473532e-16
vn -0.9951681583696701 0.09818521562393853 1.0007145256338182e-16
vn -1 2.5407181807812022e-33 1.2246467991473532e-16
vn -0.1750769020245732 0.9845547614924618 -1.9717433627574927e-16
vn -1 2.5407181807812022e-33 1.2246467991473532e-16
vn -2.719262146893782e-32 1 -2.220446049250313e-16
vn -2.719262146893782e-32 1 -2.220446049250313e-16
vn -0.998911517475085 0.0466452597336846 1.1197405098153735e-16
vn -0.998911517475085 0.0466452597336846 1.1197405098153735e-16
vn -0.998911517475085 0.0466452597336846 1.1197405098153735e-16
vn -0.9996562647633768 0.02621740489319588 1.1660115117733758e-16
vn -1 2.5407181807812022e-33 1.2246467991473532e-16
vn -1 2.5407181807812022e-33 1.2246467991473532e-16
vn -1 2.5407181807812022e-33 1.2246467991473532e-16
vn 2.719262146893782e-32 -1 2.220446049250313e-16
vn 2.719262146893782e-32 -1 2.220446049250313e-16
vn 0.9980945284987659 -0.06170342114361674 -1.0853041518689284e-16
vn 0.9980945284987659 -0.06170342114361674 -1.0853041518689284e-16
vn 2.719262146893782e-32 -1 2.220446049250313e-16
vn 2.719262146893782e-32 -1 2.220446049250313e-16
vn 1 -2.5407181807812022e-33 -1.2246467991473532e-16
vn 0.8978498971405591 -0.4403016718168211 -1.2188289498399755e-17
vn 0.5785831364095096 -0.8156234144889017 1.10248780233339e-16
vn 0.9935454711180131 -0.11343454862115762 -9.648669856776818e-17
vn 1 -2.5407181807812022e-33 -1.2246467991473532e-16
vn 1 -2.5407181807812022e-33 -1.2246467991473532e-16
vn 0.16396748460931357 -0.9864657439520617 1.9895917086880874e-16
vn -0.11099299952383991 -0.9938211881705385 2.3426535525291586e-16
vn -0.6605346474462978 -0.7507955644001869 2.4760226864880877e-16
vn -0.8410486281222511 -0.5409595226388749 2.2311589452050127e-16
vn -0.38392894360454294 -0.9233626407120334 2.520454279479699e-16
vn -0.8410486281222511 -0.5409595226388749 2.2311589452050127e-16
vn -0.8410486281222511 -0.5409595226388749 2.2311589452050127e-16
vn -2.719262146893782e-32 1 -2.220446049250313e-16
vn -2.719262146893782e-32 1 -2.220446049250313e-16
vn -1.2246467991473532e-16 -2.220446049250313e-16 -1
vn -1.2246467991473532e-16 -2.220446049250313e-16 -1
vn -1.2246467991473532e-16 -2.220446049250313e-16 -1
vn -1.2246467991473532e-16 -2.220446049250313e-16 -1
vn -1.2246467991473532e-16 -2.220446049250313e-16 -1
vn -1.2246467991473532e-16 -2.220446049250313e-16 -1
vn -1.2246467991473532e-16 -2.220446049250313e-16 -1
vn -1.2246467991473532e-16 -2.220446049250313e-16 -1
vn -1.2246467991473532e-16 -2.220446049250313e-16 -1
vn -1.2246467991473532e-16 -2.220446049250313e-16 -1
vn -1.2246467991473532e-16 -2.220446049250313e-16 -1
vn -1.2246467991473532e-16 -2.220446049250313e-16 -1
vn -1.2246467991473532e-16 -2.220446049250313e-16 -1
vn -1.2246467991473532e-16 -2.220446049250313e-16 -1
vn -1.2246467991473532e-16 -2.220446049250313e-16 -1
vn -1.2246467991473532e-16 -2.220446049250313e-16 -1
vn -1.2246467991473532e-16 -2.220446049250313e-16 -1
vn -1.2246467991473532e-16 -2.220446049250313e-16 -1
vn -1.2246467991473532e-16 -2.220446049250313e-16 -1
vn -1.2246467991473532e-16 -2.220446049250313e-16 -1
vn -1.2246467991473532e-16 -2.220446049250313e-16 -1
vn -1.2246467991473532e-16 -2.220446049250313e-16 -1
vn -1.2246467991473532e-16 -2.220446049250313e-16 -1
usemtl m_ef94d802-aeb1-3dac-058e-a78f78e7ca36
f 63/309/95 64/310/95 65/311/95
f 64/312/96 66/313/96 67/314/96 68/315/96
f 64/316/97 68/317/97 65/318/97
f 69/319/98 63/320/98 65/321/98
f 70/322/99 69/323/99 71/324/99
f 65/325/100 71/326/100 69/327/100
f 72/328/101 70/329/101 71/330/101
f 73/331/102 72/332/102 74/333/102
f 74/334/103 75/335/103 73/336/103
f 76/337/104 75/338/104 74/339/104
f 70/340/105 72/341/105 73/342/105
f 77/343/106 78/344/106 79/345/106
f 80/346/107 81/347/107 82/348/107 83/349/107
f 81/350/108 84/351/108 79/352/108
f 79/353/109 84/354/109 77/355/109
f 82/356/110 81/357/110 79/358/110
f 85/359/111 78/360/111 77/361/111
f 86/362/112 76/363/112 85/364/112
f 85/365/113 76/366/113 78/367/113
f 75/368/114 76/369/114 86/370/114
f 87/371/115 84/372/115 88/373/115
f 81/374/116 88/375/116 84/376/116
f 88/377/117 89/378/117 87/379/117
f 90/380/118 83/381/118 82/382/118
f 79/383/119 91/384/119 92/385/119 82/386/119
f 76/387/120 93/388/120 94/389/120 78/390/120
f 93/391/121 76/392/121 74/393/121 95/394/121
f 78/395/122 94/396/122 91/397/122 79/398/122
f 96/399/123 90/400/123 92/401/123
f 92/402/124 90/403/124 82/404/124
f 71/405/125 97/406/125 98/407/125 72/408/125
f 65/409/126 99/410/126 97/411/126 71/412/126
f 100/413/127 68/414/127 67/415/127
f 68/416/128 101/417/128 99/418/128 65/419/128
f 101/420/129 68/421/129 100/422/129
f 72/423/130 98/424/130 95/425/130 74/426/130
f 100/427/131 102/428/131 101/429/131
f 103/430/132 80/431/132 83/432/132 90/433/132
f 104/434/133 103/435/133 90/436/133 96/437/133
f 105/438/134 89/439/134 88/440/134
f 106/441/135 105/442/135 107/443/135
f 88/444/136 107/445/136 105/446/136
f 107/447/137 88/448/137 81/449/137 108/450/137
f 103/451/138 81/452/138 80/453/138
f 104/454/139 108/455/139 103/456/139
f 81/457/140 103/458/140 108/459/140
f 109/460/141 87/461/141 89/462/141 105/463/141
f 110/464/142 109/465/142 105/466/142 106/467/142
f 111/468/143 84/469/143 87/470/143 109/471/143
f 112/472/144 111/473/144 109/474/144 110/475/144
f 113/476/145 77/477/145 84/478/145 111/479/145
f 114/480/146 113/481/146 111/482/146 112/483/146
f 115/484/147 66/485/147 64/486/147
f 69/487/148 116/488/148 117/489/148 63/490/148
f 70/491/149 118/492/149 116/493/149 69/494/149
f 63/495/150 117/496/150 119/497/150 64/498/150
f 120/499/151 115/500/151 119/501/151
f 119/502/152 115/503/152 64/504/152
f 118/505/153 70/506/153 73/507/153 121/508/153
f 75/509/154 122/510/154 121/511/154 73/512/154
f 85/513/155 123/514/155 124/515/155 86/516/155
f 113/517/156 85/518/156 77/519/156
f 86/520/157 124/521/157 122/522/157 75/523/157
f 114/524/158 123/525/158 113/526/158
f 113/527/159 123/528/159 85/529/159
f 100/530/160 67/531/160 66/532/160 115/533/160
f 102/534/161 100/535/161 115/536/161 120/537/161
f 117/538/162 99/539/162 119/540/162
f 119/541/163 101/542/163 102/543/163 120/544/163
f 119/545/164 99/546/164 101/547/164
f 116/548/165 99/549/165 117/550/165
f 118/551/166 97/552/166 116/553/166
f 99/554/167 116/555/167 97/556/167
f 98/557/168 97/558/168 118/559/168
f 121/560/169 95/561/169 98/562/169
f 95/563/170 121/564/170 122/565/170
f 93/566/171 95/567/171 122/568/171
f 118/569/172 121/570/172 98/571/172
f 114/572/173 91/573/173 94/574/173
f 104/575/174 96/576/174 92/577/174 108/578/174
f 108/579/175 91/580/175 112/581/175
f 91/582/176 114/583/176 112/584/176
f 92/585/177 91/586/177 108/587/177
f 123/588/178 114/589/178 94/590/178
f 124/591/179 123/592/179 93/593/179
f 123/594/180 94/595/180 93/596/180
f 122/597/181 124/598/181 93/599/181
f 110/600/182 107/601/182 112/602/182
f 108/603/183 112/604/183 107/605/183
f 107/606/184 110/607/184 106/608/184
o object_2
v -0.2558625793457031 0.02160819053649904 6.194576486120824e-17
v -0.2558625793457031 0.43096490859985354 -2.8949685874576734e-17
v -0.2909502792358398 0.43096490859985354 -2.465268193858685e-17
v -0.2909502792358398 0.02160819053649904 6.624276879719813e-17
v -0.2558625793457031 0.43096490859985354 -0.04000000000000003
v -0.2558625793457031 0.021608190536499025 -0.03999999999999994
v -0.2909502792358398 0.43096490859985354 -0.04000000000000003
v -0.2909502792358398 0.021608190536499025 -0.03999999999999994
vt 0.546875 0.296875
vt 0.515625 0.296875
vt 0.515625 0.265625
vt 0.546875 0.265625
vt 0.609375 0.296875
vt 0.578125 0.296875
vt 0.578125 0.265625
vt 0.609375 0.265625
vt 0.671875 0.296875
vt 0.640625 0.296875
vt 0.640625 0.265625
vt 0.671875 0.265625
vt 0.734375 0.296875
vt 0.703125 0.296875
vt 0.703125 0.265625
vt 0.734375 0.265625
vt 0.796875 0.296875
vt 0.765625 0.296875
vt 0.765625 0.265625
vt 0.796875 0.265625
vt 0.859375 0.296875
vt 0.828125 0.296875
vt 0.828125 0.265625
vt 0.859375 0.265625
vn 1.2246467991473532e-16 2.220446049250313e-16 1
vn 1 -2.5407181807812022e-33 -1.2246467991473532e-16
vn -2.719262146893782e-32 1 -2.220446049250313e-16
vn -1 2.5407181807812022e-33 1.2246467991473532e-16
vn 2.719262146893782e-32 -1 2.220446049250313e-16
vn -1.2246467991473532e-16 -2.220446049250313e-16 -1
usemtl m_ef94d802-aeb1-3dac-058e-a78f78e7ca36
f 125/609/185 126/610/185 127/611/185 128/612/185
f 129/613/186 126/614/186 125/615/186 130/616/186
f 131/617/187 127/618/187 126/619/187 129/620/187
f 132/621/188 128/622/188 127/623/188 131/624/188
f 130/625/189 125/626/189 128/627/189 132/628/189
f 130/629/190 132/630/190 131/631/190 129/632/190
o object_1
v -0.3845175552368164 0.02160819053649904 7.770145530315143e-17
v -0.3845175552368164 0.43096490859985354 -1.3193995432633557e-17
v -0.4196052551269532 0.43096490859985354 -8.896991496643667e-18
v -0.4196052551269532 0.02160819053649904 8.199845923914131e-17
v -0.3845175552368164 0.43096490859985354 -0.040000000000000015
v -0.3845175552368164 0.021608190536499025 -0.039999999999999925
v -0.4196052551269532 0.43096490859985354 -0.04000000000000001
v -0.4196052551269532 0.021608190536499025 -0.03999999999999992
vt 0.921875 0.296875
vt 0.890625 0.296875
vt 0.890625 0.265625
vt 0.921875 0.265625
vt 0.984375 0.296875
vt 0.953125 0.296875
vt 0.953125 0.265625
vt 0.984375 0.265625
vt 0.046875 0.234375
vt 0.015625 0.234375
vt 0.015625 0.203125
vt 0.046875 0.203125
vt 0.109375 0.234375
vt 0.078125 0.234375
vt 0.078125 0.203125
vt 0.109375 0.203125
vt 0.171875 0.234375
vt 0.140625 0.234375
vt 0.140625 0.203125
vt 0.171875 0.203125
vt 0.234375 0.234375
vt 0.203125 0.234375
vt 0.203125 0.203125
vt 0.234375 0.203125
vn 1.2246467991473532e-16 2.220446049250313e-16 1
vn 1 -2.5407181807812022e-33 -1.2246467991473532e-16
vn -2.719262146893782e-32 1 -2.220446049250313e-16
vn -1 2.5407181807812022e-33 1.2246467991473532e-16
vn 2.719262146893782e-32 -1 2.220446049250313e-16
vn -1.2246467991473532e-16 -2.220446049250313e-16 -1
usemtl m_ef94d802-aeb1-3dac-058e-a78f78e7ca36
f 133/633/191 134/634/191 135/635/191 136/636/191
f 137/637/192 134/638/192 133/639/192 138/640/192
f 139/641/193 135/642/193 134/643/193 137/644/193
f 140/645/194 136/646/194 135/647/194 139/648/194
f 138/649/195 133/650/195 136/651/195 140/652/195
f 138/653/196 140/654/196 139/655/196 137/656/196